<?xml version="1.0" encoding="utf-8"?>
<!-- Generator: Adobe Illustrator 24.0.0, SVG Export Plug-In . SVG Version: 6.00 Build 0)  -->
<svg version="1.1" id="Layer_1" xmlns="http://www.w3.org/2000/svg" xmlns:xlink="http://www.w3.org/1999/xlink" x="0px" y="0px"
	 viewBox="0 0 771.9 724.9" style="enable-background:new 0 0 771.9 724.9;" xml:space="preserve">
<style type="text/css">
	.st0{fill:#FFFFFF;}
	.st1{fill:#F276A0;}
	.st2{fill:#E3038C;}
	.st3{fill:#FFDECF;}
	.st4{fill:#98A2D1;}
</style>
<g>
	<path d="M680.3,295.9c-11.7-3.4-32.3,4.8-33.7-12.4c-2.1-35.4-20.3-64.3-38.5-93.3c4.5-22,4.8-47.8-3.1-68.8
		c-4.2-11.4-11-26.9-25.1-29.6c-32.7,2.4-61.3,17.5-83.3,44c-29.2-2.1-57.1-7.2-87.1-4.8l-5.2-1.7c-5.5-7.9-9.3-17.2-17.9-23.7
		c-9.3-6.6-23.8-5.5-33,0.7c-6.9,3.8-11,12.4-18.6,14.8l-22.7-15.8c-14.8-7.2-28.9-17.9-46.5-16.5c-15.1,12.4-20.6,31-27.2,47.8
		c-2.7,5.8-1,13.4-5.5,18.6c-10.3,3.8-23.7,9.3-27.2,21.7c-6.2,17.9,7.5,29.9,11,44.7c-15.2,32.4-23.4,67.8-20.6,107.7l-2.1,3.4
		c-14.8,4.1-30.6,6.5-43.4,15.8c-0.3,1.4-1.7,3.1-0.3,4.1c11-1,20.3-8.3,31.3-10c5.5,0,12.4-4.1,16.9,0.7
		c3.1,12.4,7.9,23.8,10.3,36.1c-0.7,3.8-4.9,5.5-8,6.5c-4.5,3.1-12.7,5.5-13.1,11.7c3.5,2.1,7.6-0.3,10.7-2.1
		c5.9-1.4,12-6.9,17.9-4.1l20.6,23.7l0.7,2.4c-0.3,2.8-1.7,5.8-4.1,6.9c-22.3-8.9-47.1-13.4-72.6-14.8c-35.1,1.4-72.3,4.1-93.9,34.8
		c-10.3,19.6-2.8,43.7,11,59.5c41.6,45.4,106.6,59.9,166.9,44.7c9.6-2.4,18.2-7.6,27.5-9.3c0.3,9.6-1.7,20-2.1,29.9
		c-1.7,26.5,11.3,51.3,35.1,62.3c27.5,4.8,61.9,4.1,91.5,4.5c35.1-1.7,71.9,2.1,103.5-8.6l39.9,4.8c17.2-1.4,38.5,4.5,50.2-10.3
		c6.5-8.6,5.8-21.7,0.7-31c-9.6-17.2-30.3-17.9-47.8-21.3c-6.5-5.1-4.1-15.1-6.2-23c-8.6-30.6-35.1-54-38.9-86.7
		c-0.7-4.5-1.8-10.6,2-14.1c38.6-7.2,77.1-15.5,107.7-42c5.9-5.5,11-13.1,17.2-17.9c11.4,0.7,20.3,7.2,29.9,11
		c6.9,1.7,12,7.6,19.3,7.6c1.4,0,2.1-1.4,2.1-2.7c-12.7-11-29.3-14.5-43.7-23.1l-1.7-2.8l8.9-24.8l3.8-3.8l21,5.1
		c3.8,0.7,7.9,3.5,11.4,0.4c0.7-2.1-1-3.1-2.4-4.1c-9.3-5.5-23-3.8-29.6-13.8l3.8-31.3c5.5-5.5,12.7-2.1,20.3-3.1
		c13.8,0.3,25.8,4.8,38.9,6.5c1-0.3,2.4-1.4,2-2.7C700.6,300,690.6,298,680.3,295.9z M288.9,452.8c-1.3,3.9-3.3,6.9-3.4,6.8
		c-2.8-2.1-13.6-11.2-16.5-13.8c-2.6-2.3-25.1-16.2-23.5-17.9c0.3-0.3,1.1-3.4,3.9-2.4c3.9,1.4,20.6,9.3,23.6,10.1
		c3.4,0.9,14.8,5.7,17.7,7.1C291.1,443,290.4,448.4,288.9,452.8z"/>
	<path class="st0" d="M625.6,335.5c-8.3,0-17.5-0.3-24.8,3.1c4.8,6.2,15.5,2.4,22,4.8c5.2,5.5-0.7,12.7-1.7,18.6
		c-3.1,3.8-3.4,10-9.3,11c-7.5,0.7-14.8-1-21.3,1c-1,4.1,4.5,3.5,5.9,4.8c3.4,1.4,8.6,0,9.6,3.8c0,6.9-8.3,10.3-11.4,15.5h-1.4
		c-21.7,17.5-47.8,24.8-74.3,31.3c-56.1,10.7-112.5,10.3-172.4,6.5c-28.9-3.4-59.5-3.8-84-18.2c-2.4-1.1-2.7-4.5-1-6.2
		c2.1-3.8,10.7-6.2,6.9-10.7c-7.9,0.7-13.8,11-21.7,7.2c-7.2-4.8-13.1-12.4-17.9-19.6c-1.7-7.6,8.2-6.5,12.4-9.6
		c3.1-0.7,6.5-0.7,8.6-3.4c-2.8-3.4-9.3-2.7-13.4-1.4c-4.5-1.4-14.5,6.9-16.5-3.1c-3.5-9.3-6.9-18.9-7.9-29.6
		c4.8-5.8,13.8-5.5,21.7-5.5c3.8,0.3,8.6,1.4,11.4-2.1c-9.6-6.9-22.4-3.4-33.7-4.8c-3.5-1.4-2.4-5.5-4.1-7.9
		c1-28.9,1.4-59.2,16.5-82.9c1.7-2.1,4.5-1.7,5.5,0.3c10.6,15.8,27.9,30.6,47.1,26.2c16.2-7.9,21.7-24.5,32-37.2
		c10.3-2.4,21-3.1,29.3-9.6c5.2-3.1,9.3-11.7,16.2-6.9c16.5,4.5,40.3,9.3,53.3-5.5c13.4-16.9,4.1-42.3,2.7-61.2l3.4-1.7
		c30.3-2.4,59.5,1,87.1,6.2c11-2.4,12.4-14.8,21-21c16.9-12.4,34.8-23.4,56.1-24.8c10.3,6.9,14.1,18.6,17.2,29.3
		c2.8,14.8,3.4,27.5,1.1,42.7c2.4,9.3-13.8,5.2-7.5,14.4c20.6,24.8,37.1,51.6,42.6,82.9c0.7,6.2,1.7,13.4-0.3,19.3l-5.5,3.1
		c-10.7,1.7-21,4.1-30.6,7.9c-0.7,0.7-1.4,2.1-0.7,2.8c7.6,3.8,14.8-2.4,22-2.4c4.8-0.7,10-1.7,14.5-0.4c1.7,1.8,2.4,3.5,2.4,5.5
		C630.7,317.6,632.4,328.9,625.6,335.5z"/>
	<path class="st0" d="M576.7,618.3c-8.3,4.8-20.6,2.4-30,2.1c-8.9-1.4-19.3-0.7-27.1-4.8c2-7.6,8.9-13.1,12.4-20.3
		c3.1-4.1,2.1-10.7,7.9-12.7c14.1,2.1,33.1-1.7,39.6,15.5C582.6,604.9,581.5,612.8,576.7,618.3z"/>
	<path d="M545.7,345.5c-4.5,1.4-8.3-0.3-12-2.4c-6.2-4.8-5.5-12-5.5-19.6c1-4.5,1.7-10.3,6.5-12.7c4.8-2.1,9.7-2.1,14.5,0
		c6.9,6.2,7.6,16.9,4.8,25.1C551.9,339.3,550.2,344.1,545.7,345.5z"/>
	<path class="st1" d="M489.3,615.5c-21.7,8.6-48.5,6.5-73.3,8.3c-18.9-1.4-37.8,1.4-57.1-2.1l-2.8-3.4c0.4-32-0.3-66,9.6-95.3
		c2.4-2.4,6.6-2.4,9.3-1.4c2.4,5.5-4.1,9.6-3.8,15.1c-0.4,9.6,4.8,17.5,12.7,22.4c6.8,4.1,16.1,1.4,22.7-1.4
		c4.5,1.4,4.1,6.9,7.6,9.3c5.2,7.2,15.8,3.4,18.6,12.4c4.8,9.6,14.8,12.4,24.8,12.4c11,1,19.9-5.9,25.4-14.4
		c9.6-22.4,6.2-45.1,5.5-70.2c-2.1-14.4-5.5-29.9-18.9-38.9c-5.2-3.5-11.7-4.1-18.2-5.2c-3.8-2.7-1.4-8.2-0.7-11.7
		c8.3-3.4,18.9-2.1,27.5-2.4c3.8,5.5,4.5,11.7,4.8,18.9c6.9,22,20.6,40.9,31,60.9c10,18.2,14.5,45.4,1.4,63.3
		C509.6,602.8,498.6,609.3,489.3,615.5z"/>
	<path class="st0" d="M464.9,582.2c-6.5,2.8-15.5,1.7-21-3.1c-5.9-3.8-4.5-12.4-11.4-14.8c-5.2,0.4-10.3-1-13.1-5.9
		c-0.7-3.8-0.7-9.6,2.8-12.7c7.2-2.7,7.9-10,8.2-16.9c2.1-18.9-2.1-44.7,18.6-54c5.5-1.7,11.3,0,15.5,2.8c11,12,15.8,27.9,15.8,43.7
		C479.3,542.6,485.2,569.8,464.9,582.2z"/>
	<path d="M436.7,375.7c-9,7.2-23.4,5.8-33.4,2.1c-3.8-3.4-6.6-7.9-5.8-13.4c3.4-11.3,16.5-12,26.8-12.7c5.1,0,9.3,2.4,13.1,4.8
		C442.5,361.6,441.2,370.9,436.7,375.7z"/>
	<path class="st2" d="M421.5,490c-11.7,16.2-30.6,20.6-49.5,19.6c-3.8-6.5,1.7-13.4,2.8-20c5.2-12.7,8.9-26.1,16.1-37.8
		c13.8-2.1,29.3-1.7,42.7-1.7c3.1-0.3,3.1,3.1,3.8,4.8C435.3,468,430.5,480,421.5,490z"/>
	<path class="st3" d="M427.4,375.7c-5.9,2.7-15.5,3.1-20.7-1.7c-3.4-2.8-3.4-7.6-2.4-11.3c5.2-6.9,14.8-6.9,22.4-6.2
		c3.1,0.4,5.5,3.1,7.2,5.5C434.9,367.5,432.9,373.7,427.4,375.7z"/>
	<path class="st1" d="M419.8,533.3c-0.7,1.4-2.1,1.7-3.4,1c-2.8-6.2-7.2-11.7-12.4-16.9c0.7-4.8,6.5-5.8,10-8.6
		c2.4-1.4,5.8-3.4,7.2,0.3L419.8,533.3z"/>
	<path class="st2" d="M400.6,550.9c-3.5,2.8-8.3,2.8-12.4,1c-4.5-2.1-7.2-6.9-8.2-11.7c-0.4-4.5,1-8.3,3.8-11.4
		c3.8-3.1,8.6-4.8,13.4-4.1c4.8,1.4,8.6,6.5,9.6,11C407.1,541.9,405.7,547.1,400.6,550.9z"/>
	<path class="st1" d="M392.6,203.4c-12,5.9-25.4,0-37.1-2.4c-4.8-4.5-1-11.7-0.7-17.2c4.8-4.1,14.4-4.5,14.8-13.1
		c0.7-6.2-1.7-11-6.2-15.1c-9.9-10-22.7,8.9-30.2-5.9c0.7-9.6,9.3-16.9,14.8-25.1c8.3-8.6,17.5-18.9,30.3-13.8
		c13.1,8.3,14.4,23.7,18.9,36.5c3.1,5.2,1.4,10.7,4.1,15.5C403,177.6,405.4,193.4,392.6,203.4z"/>
	<path class="st0" d="M354.1,513c-1.4,2.1-3.8,0.7-5.5,0c-12.4-10-31-14.1-46.5-8.2c-4.5,0.3-2.4-5.2-3.1-8.3
		c0-7.6-2.1-14.8-4.5-21.7c7.6-6.9,2.4-22,15.1-23.7c8.3,0,12.7,8.3,16.9,13.8l4.1,0.7l40.3-10.7c3.1,6.2-2.1,11.7-3.4,17.2
		C362.7,485.5,358.6,499.6,354.1,513z"/>
	<path class="st1" d="M355.1,171.7c-3.4,0.7-4.8-3.1-5.9-5.8c0-2.4,2.1-4.1,4.1-4.5c2.1,0.4,5.5,0.7,5.1,3.5
		C359.6,167.9,357.5,170.3,355.1,171.7z"/>
	<path class="st0" d="M342,619.3c-4.8,4.5-13.7,2.1-20.3,2.1c-12.4,0.7-22.7-7.6-29.9-17.2c-11.7-19.6-10-45.4-4.1-66.7
		c3.8-11,15.5-18.2,25.4-21.3c11.7-1.7,23.8,3.4,32,12.7l3.8,7.2C345.8,563.6,344.5,591.1,342,619.3z"/>
	<path class="st1" d="M341.7,196.8c-2.8,6.9-8.6,13.4-15.5,16.8c-6.5,2.8-15.5,2.8-21.7-1c-11-6.5-16.2-18.2-17.2-30.3
		c2.4-2.7,2.4-7.2,4.2-10.7c3.1-6.9,10.6-12.4,17.5-14.4c9.6-2.4,18.2,2.1,25.5,7.6c5.5,6.2,8.6,13.4,8.6,21l1.4,0.7
		C342,189.3,343.1,194.1,341.7,196.8z"/>
	<path class="st0" d="M318.7,144.9c-14.8-1-24.1,8.6-35.5,15.8c-10.3-4.1-21.7-6.2-33.3-8.3c-1.7-3.8-0.7-10,0.7-14.5
		c4.5-11.7,10.3-23.4,18.2-33.4c4.5-4.5,10.3-1.4,15.2,0c14.4,7.6,29.2,15.5,40.9,27.2C327.6,137.6,322.1,141.4,318.7,144.9z"/>
	<path d="M303.8,347.2c-3.8,0.7-7.9,1.4-11-1.7c-7.9-6.2-6.5-16.9-4.8-25.8c1-4.1,4.4-6.9,8.2-8.6c4.1-1,7.9,0.7,10.7,3.4
		C313.8,324.1,314.2,340.3,303.8,347.2z"/>
	<path class="st1" d="M270.5,254.3c-16.5,1.4-26.8-16.2-37.5-27.5c-8.6-15.8-28.5-34.4-13.1-53c14.1-14.4,39.2-10.3,55.4-3.4
		c1.7,4.8,3.1,10,0,14.5c-5.5,3.5-12.7,7.9-14.8,14.4c-1.7,4.8,0,10,2.8,13.4c3.8,4.8,8.9,6.9,14.8,6.2c5.1,0.4,10.3-6.2,14.8-1
		c4.1,2.8,4.5,7.6,2.4,11C290.4,239.1,282.2,251.2,270.5,254.3z"/>
	<path class="st4" d="M278.1,522c-29.9,25.8-77.8,25.8-117.7,18.9c-35.1-9-77.4-30.3-86.7-70.2c-3.8-13.8,2.8-25.5,13.1-34.1
		c24.5-20.6,59.5-17.5,91.9-17.2c16.9,2.4,32.7,7.2,47.9,13.1c1.7,2.1-0.3,5.2,1.7,6.9c5.2,2.8,7.6-5.1,12.4-1
		c21.3,10.3,44.7,29.2,48.8,53.7C290.4,504.1,286.7,514.4,278.1,522z"/>
	<path class="st1" d="M276.7,210.6c-3.4,0.3-5.8-1.7-7.6-4.8c-1.7-4.1,1.7-7.6,4.5-9.6c1.4,0,2.4-1,3.4-0.3c3.1,2.1,2.4,5.8,4.5,8.3
		C281.2,206.8,280.5,210.9,276.7,210.6z"/>
	<path d="M254,505.1c-12.7,11.7-31,11.3-47.5,12.7c-33.4,0-65.7-5.5-90.2-28.5c-4.5-6.2-8.6-12.4-9-20.3c0.3-5.9,3.1-10.3,6.9-14.8
		c32.7-20.3,76.7-6.6,109.4,4.1c14.1,6.2,30.9,17.2,34.7,33.4C258.4,496.8,257.4,501.3,254,505.1z"/>
	<path class="st4" d="M240.2,503.4c-14.8,7.9-31.6,6.9-49.2,6.2c-20.7-2.4-41-5.2-57.8-17.2c1-2.4-1.7,0-2.8-1.7
		c-6.5-5.1-14.1-12.4-13.4-21.7c1.1-9,10.3-13.1,17.5-15.5c29.6-4.8,59.2,1.7,85,11.7c11.7,5.2,25.1,12.4,28.2,25.8
		C248.5,496.2,244.7,500.6,240.2,503.4z"/>
</g>
</svg>
