<?xml version="1.0" encoding="utf-8"?>
<!-- Generator: Adobe Illustrator 24.0.0, SVG Export Plug-In . SVG Version: 6.00 Build 0)  -->
<svg version="1.1" id="Layer_1" xmlns="http://www.w3.org/2000/svg" xmlns:xlink="http://www.w3.org/1999/xlink" x="0px" y="0px"
	 viewBox="0 0 771.9 724.9" style="enable-background:new 0 0 771.9 724.9;" xml:space="preserve">
<style type="text/css">
	.st0{fill-rule:evenodd;clip-rule:evenodd;fill:#FFFFFF;}
	.st1{fill:none;stroke:#1D1D1B;stroke-width:1.2994;stroke-linecap:round;stroke-linejoin:round;}
	
		.st2{fill-rule:evenodd;clip-rule:evenodd;fill:#FFFFFF;stroke:#1D1D1B;stroke-width:1.2994;stroke-linecap:round;stroke-linejoin:round;}
	.st3{fill-rule:evenodd;clip-rule:evenodd;fill:#E6007E;}
	.st4{fill-rule:evenodd;clip-rule:evenodd;fill:#F29FC5;}
	.st5{fill-rule:evenodd;clip-rule:evenodd;fill:#1D1D1B;}
	.st6{fill-rule:evenodd;clip-rule:evenodd;fill:#CD1719;stroke:#1D1D1B;stroke-width:1.2994;}
</style>
<g>
	<path class="st0" d="M249.5,161.9c0,0-23.9-17.6,7.1-81.9c0,0,65.3,13.4,73.7,33.1C338.5,132.7,249.5,161.9,249.5,161.9
		L249.5,161.9z"/>
	<path class="st1" d="M249.5,161.9c0,0-23.9-17.6,7.1-81.9c0,0,65.3,13.4,73.7,33.1C338.5,132.7,249.5,161.9,249.5,161.9
		L249.5,161.9z"/>
	<path class="st0" d="M430.8,115c0,0,39.3-40.5,75.6-40.5c0,0,27,44.5,13.6,91.2C506.5,212.3,430.7,115,430.8,115L430.8,115z"/>
	<path class="st1" d="M430.8,115c0,0,39.3-40.5,75.6-40.5c0,0,27,44.5,13.6,91.2C506.5,212.3,430.8,115,430.8,115L430.8,115z"/>
	<path class="st0" d="M301.8,566.2l-1.1,67.1c0,0,2.4,16.3,22.4,16.9c20,0.5,42.3-0.1,42.3-0.1c0,0,21.1,1.8,21.1-29
		c0-30.8-0.1-54.4-0.1-54.4L301.8,566.2L301.8,566.2z"/>
	<path class="st1" d="M301.8,566.2l-1.1,67.1c0,0,2.4,16.3,22.4,16.9c20,0.5,42.3-0.1,42.3-0.1s21.1,1.8,21.1-29
		c0-30.8-0.1-54.4-0.1-54.4L301.8,566.2L301.8,566.2z"/>
	<path class="st2" d="M399.1,564.3l0.1,67.1c0,0,1.8,21.1,36.9,18.7c35-2.4,49,2.4,48.9-24.8c0-27.2-0.1-63.5-0.1-63.5L399.1,564.3
		L399.1,564.3z"/>
	<path class="st3" d="M275.6,388c0,0-32.6,47.8-42.8,58.7c-10.3,10.9-6.6,27.2,2.4,27.1c9.1,0,26,15.1,44.1-9.7
		C297.4,439.3,334.2,383.7,275.6,388L275.6,388z"/>
	<path class="st1" d="M275.6,388c0,0-32.6,47.8-42.8,58.7c-10.3,10.9-6.6,27.2,2.4,27.1c9.1,0,26,15.1,44.1-9.7
		C297.4,439.3,334.2,383.7,275.6,388L275.6,388z"/>
	<path class="st3" d="M456.9,401c0,0,26.7,62.8,46.6,68.9c20,6,56.8-1.9,37.4-23c-19.4-21.1-41.2-62.8-41.2-62.8L456.9,401
		L456.9,401z"/>
	<path class="st1" d="M456.9,401c0,0,26.7,62.8,46.6,68.9c20,6,56.8-1.9,37.4-23c-19.4-21.1-41.2-62.8-41.2-62.8L456.9,401
		L456.9,401z"/>
	<path class="st3" d="M287.1,372.2c0,0-26,131-24,195.8c0,0,106.7,42.2,250-4.7c0,0,13.5-123.5-83.2-183.8
		C333.1,319.1,287.1,372.2,287.1,372.2L287.1,372.2z"/>
	<path class="st1" d="M287.1,372.2c0,0-26,131-24,195.8c0,0,106.7,42.2,250-4.7c0,0,13.5-123.5-83.2-183.8
		C333.1,319.1,287.1,372.2,287.1,372.2L287.1,372.2z"/>
	<path class="st4" d="M272.2,354.6c0,0-38.7,33.9-17.2,42.9c21.4,9,94,43.4,114.7,30.2c15.9-11.8,20-41.5,20-41.5
		c0,0,7.6,27.6,11.8,35.2c4.2,7.6,15.9,4.1,38,0.7c22.1-3.5,53.2-11.8,70.5-29.8c17.3-18,0-34.6-24.2-44.9
		C461.5,337.1,272.2,354.6,272.2,354.6L272.2,354.6z"/>
	<path class="st1" d="M272.2,354.6c0,0-38.7,33.9-17.2,42.9c21.4,9,94,43.4,114.7,30.2c15.9-11.8,20-41.5,20-41.5
		s7.6,27.6,11.8,35.2c4.2,7.6,15.9,4.1,38,0.7c22.1-3.5,53.2-11.8,70.5-29.8c17.3-18,0-34.6-24.2-44.9
		C461.5,337.1,272.2,354.6,272.2,354.6L272.2,354.6z"/>
	<path class="st2" d="M205.7,240.9c0,0,12.6,99.7,79.9,120.7c67.3,21.1,158.3,42.1,235.4-40.2c77.1-82.3-46.4-194.3-116.2-190.4
		C335.1,134.8,236.7,152.4,205.7,240.9L205.7,240.9z"/>
	<path class="st1" d="M510.8,292.7l43.7-0.9 M505.6,306.4l47.2-2.6 M498.6,322.6l49.7-1.4 M251,290.6l-47.8,0.7 M252.9,308.7
		l-49.1,3.3 M252.3,325.5l-46.5,0.7"/>
	<path class="st5" d="M304.5,266.5c0-9.1-7.5-16.5-16.6-16.5c-9.2,0-16.6,7.4-16.6,16.6c0,9.2,7.5,16.6,16.6,16.6
		C297.1,283.1,304.5,275.6,304.5,266.5L304.5,266.5z"/>
	<path class="st5" d="M483.8,263.1c0-9.2-7.4-16.6-16.6-16.6c-9.2,0-16.6,7.4-16.6,16.6c0,9.2,7.5,16.5,16.6,16.6
		C476.4,279.7,483.8,272.3,483.8,263.1L483.8,263.1z"/>
	<path class="st6" d="M397.9,304.7c0-6.3-8.4-11.4-18.7-11.4c-10.3,0-18.7,5.1-18.6,11.4c0,6.3,8.4,11.4,18.7,11.4
		C389.5,316.1,397.9,311,397.9,304.7L397.9,304.7z"/>
	<path class="st0" d="M433.3,500.3c0-6.3-6.3-11.4-14-11.4c-7.7,0-14,5.1-13.9,11.4c0,6.3,6.2,11.4,14,11.4
		C427.1,511.7,433.3,506.6,433.3,500.3L433.3,500.3z"/>
	<path class="st0" d="M368.8,500.4c0-6.3-6.2-11.4-14-11.4c-7.7,0-13.9,5.1-14,11.4c0,6.3,6.3,11.4,14,11.4
		C362.6,511.8,368.9,506.7,368.8,500.4L368.8,500.4z"/>
	<path class="st0" d="M372.9,462.8c0-5.4-5.4-9.7-11.9-9.7c-6.6,0-11.9,4.4-11.9,9.7c0,5.4,5.4,9.7,11.9,9.7
		C367.6,472.5,372.9,468.2,372.9,462.8L372.9,462.8z"/>
	<path class="st0" d="M429.1,462.7c0-5.4-5.4-9.7-12-9.7c-6.6,0-11.9,4.4-11.9,9.7c0,5.4,5.3,9.8,11.9,9.7
		C423.8,472.5,429.1,468.1,429.1,462.7L429.1,462.7z"/>
	<polygon class="st0" points="408.5,467.1 369.1,467.1 369,458.1 408.5,458.1 408.5,467.1 	"/>
	<polygon class="st0" points="409.9,504.4 362.9,504.4 362.9,494.8 409.9,494.7 409.9,504.4 	"/>
	<path class="st2" d="M213.1,478.2c0,0-4.3-6.8,1-11.2c5.3-4.3,15.8-3.6,26.2-2.3c10.4,1.3,29,9.9,24.7,28.2
		c-4.3,18.3-34.7,30.1-48.7,19.9c-14-10.1-9.4-19-4.9-22.6C215.9,486.6,216.5,481.5,213.1,478.2L213.1,478.2z"/>
	<path class="st2" d="M556,467.5c0,0,1.4,1-0.7,5.9c-2.1,4.8,0.4,10.7,4.2,13.1c3.8,2.4,10,13.8-4.1,22.1c-14.2,8.3-32.8,1.5-46-13
		c-13.1-14.5,3.8-27.6,13.1-31.1C531.8,461,551.5,456.1,556,467.5L556,467.5z"/>
	<path class="st3" d="M245.2,333.1c0,0-102.6-93.8,58-168.3c160.6-74.5,310.2,100.1,200.4,173.5c0,0,68.5-29.2,48.7-130.7
		C527.7,119.3,405.5,97,370.8,98.9C321,88.6,104,185.8,245.2,333.1L245.2,333.1z"/>
	<path class="st1" d="M245.2,333.1c0,0-102.6-93.8,58-168.3c160.6-74.5,310.2,100.1,200.4,173.5c0,0,68.5-29.2,48.7-130.7
		C527.7,119.3,405.5,97,370.8,98.9C321,88.6,104,185.8,245.2,333.1L245.2,333.1z"/>
	<path class="st3" d="M476.1,153.3c0,0-12.3-26-50.1-41.2c-37.8-15.1-56.5-7.3-60.9,23.2c-4.4,30.5,9.9,35.4,46.7,41.7
		C448.6,183.3,472.2,189.2,476.1,153.3L476.1,153.3z"/>
	<path class="st1" d="M476.1,153.3c0,0-12.3-26-50.1-41.2c-37.8-15.1-56.5-7.3-60.9,23.2c-4.4,30.5,9.9,35.4,46.7,41.7
		C448.6,183.3,472.2,189.2,476.1,153.3L476.1,153.3z"/>
	<path class="st3" d="M488.4,156.3c0,0,13.2-12.3,56,2.8c42.8,15.2,28,33.4,21.7,41.8c-6.4,8.3-37.8,14.8-56-1.9
		C491.8,182.3,472.7,175,488.4,156.3L488.4,156.3z"/>
	<path class="st1" d="M488.4,156.3c0,0,13.2-12.3,56,2.8c42.8,15.2,28,33.4,21.7,41.8c-6.4,8.3-37.8,14.8-56-1.9
		C491.8,182.3,472.7,175,488.4,156.3L488.4,156.3z"/>
	<path class="st3" d="M504.2,170.1c-1.2,8.2-13.4,13.2-27.2,11.2c-13.8-2-24.1-10.3-22.9-18.5c1.2-8.2,13.3-13.2,27.2-11.2
		C495.2,153.7,505.4,161.9,504.2,170.1L504.2,170.1z"/>
	<path class="st1" d="M504.2,170.1c-1.2,8.2-13.4,13.2-27.2,11.2c-13.8-2-24.1-10.3-22.9-18.5c1.2-8.2,13.3-13.2,27.2-11.2
		C495.2,153.7,505.4,161.9,504.2,170.1L504.2,170.1z"/>
</g>
</svg>
