<?xml version="1.0" encoding="utf-8"?>
<!-- Generator: Adobe Illustrator 24.0.0, SVG Export Plug-In . SVG Version: 6.00 Build 0)  -->
<svg version="1.1" id="Layer_1" xmlns="http://www.w3.org/2000/svg" xmlns:xlink="http://www.w3.org/1999/xlink" x="0px" y="0px"
	 viewBox="0 0 771.9 724.9" style="enable-background:new 0 0 771.9 724.9;" xml:space="preserve">
<style type="text/css">
	.st0{fill:#694318;}
	.st1{fill:#DCD900;}
	.st2{fill:#F2BDD1;}
	.st3{fill:#FFFFFF;}
</style>
<g>
	<g>
		<path class="st0" d="M362.2,456.5V532c-10.1-16.8-24.2-31.4-41.7-42.3c0,0,0,0,0,0c-43.8-27.1-99-24.9-140.6,5.6
			c-2.6,1.9-4.4,4.8-4.9,7.9c-8.6,50.9,14.1,101.3,57.9,128.4c40.3,24.9,90.4,25,130.5,1c2.9,9.9,11.9,17.1,22.7,17.1
			c10.8,0,19.8-7.2,22.7-17.1c40.2,24,90.2,23.9,130.6-1c43.8-27.1,66.5-77.5,57.9-128.4c-0.5-3.2-2.3-6-4.9-7.9
			c-41.6-30.5-96.8-32.7-140.6-5.6h0c-17.6,10.8-31.7,25.5-41.8,42.3v-74.4"/>
		<path class="st1" d="M386,632.1c-3.4,0-6.2-2.8-6.2-6.2V458.5c3.2,0.2,8.7,0,12.3,0.3v167.1C392.1,629.3,389.4,632.1,386,632.1z"
			/>
		<path class="st1" d="M354.2,608.6c-32.8,21.5-74.7,22.5-108.3,1.7c-56.4-36.3-47.4-93.7-46.8-97.7c32.8-21.5,74.7-22.5,108.3-1.7
			C364.7,549.2,354.6,604.6,354.2,608.6z"/>
		<path class="st1" d="M526.1,610.4c-33.6,20.8-75.5,19.8-108.3-1.7c-0.5-4-11.1-58.6,46.9-97.7c33.6-20.8,75.5-19.8,108.3,1.7
			C573.4,516.7,582.2,573.7,526.1,610.4z"/>
	</g>
	<g>
		<path class="st0" d="M603.1,255.8c0-9-1.4-17.9-4.2-26.8c-15.2-46.7-67.3-72-119.2-59.9c-4.7-53-44.7-94.7-93.8-94.7
			c-49.1,0.1-89.1,41.8-93.8,94.8c-25.4-5.8-51.8-3.3-73.9,8c-22,11.2-38,29.7-45.3,52.1c-2.8,8.7-4.2,17.7-4.2,26.8
			c0,14.1,3.5,28.5,10.3,41.9c11.3,22.1,31.2,39.4,55.1,49.7c-10.7,17.9-16.4,37.6-16.4,56.7c0,29.6,12.6,57.7,36.7,75.2
			c39.8,28.9,96.6,18.4,131.5-21.8c17,19.7,39.8,33.3,64.4,37.2c24.4,3.9,48.3-1.6,67.4-15.6c19-13.7,31.7-34.8,35.5-59.1
			c0.8-5.2,1.2-10.4,1.2-15.8c0-19.5-5.9-39.3-16.5-56.9C577.7,330.8,603.1,294.1,603.1,255.8z"/>
		<path class="st2" d="M454.5,179.2c0-43.4-30.7-78.6-68.6-78.6c-37.8,0.1-68.5,35.2-68.5,78.6c0,12.4,2.6,24.1,7.1,34.6
			c-8.6-7.5-18.9-13.6-30.7-17.5c-41.3-13.4-84.2,5-95.9,41c-11.7,36,12.3,76,53.6,89.4c11.8,3.8,23.7,5,35.1,4
			c-9.8,5.8-18.8,13.7-26.1,23.8c-25.5,35.2-21.3,81.6,9.3,103.8c30.6,22.2,76.1,11.8,101.7-23.4c7.2-10.1,12.1-21.1,14.6-32.2
			c2.5,11.1,7.3,22.1,14.6,32.2c25.5,35.1,71.1,45.5,101.7,23.2c30.6-22.2,34.7-68.8,9.2-103.9c-7.4-10-16.3-17.9-26.1-23.8
			c11.3,1.1,23.3-0.1,35.1-4c41.3-13.5,65.2-53.5,53.5-89.5c-11.7-36-54.6-54.2-95.9-40.8c-11.9,3.8-22.2,10-30.7,17.5
			C451.9,203.3,454.5,191.7,454.5,179.2z"/>
		<path class="st3" d="M399.6,256.6c23,7.5,35.7,32.2,28.2,55.3c-7.5,23.1-32.2,35.8-55.3,28.2c-23-7.5-35.7-32.2-28.2-55.3
			C351.7,261.7,376.5,249.2,399.6,256.6z"/>
	</g>
</g>
</svg>
