<?xml version="1.0" encoding="utf-8"?>
<!-- Generator: Adobe Illustrator 24.0.0, SVG Export Plug-In . SVG Version: 6.00 Build 0)  -->
<svg version="1.1" id="Layer_1" xmlns="http://www.w3.org/2000/svg" xmlns:xlink="http://www.w3.org/1999/xlink" x="0px" y="0px"
	 viewBox="0 0 771.9 724.9" style="enable-background:new 0 0 771.9 724.9;" xml:space="preserve">
<style type="text/css">
	.st0{fill:#252321;stroke:#252321;stroke-width:9.380000e-02;stroke-miterlimit:10;}
	.st1{fill:#FFFFFF;stroke:#FFFFFF;stroke-width:9.380000e-02;stroke-miterlimit:10;}
	.st2{fill:#E23036;stroke:#E23036;stroke-width:9.380000e-02;stroke-miterlimit:10;}
	.st3{fill:#FDFFFF;stroke:#FDFFFF;stroke-width:9.380000e-02;stroke-miterlimit:10;}
	.st4{fill:#DD3A39;stroke:#DD3A39;stroke-width:9.380000e-02;stroke-miterlimit:10;}
	.st5{fill:#E23037;stroke:#E23037;stroke-width:9.380000e-02;stroke-miterlimit:10;}
	.st6{fill:#E13037;stroke:#E13037;stroke-width:9.380000e-02;stroke-miterlimit:10;}
	.st7{fill:#D73C40;stroke:#D73C40;stroke-width:9.380000e-02;stroke-miterlimit:10;}
	.st8{fill:#FDDF10;stroke:#FDDF10;stroke-width:9.380000e-02;stroke-miterlimit:10;}
	.st9{fill:#1D1D1C;stroke:#1D1D1C;stroke-width:9.380000e-02;stroke-miterlimit:10;}
	.st10{fill:#262624;stroke:#262624;stroke-width:9.380000e-02;stroke-miterlimit:10;}
	.st11{fill:#20201F;stroke:#20201F;stroke-width:9.380000e-02;stroke-miterlimit:10;}
	.st12{fill:#BA9D5B;stroke:#BA9D5B;stroke-width:9.380000e-02;stroke-miterlimit:10;}
	.st13{fill:#FDE014;stroke:#FDE014;stroke-width:9.380000e-02;stroke-miterlimit:10;}
	.st14{fill:#2B2421;stroke:#2B2421;stroke-width:9.380000e-02;stroke-miterlimit:10;}
	.st15{fill:#F3BA15;stroke:#F3BA15;stroke-width:9.380000e-02;stroke-miterlimit:10;}
	.st16{fill:#FCFCFD;stroke:#FCFCFD;stroke-width:9.380000e-02;stroke-miterlimit:10;}
	.st17{fill:#FBDF15;stroke:#FBDF15;stroke-width:9.380000e-02;stroke-miterlimit:10;}
	.st18{fill:#6AC0BD;stroke:#6AC0BD;stroke-width:9.380000e-02;stroke-miterlimit:10;}
	.st19{fill:#FCE010;stroke:#FCE010;stroke-width:9.380000e-02;stroke-miterlimit:10;}
	.st20{fill:#6EBFC1;stroke:#6EBFC1;stroke-width:9.380000e-02;stroke-miterlimit:10;}
	.st21{fill:#FADF2E;stroke:#FADF2E;stroke-width:9.380000e-02;stroke-miterlimit:10;}
	.st22{fill:#74C0B5;stroke:#74C0B5;stroke-width:9.380000e-02;stroke-miterlimit:10;}
	.st23{fill:#FBE018;stroke:#FBE018;stroke-width:9.380000e-02;stroke-miterlimit:10;}
	.st24{fill:#FBFBFC;stroke:#FBFBFC;stroke-width:9.380000e-02;stroke-miterlimit:10;}
	.st25{fill:#69BFB8;stroke:#69BFB8;stroke-width:9.380000e-02;stroke-miterlimit:10;}
	.st26{fill:#2B2624;stroke:#2B2624;stroke-width:9.380000e-02;stroke-miterlimit:10;}
	.st27{fill:#F3BC17;stroke:#F3BC17;stroke-width:9.380000e-02;stroke-miterlimit:10;}
	.st28{fill:#CCDFED;stroke:#CCDFED;stroke-width:9.380000e-02;stroke-miterlimit:10;}
	.st29{fill:#69C0C2;stroke:#69C0C2;stroke-width:9.380000e-02;stroke-miterlimit:10;}
	.st30{fill:#262625;stroke:#262625;stroke-width:9.380000e-02;stroke-miterlimit:10;}
	.st31{fill:#2A2A26;stroke:#2A2A26;stroke-width:9.380000e-02;stroke-miterlimit:10;}
	.st32{fill:#D4C853;stroke:#D4C853;stroke-width:9.380000e-02;stroke-miterlimit:10;}
	.st33{fill:#F0A454;stroke:#F0A454;stroke-width:9.380000e-02;stroke-miterlimit:10;}
	.st34{fill:#36140E;stroke:#36140E;stroke-width:9.380000e-02;stroke-miterlimit:10;}
	.st35{fill:#FFE612;stroke:#FFE612;stroke-width:9.380000e-02;stroke-miterlimit:10;}
	.st36{fill:#DCD242;stroke:#DCD242;stroke-width:9.380000e-02;stroke-miterlimit:10;}
	.st37{fill:#D1C459;stroke:#D1C459;stroke-width:9.380000e-02;stroke-miterlimit:10;}
	.st38{fill:#BA4142;stroke:#BA4142;stroke-width:9.380000e-02;stroke-miterlimit:10;}
</style>
<g>
	<path class="st0" d="M214.3,88.8c5.9-8.1,15-15.9,25.7-14c25,4.3,45.7,19.7,66.6,32.8c24-2.9,48.5-2.6,72.5-1.9
		c9.3-10.2,18.6-22.1,32.8-25.5c9-1.7,19.3-1.4,27.4,3.6c8.3,4.5,14,12.4,21.6,17.8c21.2-6.4,43.1-15.7,65.7-11.9
		c10.7,3.6,14.5,15.5,17.6,25.2c4,15.9,6.2,32.6,5,49c3.6,11.4,9.5,23.3,4.3,35.4c-2.9,12.8-16.9,23.1-11.9,36.9
		c5.2,16.2,6.4,33.3,9.3,50c10.9,2.9,21.9,5.5,33.1,8.1c0,2.4,0,4.8,0.2,7.4c-11.9-0.2-23.8-1.4-35.7-2.6c-1.4,10-4,19.7-6.2,29.5
		c8.3,4.3,18.8,7.1,21.9,16.9c-9.5-0.2-18.6-3.3-27.6-5c-4.3,7.8-9.3,15.2-12.8,23.5c8.1,9.8,23.8,13.1,25.9,27.4
		c-13.6,0.2-21.9-12.6-33.8-16.9c-7.8,5.9-14.3,13.8-22.6,19.3c-12.6,9.5-28.1,13.6-42.1,20c25,14.3,45.4,35,62.3,58
		c10.2-1.2,20,1.4,29,5.9c6.9-1.9,13.3-6.4,20.9-5.9c8.1-1.2,14,4.8,20.9,7.8c6.4-3.1,11.9-8.6,19.5-7.8c7.8-1,15,3.1,21.4,6.9
		c6.7-4,13.6-8.1,21.4-6.9c12.1-0.7,25,10,23.3,23.1c1.2,8.6-5.5,15.2-5.9,23.3c5.7,13.3,15.7,24.3,20.9,37.8
		c6.9,18.3,11.4,39.2,4.5,58c-4.8,15.2-18.8,25.7-34,28.8c-24,4.3-48.8,3.6-73,3.6c-22.1,0-44.5,1-66.4-3.3
		c-15.5-2.4-30.4-11.4-36.2-26.4c-8.8-22.6-2.1-47.3,6.4-69.2c-9-1.2-17.8-2.6-26.4-4.5c-2.6,24.7,5.7,51.4-7.6,74.2
		c-9.8,18.8-31.2,27.6-51.1,30.9c-17.6,1.2-35.4,3.6-53,1c-18.1-1.4-35.2-8.8-53.5-7.4c-23.1-0.5-49,3.3-69-11.4
		c-19-13.8-22.4-41.4-12.1-61.6c5.7-10.2,3.1-22.1,4.8-33.1c2.4-20.7,10.7-40,15.9-59.9c-28.1-11.2-56.1-25.5-76.6-48
		c-8.6-9.3-13.1-22.4-9.8-34.7c-0.2-4.3,3.8-11.2-1.7-13.3c-22.8-11.9-42.1-29.3-60.2-47.1c-3.3-3.8-9.5-8.6-6.4-14.3
		c5-6.2,11.7-10.9,18.1-15.2c3.6-2.9,9.5-3.3,12.6,0.5c9.8,9.8,16.2,22.4,24.5,33.3c4.5-4,8.8-7.8,13.1-11.9
		c-10.9-8.1-21.4-19.7-21.2-34.5c-1.4-16.4,9.3-32.6,24.3-39c6.4-2.9,13.6-2.6,20.5-3.1c2.9-14.5,5.7-29.3,11.9-42.8
		c3.1-7.6,7.4-14.5,10.2-22.1c0.7-8.1-2.4-15.7-2.6-23.8C189.6,133.9,199.1,108.7,214.3,88.8L214.3,88.8z"/>
	<path class="st1" d="M220.3,101.6c5.2-6.9,12.6-14.7,22.1-12.4c21.2,4.5,39.2,17.6,56.4,30.4c5.2,2.9,11.7,0,17.4-0.2
		c18.3-2.9,37.1-2.9,55.7-1.4c-5.7,18.6-15,37.8-9.8,57.6c3.1,13.3,15.7,21.6,28.5,24c11.2,3.1,22.8,0.5,33.8-1.9
		c8.1,8.6,18.3,14.3,30,15.9c4.5,17.6,16.9,38.5,37.8,38.1c13.1,1.2,23.5-8.1,34.7-13.3c6.4,14.3,9,30.2,9,45.9
		c-6.9,1.2-13.8,2.4-20.7,3.1c0,1.9,0,4,0,6.2c6.4,1,12.8,1.9,19.3,2.9c-0.2,9.5-2.1,19.3-6.7,27.8c-5.2,0-10.7-0.2-15.9-0.2
		c0,1.4-0.2,4.3-0.5,5.7c3.8,1.7,7.9,3.1,11.4,5.5c-2.1,8.1-7.1,15-12.1,21.4c-6.4-0.7-12.8-5.7-18.3,0c3.6,3.6,7.1,6.7,10.9,9.8
		c-22.6,28.1-59.9,38.3-94.4,38.8c-52.1,0.2-106.3-3.8-153.2-28.3c-17.1-10-35.2-20.5-47.1-36.6c4-2.9,13.6-3.1,10.7-10.2
		c-5.7-0.5-11.2,0.5-16.7,0.2c-3.8-3.6-4.5-9-6.7-13.6c7.8-3.3,15.7-6.4,23.3-10c-3.6-6.2-8.3-11.4-11.9-17.4
		c-2.4-6.4-2.6-13.8-6.2-20c-3.8-7.4-10.9-12.1-16.9-17.6c-1.4-3.6,0.2-7.4,0.7-10.9c4.3-21.2,13.1-41.2,24.7-59.2
		c2.9-4,4-8.8,5.2-13.6c-3.8-1-7.6-1.7-11.7-2.6C202,143,207.9,120.1,220.3,101.6L220.3,101.6z"/>
	<path class="st2" d="M402.7,98.7c10.5-9.5,27.1-8.1,37.1,1.2c10,9.3,16.4,22.6,16.4,36.4c-11.9,2.6-20.9-8.3-32.6-6.9
		c-12.8,1.4-22.8,15.9-17.8,28.3c2.6,5,7.1,8.8,11.2,12.6c0.5,5.9,0.5,11.7,0.7,17.6c-11.9,1.2-25.5,4-35.4-4
		c-11.7-8.1-8.3-24.3-7.4-36.4C379.9,129.4,388.7,111.3,402.7,98.7L402.7,98.7z"/>
	<path class="st3" d="M465.8,115.6c16.9-7.4,35.2-14.7,54-12.1c7.4,1,9.3,9,11.4,14.7c3.6,13.1,5.7,27.1,2.9,40.7
		c-14.7-4.3-30.2-5.9-45.4-5.2c-4.8-6.4-11.2-10.9-17.6-15.7C468.4,130.9,466.7,123.2,465.8,115.6L465.8,115.6z"/>
	<path class="st4" d="M416.8,143.5c3.6-6.2,10.7-4,16.4-3.3c-3.8,6.9-8.6,13.6-13.6,19.7C416.3,155.4,411.5,148.5,416.8,143.5
		L416.8,143.5z"/>
	<path class="st5" d="M447.9,148.9c7.1-1.2,15.2-1.7,21.6,2.4c7.6,4.8,12.8,13.3,14,22.4c-0.5,10.9-6.9,21.6-17.1,26.4
		c-12.1,4.5-28.1,0.7-34.3-11.4C423.2,174.6,432,153.2,447.9,148.9L447.9,148.9z"/>
	<path class="st6" d="M495.3,166.1c11.9-1,24.5-0.2,35.7,4.8c7.8,3.8,13.8,12.8,11.7,21.9c-4.3,18.3-17.1,34.3-33.5,43.3
		c-6.9,3.3-15.2,6.9-22.6,3.3c-11.7-5-19.3-17.1-17.6-30c10.5,0.5,20.9,9.3,31.2,3.1c7.1-3.1,11.4-11.7,9-19.3
		c-1.4-7.6-8.3-11.7-13.8-15.9C495.3,173.7,495.3,169.9,495.3,166.1L495.3,166.1z"/>
	<path class="st7" d="M491.7,188.2c1.9,0.2,5.5,0.7,7.4,1c0.7,5.7,0,11.7-1.9,16.9c-4.3-0.2-8.3-0.5-12.6-0.7
		C486.2,199.4,488.8,193.6,491.7,188.2L491.7,188.2z"/>
	<path class="st8" d="M153.2,258.6c15.7-7.6,35.9,0.5,42.3,16.4c8.6,17.4-3.1,40.7-22.1,44.2c-17.6,4.8-36.9-8.6-39.2-26.6
		C132.3,278.8,140.1,264.1,153.2,258.6L153.2,258.6z"/>
	<path class="st9" d="M257.6,265c6.4-1.7,14.8,1.4,16.2,8.6c1.9,10.2-1.2,24.3-12.6,27.1c-9.5,1.4-15.9-9-14.5-17.6
		C247.9,276.2,250,267.1,257.6,265L257.6,265z"/>
	<path class="st10" d="M172.7,291.9c2.1-4,7.4-2.6,11.2-3.1c0.7,3.6,1.4,6.9,1.7,10.5c-1.4,4.8-6.7,6.2-10.7,3.8
		C171.3,300.7,171,295.7,172.7,291.9L172.7,291.9z"/>
	<path class="st11" d="M450.8,291.7c5.9-2.6,15-1.7,17.6,5.5c3.8,10.5,0.7,26.9-12.1,29.5C438.4,326.4,438.9,299.7,450.8,291.7
		L450.8,291.7z"/>
	<path class="st12" d="M201.3,307.8c1.4-4,3.1-7.8,5-11.9c1.2,2.9,2.4,5.7,3.6,8.6C207,305.7,204.1,306.9,201.3,307.8L201.3,307.8z"
		/>
	<path class="st13" d="M88.3,322.8c1.4-7.4,10.7-9.8,15.9-14c9.3,10.2,16.7,22.1,23.3,34.3c-3.3,1.9-6.2,6.4-10.7,6.2
		C106.6,341.4,97.3,332.1,88.3,322.8L88.3,322.8z"/>
	<path class="st14" d="M343.5,313.3c11.2-2.6,26.2,0.7,30.4,12.6c1.7,8.3-4.8,17.6-13.3,18.3c-9.5,1.4-22.1-0.2-26.6-10.2
		C329,326.1,334.9,315.4,343.5,313.3L343.5,313.3z"/>
	<path class="st8" d="M159.6,328c10.5,0,20.7-1.7,30.2-6.7c5.7,11.4,11.9,24.5,6.9,37.3c-4.3,14.3-21.2,21.2-35,17.4
		c-13.3-3.6-25.5-10.9-35.9-19.5c4-6.2,10.5-10,15.9-14.7C147.7,337.3,153,331.9,159.6,328L159.6,328z"/>
	<path class="st15" d="M343.3,322.1c7.1-4.3,20-2.6,22.1,6.7c0.5,10.5-14,10-20.5,6.4C339.9,333,338.7,324.7,343.3,322.1
		L343.3,322.1z"/>
	<path class="st16" d="M206.3,356.1c5.2,5,10.7,10,16.4,14.7c-10.2,23.5-19.7,47.6-30.7,70.6c-12.4-6.9-24.7-16.2-30.7-29.5
		c-3.8-9-4.5-20.9,2.4-28.5c1.4,7.1,2.1,14.5,3.6,21.6c6.7-0.2,13.3-0.2,19.3-2.9c3.1-8.3-7.1-5.7-12.1-6.4c0-3.6-0.2-6.9-0.5-10.2
		c6.7-2.1,13.8-4.3,19.5-9C199.8,371.6,202.9,363.5,206.3,356.1L206.3,356.1z"/>
	<path class="st17" d="M231.2,377.8c3.3,1.7,6.7,3.3,10,5c-9.3,23.8-18.6,47.6-29.3,70.9c-3.3-2.1-6.7-4-10-6.2
		C211.5,424.1,221.5,400.8,231.2,377.8L231.2,377.8z"/>
	<path class="st18" d="M241.2,382.8c4.3,2.1,8.6,4.3,12.6,6.4c-10.7,23.1-21.2,46.4-29.5,70.4c-4.3-2.1-8.3-4-12.4-5.9
		C222.7,430.3,231.9,406.5,241.2,382.8L241.2,382.8z"/>
	<path class="st19" d="M224.3,459.6c8.3-24,18.8-47.3,29.5-70.4c3.1,1.4,6.2,3.1,9.3,4.5c-6.9,23.3-19.3,44.2-27.8,66.8
		c-2.1-0.2-6.2-0.5-8.3-0.7L224.3,459.6L224.3,459.6z"/>
	<path class="st20" d="M263.1,393.7c5,2.4,10,4.8,15,7.1c-15,19.3-27.1,40.7-37.8,62.6c-4.5-1.2-8.8-2.4-13.3-3.6
		c2.1,0.2,6.2,0.5,8.3,0.7C243.8,437.9,256.2,417,263.1,393.7L263.1,393.7z"/>
	<path class="st5" d="M259.1,454.4c8.8-17.4,19.3-34.7,33.3-48.5c9.3,0,18.1,3.1,27.1,4.5c28.1,4.8,56.4,7.8,84.7,7.4
		c-6.2,11.7-8.8,25.5-4.8,38.5c5.7,16.7,15.9,31.2,26.2,45.4c-1.7,8.8-4.3,19.3,1.7,27.1c4.3,6.9,12.8,9.3,20,12.4
		c-0.7,3.1-1.2,5.9-1.9,8.8c-21.4,3.1-43.3,3.3-64.9,3.6c-19.7,1.4-39.7,1.9-59.5,1.2c-9.3,1-10.2-10.2-14.5-15.9
		c-5.2,3.3-7.1,9-8.3,15c-22.1,0-44.5-0.2-66.8-0.5C229.1,518.1,244.5,485.5,259.1,454.4L259.1,454.4z"/>
	<path class="st14" d="M312.8,438.9c5-7.1,10-17.4,20.2-17.4c8.3-1.2,18.1,2.4,21.4,10.7c1.4,4.5,1.7,9,2.1,13.8
		c10.9,0.2,23.8,3.8,27.1,15.7c3.1,11.9-8.6,19-15.5,26.4c-1.4,6.7,3.1,13.8-0.7,20c-3.1,8.1-11.7,13.6-20.5,12.4
		c-9,1-15.7-5.7-22.1-10.9c-9.3,5.2-20,10.7-30.7,7.1c-7.4-3.6-11.4-11.9-12.6-19.5c0.7-7.4,5.2-13.8,7.4-20.9
		c-3.3-6.7-9.8-11.9-10-19.7c-0.7-7.1,0.5-15.9,7.9-19C295,432,304.7,435.6,312.8,438.9L312.8,438.9z"/>
	<path class="st21" d="M407.7,434.8c4.3-11.9,18.1-17.1,29.5-12.1c-8.6,6.7-17.1,12.8-25.9,18.8
		C410.6,439.8,408.7,436.5,407.7,434.8L407.7,434.8z"/>
	<path class="st22" d="M437.2,422.7c4.8,0.2,9,3.1,13.3,4.8c-13.8,9.5-27.6,19-40.2,29.7c-1.9-7.4-2.6-14.7-2.6-22.4
		c1,1.7,2.9,5,3.6,6.7C420.1,435.6,428.7,429.4,437.2,422.7L437.2,422.7z"/>
	<path class="st23" d="M450.5,427.5c3.6,2.4,6.9,4.5,10.5,6.9c-13.3,13.6-29.5,23.5-45.4,33.8c-1.7-3.6-3.6-7.4-5.2-10.9
		C422.9,446.5,436.7,437,450.5,427.5L450.5,427.5z"/>
	<path class="st24" d="M327.6,432.5c5.5-5.5,15.2-2.9,18.1,4.3c1.7,7.1-0.7,14.5-1.7,21.9c7.6-1.7,15.5-5.5,23.3-3.1
		c7.1,1.7,9.3,11.2,4.8,16.4c-4.5,6.9-13.3,7.4-20.5,9.3c3.3,6.9,10.9,14.3,7.1,22.4c-2.1,7.6-11.2,8.6-17.6,6.4
		c-7.4-2.4-10.7-9.8-15.5-15c-7.1,4.5-12.1,13.6-21.4,13.3c-7.1,0.5-14.3-6.2-12.8-13.6c0.2-8.6,8.1-13.8,13.6-19.7
		c-6.4-5.5-16.2-9-17.6-18.6c-1.9-6.9,5.2-14,12.1-12.6c8.1,1,13.6,8.3,20.5,12.1C321.9,448.2,321.1,438.7,327.6,432.5L327.6,432.5z
		"/>
	<path class="st25" d="M461,434.4c4,3.1,8.1,6.2,12.1,9c-17.4,11.7-34,24-50.4,36.6c-2.4-3.8-4.8-7.8-7.1-11.9
		C431.5,457.9,447.7,447.9,461,434.4L461,434.4z"/>
	<path class="st23" d="M422.7,480c16.4-12.6,33.1-25,50.4-36.6c2.9,2.6,5.5,5.2,8.1,7.8c-18.6,10.9-35.9,23.5-51.6,38.1
		C427.2,486.2,424.9,483.1,422.7,480L422.7,480z"/>
	<path class="st26" d="M319.5,459.8c10.2-5.9,26.6,1,26.4,13.6c2.1,14-15.9,25-27.4,16.7C306.9,483.6,309,466.2,319.5,459.8
		L319.5,459.8z"/>
	<path class="st1" d="M437.9,495.3c15.9-13.8,32.8-26.2,51.1-36.6c10.9,13.3,22.1,28.1,24,45.7c1.7,12.8-7.1,25.9-19.5,29.5
		c-10.5,2.6-21.6,0.2-31.2-4.5c-7.8-5.5-18.1,4.5-25-3.6C428.2,517.1,439.6,505.5,437.9,495.3L437.9,495.3z"/>
	<path class="st27" d="M324,466.2c7.9-4.8,17.8,5.7,12.8,13.3c-2.1,5.9-9.3,5.7-14.3,4.3C317.3,479.6,317.3,469.1,324,466.2
		L324,466.2z"/>
	<path class="st28" d="M516.4,477.4c6.2,0,12.8,0,18.3,3.3c4,2.6,6.4,7.1,9.3,10.9c4.3-7.6,12.4-14,21.9-12.4
		c8.8,0.5,14,8.1,17.8,15.2c3.6-9,12.1-17.1,22.6-15.2c8.6-0.5,13.3,6.9,17.6,13.1c4.8-9.8,15.7-17.8,26.6-13.6
		c11.7,3.1,15.2,18.1,10.2,27.8c-2.9,4-7.6,6.4-11.7,9.3c2.9,3.1,5.7,6.2,8.1,9.8c-4,4.3-10.7,10.2-16.7,6.4
		c-4.5-2.1-7.4-7.1-12.4-8.3c-4.8,3.6-8.8,8.6-14.7,9.8c-6.4-1-10.5-6.9-16.2-9.8c-5,3.6-9.3,10.7-16.4,8.6
		c-4.5-2.1-7.8-6.2-12.1-8.6c-4.8,3.6-8.8,8.3-14.7,10c-6.7-1.4-10.7-7.1-16.4-10.5c-5.9,5-12.4,12.8-21.2,8.8
		c3.3-7.4,7.6-14.7,7.6-23.1C524.5,498.1,519.8,487.7,516.4,477.4L516.4,477.4z"/>
	<path class="st29" d="M523.1,540.5c5.5-0.7,10-4.5,14.7-7.4c5.2,3.1,10.2,6.7,16.2,7.6c5.5-1.2,10-4.3,14.5-7.1
		c4.5,2.6,9,5.5,14.3,6.9c5.9-0.2,10.9-4.3,15.9-7.1c4.8,3.1,9.3,6.2,14.7,7.4c5.9-0.7,10.9-4.5,16.2-7.6c4.5,2.9,9.3,6.2,14.7,7.6
		c6.9-0.5,12.1-5.2,17.6-9c12.6,15.9,20.2,35.7,22.4,55.9c1,14.7-1.9,32.6-15.7,40.9c-14,8.1-30.9,8.3-46.6,9.8
		c-32.8,1.2-65.7,2.1-98-2.1c-13.3-1.9-29-5.2-35.4-18.6c-10.2-20.7-4.5-45,4.3-64.9c2.6-8.6,11.4-11.2,18.1-15.5
		C515,538.3,519,539.7,523.1,540.5L523.1,540.5z"/>
	<path class="st30" d="M569.2,543.6c7.6-2.1,13.8,9.3,7.4,14.3c-4.8,5.7-14.5,1-14-5.9C561.6,547.4,565.4,544.7,569.2,543.6
		L569.2,543.6z"/>
	<path class="st31" d="M603,546.6c11.4-3.1,25.7-1,32.8,9c2.6,6.2,2.1,13.1,3.1,19.5c7.8-0.7,15.7-2.6,23.3-0.7
		c4.5,1.4,6.7,6.2,6.4,10.7c0,7.1,1.4,14,1.9,21.2c-0.5,5.2-6.7,6.4-10.2,9c-2.9,5.5-5.9,13.1-13.6,11.9c-8.1,1-12.1-7.1-15.9-12.8
		c-1,0-3.3,0.2-4.3,0.2c-3.1,8.6-9.5,18.6-20,16.2c-8.8-1.7-10.9-10.7-11.7-18.1c-8.1-6.2-17.6-12.6-20.5-22.8
		c-1.9-10.7,5.2-20,13.6-25.5C595.6,560.7,594.2,548.8,603,546.6L603,546.6z"/>
	<path class="st28" d="M568.8,547.8c5.5-2.6,9,5.7,3.8,8.3c-1.4-0.2-4-0.5-5.5-0.7C567.6,553.1,565,547.6,568.8,547.8L568.8,547.8z"
		/>
	<path class="st30" d="M523.1,551.2c2.4,1.7,4.5,3.1,6.9,4.8c3.6-1.2,7.1-2.1,10.9-2.9c0,4.8-5.2,6.9-8.1,10c2.4,1.9,5,3.8,7.4,5.7
		c-6.4,1.9-13.3,3.1-18.8,7.6c4.3,1.2,8.3,2.6,12.6,3.8c-4.5,3.6-9.5,6.2-13.3,10.2c-0.5,2.9-0.5,5.7-0.5,8.8
		c5.7-0.5,11.7-2.9,17.1-0.2c-3.8,3.3-7.8,5.9-11.9,8.8c1.2,4.8,2.6,9.8,3.6,14.5c-5.9-3.6-9-10.2-12.8-15.7
		c-3.8-3.1-8.1-5.2-12.1-7.8c2.1-1.4,4.5-2.9,6.9-4.3c-2.9-2.9-5.5-5.7-8.1-8.6c3.8-0.2,7.6-0.2,11.4-0.2
		c-2.6-5.2-5.2-10.7-7.6-16.2c4.3,1.2,8.3,2.6,12.4,4C521.9,566.4,522.4,558.8,523.1,551.2L523.1,551.2z"/>
	<path class="st32" d="M600.9,559.2c-1.9-7.4,7.1-9,12.6-8.6c8.8-0.5,19,4.3,19.5,14c-5.5,1.2-7.1-4.5-9.5-7.9
		c-5,3.6-10,3.3-14.3-1.2C606.3,557.1,603.7,558.3,600.9,559.2L600.9,559.2z"/>
	<path class="st1" d="M315.2,567.6c28.8-3.1,57.6-1.7,86.6-2.9c14.5,0,29-1.7,43.5-1.9c3.6,18.3,4.3,40-8.8,54.9
		c-16.7,17.6-42.8,18.8-65.7,19.3c-21.2-0.5-45.9,0.2-62.1-15.9C294.3,605.9,299.5,579.7,315.2,567.6L315.2,567.6z"/>
	<path class="st33" d="M587.3,570.9c10.7-8.1,26.4-8.3,38.3-2.9c14.7,6.2,18.1,29.7,4.5,38.8c-14.3,8.6-32.1,2.6-44.2-6.7
		c1.2-5.2,4.8-10.7,2.4-16.2C587.6,579.7,582.8,574.2,587.3,570.9L587.3,570.9z"/>
	<path class="st1" d="M233.4,620.4c-17.8-11.9-17.6-40.4-2.6-54.5c22.4-1.7,44.7,0.5,66.8,1.4c-5.7,10.7-10.7,22.1-9.5,34.5
		c-0.2,10.2,5.5,18.8,10,27.4C276.7,631.1,252.2,633.2,233.4,620.4L233.4,620.4z"/>
	<path class="st30" d="M552.1,576.1c0-8.3,10-8.6,15.9-7.1c1,5,4.3,11.4-1,15C561.6,589.9,550.4,584.2,552.1,576.1L552.1,576.1z"/>
	<path class="st28" d="M556.6,572.8c3.1-0.2,6.2,0,9.3,0c-0.5,2.9-1,5.9-1.4,9c-2.1,0-4.3,0-6.4-0.2
		C557.3,578.5,556.9,575.7,556.6,572.8L556.6,572.8z"/>
	<path class="st34" d="M600.4,579.7c2.9-0.5,5.7-1.2,8.8-1.4c0.2,3.8,0.2,7.6,0,11.4c-2.9-0.5-5.9-1-9-1.4
		C599.7,585.4,599.4,582.6,600.4,579.7L600.4,579.7z"/>
	<path class="st35" d="M644.2,579.9c6.4-0.5,15.2-3.3,19,3.6c-0.2,3.8-2.1,7.4-3.8,10.9c3.1,3.1,7.4,6.2,5.5,11.2
		c-2.9,1.4-5.7,2.1-8.6,3.1c-1.9,5-2.9,13.1-9.8,13.1c-5.7,1.4-7.1-5.2-9.8-8.8c2.9-2.1,5.7-4,8.8-5.9c-1.4-1.4-4-4-5.5-5.5
		c2.6-1.4,5.5-2.9,8.1-4.3c-2.1-2.1-4.3-4.5-6.2-6.9c2.6-1.2,5.5-2.1,8.1-3.1C648.2,584.7,646.3,582.3,644.2,579.9L644.2,579.9z"/>
	<path class="st36" d="M579,581.4c6.4-1.2,7.8,6.7,5.9,11.2C576.8,596.1,579.5,586.1,579,581.4L579,581.4z"/>
	<path class="st37" d="M600.6,615.6c2.9,1.2,5.7,2.9,8.6,4c3.8-1.4,7.8-6.4,10.7-1.2c-2.6,4.5-7.1,9.3-13.1,7.6
		C601.3,625.9,602.1,619.4,600.6,615.6L600.6,615.6z"/>
	<path class="st38" d="M543.8,648.4c26.6-2.1,53.5-2.4,79.9,0C597.3,651.5,570.4,650.6,543.8,648.4L543.8,648.4z"/>
</g>
</svg>
