<?xml version="1.0" encoding="utf-8"?>
<!-- Generator: Adobe Illustrator 24.0.0, SVG Export Plug-In . SVG Version: 6.00 Build 0)  -->
<svg version="1.1" id="Layer_1" xmlns="http://www.w3.org/2000/svg" xmlns:xlink="http://www.w3.org/1999/xlink" x="0px" y="0px"
	 viewBox="0 0 771.9 724.9" style="enable-background:new 0 0 771.9 724.9;" xml:space="preserve">
<style type="text/css">
	.st0{fill:#F9DA61;}
	.st1{fill:#FFFFFF;}
	.st2{fill:#A87C4F;}
	.st3{fill:#B3D335;}
	.st4{fill:#F09BA7;}
	.st5{fill:#FFEFCF;}
	.st6{fill:#FFEC5F;}
	.st7{fill:#FFDECF;}
	.st8{fill:#7D4400;}
</style>
<g>
	<path d="M678.7,298.1c-17.2-7.7-36.9-9.2-57.5-9.9c-3-0.3-5.5-2.6-6.6-5.5c-2.9-21.3-8-41.8-17.6-60.4
		c-3.3-10.6-19.8-17.6-12.8-30.8c4.4-12.8,2.6-27.5-6.9-37.8c-3.7-24.9-7.7-49.4-19.1-71.4c-4-4.4-11-2.6-16.1-1.5
		c-20.1,7-40.3,13.9-59.4,23.8c-3.3,2.9-8.8,1.5-11-1.8c-9.9-14.7-24.6-25.6-41.4-28.2c-13.2-1.9-25.6,5.8-31.8,17.5
		c-6.6,9.6-7.4,21.6-15.8,29.7c-28.6-0.3-56.4,1.9-84.2,4c-15.1-14.7-32.3-26.7-50.3-36.3c-8.8-3.3-17.5-9.9-28.2-7.3
		c-17.6,14.3-27.8,34.8-32.3,56c-3.3,16.5,0.4,31.5-0.3,48.3c-39.9,37.7-48.7,91.2-45.4,143.6l-2.9,3c-11.4,4.4-25.3,2.5-35.2,10.2
		c-4,2.9-10.2,3.7-11.7,9.2c0.4,2.9,3.7,2.6,5.5,1.9c12.5-5.5,24.2-11.8,38.5-12.5c2.6-0.4,8.1-2.2,9.2,1.5l11,37.4
		c-5.1,8.8-15.4,9.5-22.3,16.5c-1.5,2.6,1.4,4,3.3,3.7c8-2.9,14.7-8.4,23.4-9.5c1.9,1.1,5.5,3.7,4.8,5.5l0.3-0.3l1.9,2.2
		c5.5,8.8,16.5,13.5,20.1,22.7l-20.5,22.7l-0.7,5.1c0.7,1.1,1.8,2.9,3.3,2.6c8-4,12.1-13.2,19.4-19.1c4-1.9,8-6.6,12.8-4.4
		c28.6,15.7,61.9,19.4,95.6,22.3c2.6,0.7,4.4,3.3,5.2,5.5c1.1,45.4-41.4,73.3-39.2,119.1l-3.3,3.3c-15.4,7-33.3,7.7-46.2,20.5
		c-5.5,7.3-8.1,17.2-4.8,26c1.8,9.2,12.4,11.4,17.2,17.3l-0.1,0.3c0.6,0.2,1.1,0.2,1.7,0.5c0.6,0.3,1.1,0.5,1.6,0.6
		c3.1,0,7.2-0.8,10-0.9c3.2-0.1,6.4,0.3,9.3,1.3c1.2-0.6,2.6-1.1,4.3-1.1c50.4,0.2,91.1,3,152,7.1c19.1,1.3,69.7-5.1,85.9-10.7
		c17.8-6.2,32.7-5.6,43.8-23.3c0.2-0.3,0.5-0.5,0.8-0.8c12.3-17.9,12.6-40.8,10.4-62.7c29.7-19.1,68.5-38.1,79.1-75.1
		c2.2-2.5,0-7,2.5-9.5l-4-10.3c-9.7-18.8-26.1-35.5-42.9-49.8l-2.9-5.5c5.8-5.5,9.2-15.7,18-16.8c14.6,2.9,27.1,11.3,40.6,16.1
		c2.2,1.5,5.5,2.6,7.3,0.4c1.5-2.9,1.1-5.5-2.2-7.7l-36.3-15.7c-2.6-1.5-6.2-3.7-5.5-7.7c4.1-7.7,5.1-16.9,10.6-24.2
		c11-0.7,21.2,4,31.9,5.8l3.3-1.5c1.1-2.2,0-4.4-1.9-5.8c-9.5-4.8-21.2-5.2-30.4-11.7c-2.2-3.3,0-8-0.3-11.7
		c2.9-7.7-0.7-19.1,6.6-24.2c15.7-1.1,31.5,0.4,45.4,4.4c4.8,0,9.5,3.3,13.5,0C679.5,301.1,680.2,299.3,678.7,298.1z"/>
	<path class="st0" d="M609.9,486.5h-1.5l-21.3-28.2l7.7-20.2c5.5,1.1,8.4,7.7,12.1,11.8c7.4,8.4,12.1,21.6,6.2,31.9
		C612.1,483.5,611.7,485.3,609.9,486.5z"/>
	<path class="st0" d="M589,508.8c-7.3-9.2-14.7-19.4-19.4-30l12.1-13.6c5.1,0.7,8,7.3,11.4,11c4.4,5.8,8,12.1,10.6,18.3
		C601.5,500.7,594.8,505.8,589,508.8z"/>
	<path class="st1" d="M599.3,330c-6.2,4-14.7,0-21.6,2.2c-2.9,1.5-7.3,0-9.5,3.3c-0.7,2.9,2.2,4.4,4.4,4.7l21.6,1.1
		c4.8,4.8-1.1,9.9-1.5,15c-3.7,5.1-4,13.6-11,14.7H559c-1.9,0.7-1.9,2.5-1.1,4c5.1,5.1,13.5,1.8,18.3,6.9c-0.4,6.2-6.6,11-11.4,14.3
		c-36.6-2.5-64.5,20.5-94.2,37c-68.9,9.6-137.3,7.4-207,1.9c-17.2-3.3-34.4-5.8-49.4-14.7c-3.7-1.1-3.3-5.5-1.5-7.6
		c2.2-3.3,7.7-5.8,6.9-9.9c-8.8-2.2-15.4,11.7-24.5,5.5c-6.6-5.9-12.5-12.1-16.9-19.4c1.8-9.9,14.3-6.2,20.5-11.7
		c1.1-2.2-1.5-4-3.3-4.4c-8.4-0.3-15.4,3.7-23.8,3.7c-7.7-8.8-9.9-20.9-12.8-32.6c-0.7-3.3,2.5-5.5,5.1-5.9
		c9.5-3.7,21.6,1.5,29.7-4.4c0.7-3.3-3.3-3.3-5.5-4.4l-30-1.5c-7.4-13.2-2.6-32.3-2.9-47.3c5.8-34.1,18.3-65.5,47.2-89.7
		c4-4.8,11.7-8.1,8.4-15.1c-2.6-5.1-9.9,0.4-11.8-6.2c-4-25.6,3.3-51.3,19.5-70.7c10.2-8.4,22,1.1,31.5,4.8
		c16.1,8,30.1,21.2,43.6,34.4c26-1.5,50.5-4.4,77.6-4.4c3.7,0.4,7.7,0.4,9.2,4c-0.7,21.3-7.7,51.7,16.1,61.5
		c16.1,5.9,33.3-0.7,49.5-2.9c6.6,1.9,10.2,9.2,16.5,11.8c6.6,5.1,15.4,4.4,22.3,7.3c7.4,14.3,15.1,31.9,30.8,38.5
		c12.1,5.1,24.5-0.4,33.3-8.1c9.2-8.4,15.7-16.5,22.7-26c3.3-2.5,5.1,1.8,7.7,2.6c15,16.9,20.1,38.1,21.6,60.4
		c0,2.9-2.5,5.5-5.1,5.9c-12.8,2.5-26.4,4.4-37,11.7c-0.7,1.9,1.1,2.9,2.2,3.7c12.1-1.8,24.6-5.1,37.7-5.5
		c5.8,5.1,2.9,15.7,2.6,22.7L599.3,330z"/>
	<path class="st0" d="M571.4,523.4c-6.2,0-9.2-8.1-12.4-12.8c-2.6-6.2-8.4-11.8-8.4-18.7c4.4-2.5,8-8,13.5-7.3
		c7,9.9,14.3,19.4,18.3,30.4L571.4,523.4z"/>
	<path class="st2" d="M537.3,487.5C510.3,504,479.5,523,445,512.1c-8,1.5-15,6.2-22.3,8.4c1.1-7.4-2.9-14.3-2.2-21.2
		c24.9-14.7,37.3-42.2,61.5-58.6c21.2-14.3,43.2-26.8,68.1-31.9c12.1-0.3,23.5,3.3,29.3,14.3c5.5,11.8,1.5,25.6-5.8,35.2
		C563,469.2,550.2,479.8,537.3,487.5z"/>
	<path class="st3" d="M542.1,237.7c-5.1,3.6-10.6,7.3-17.9,5.1c-14.3-1.1-19.8-16.5-24.6-27.5c0.4-6.2,7.7-8.4,12.1-11
		c6.6,2.2,13.5,6.9,20.5,2.9c5.1-3.3,7.7-8.4,8-14.3c3.7-15.4-26.7-16.5-12.1-31.5c13.6-5.1,30.4-1.8,42.2,4.4
		c11.4,12.4,1.1,28.6-4.4,40.2C560,217.5,552,228.2,542.1,237.7z"/>
	<path class="st1" d="M558.3,148.7c-12.5-0.7-25.6,0.4-38.5,0c-9.2-11.4-21.2-16.1-34.5-17.9c-2.9-1.5-2.9-5.1-3.3-8l1.5-3.7
		c19.1-12.1,39.2-22.3,61.5-26.4c4.8,1.1,6.2,7,8.1,10.6c5.1,13.9,10.6,28.2,8.8,44L558.3,148.7z"/>
	<path class="st0" d="M546.5,537c-7.3-9.2-13.9-18.3-19.4-28.6c2.5-5.8,9.9-7.6,15.4-10.2c3.7,1.5,5.5,5.1,6.9,8.1l12.5,21.9
		C557.9,532.2,552.4,537,546.5,537z"/>
	<path class="st0" d="M532.2,546.5c-8.8,8.8-13.5-4.4-18.3-9.5c-2.9-6.2-9.2-11.7-9.5-18.7c5.5-3,11-5.9,16.9-7.4
		c6.2,10.3,15,19.4,18.3,30.8L532.2,546.5z"/>
	<path class="st1" d="M509.9,621.6c-9.9,3.3-21.3,6.2-32.6,3.3l-3.3-4c-0.7-19.4-5.5-38.4-4.4-57.5c20.2,11.7,44,0.7,63.4-3.3
		C538.5,583.9,532.6,610.2,509.9,621.6z"/>
	<path class="st3" d="M526.4,196.7c-1.9,0-5.1-0.4-5.1-3.3c0-2.2,0.7-5.1,3.3-5.5c2.2-0.3,4,1.5,4.8,3.3
		C530,193.8,528.6,196,526.4,196.7z"/>
	<path d="M506.9,344c-3.3,0.3-7.3,0-10.2-2.6c-5.8-5.1-6.2-13.2-5.8-20.5c0.7-5.5,2.2-11,7.3-13.9c4.8-1.8,10.3-1.1,14.3,1.1
		c4,4.8,6.6,9.9,5.8,16.5C518,332.6,515.4,341.4,506.9,344z"/>
	<path class="st0" d="M506.6,555.3c-11.4,4.7-14.3-10.3-19.8-16.5c-1.1-4.7-5.5-8.4-4.4-13.5c5.5-0.3,11.4-5.1,16.5-1.8l16.1,27.1
		C514.3,554.2,509.9,554.6,506.6,555.3z"/>
	<path class="st3" d="M498.2,199.2c-9.2,5.2-22,4.8-30.4-1.8c-7-4.4-11-11.7-11.4-19.8c-0.7-12.8,5.1-24.6,16.1-30.7
		c5.8-4.4,15-3.7,22-2.2c7.3,2.5,13.6,9.1,16.5,16.1C516.1,175.4,511.4,191.6,498.2,199.2z"/>
	<path class="st0" d="M483.5,556.4c-13.9-1.5-20.5-16.9-26.4-27.5c4.4-1.4,11-1.4,15.7-1.4c6.6,8.8,9.9,18.7,14.7,27.8L483.5,556.4z
		"/>
	<path class="st3" d="M460.8,138.4c-7.7-1.1-16.1-5.8-24.2-1.5c-4.4,2.5-6.6,7-7.7,11.4c-1.5,5.5,1.1,10.2,3.3,14.6
		c3.6,4.8,12.1,4.4,11.4,11.8c-0.7,13.2-16.5,11-25.3,14.7c-9.9,0.3-20.5-0.7-25.6-9.9c-5.8-24.2,4-44,8.4-66.3
		c5.1-10.2,9.2-27.1,24.2-27.5c19.1-0.7,35.2,18,41.8,34.1c1.1,4.4,4,8.8,2.2,13.2C467,135.9,464.1,137.3,460.8,138.4z"/>
	<path class="st4" d="M455.7,629.3c-25.3,3.3-50.5,1.1-76.6,3.3c-30.4-3.7-67.8,4-87.2-26.4c-9.9-13.6-16.9-29.7-13.2-48.4
		c5.2-28.6,27.5-50.1,33-78.8l4-23l4.4-2.6l30.7,1.1c3.3,2.2,3.3,6.2,2.6,9.5c-4.8,2.6-11.4,1.5-16.5,3.3
		c-12.8,4-19.1,17.5-21.6,29.3c-1.8,18.7,11.4,33.7,23.1,48l-0.4,2.2c-8,7-16.8,14.6-17.2,25.2c-0.4,10.3,4.4,19.8,13.5,24.2
		c5.8,3.7,14.3,2.9,20.5,0.7c11.4-2.2,17.6-25,30.7-13.9c9.9,5.1,24.6,5.1,33-2.9c8.8-8.4,16.1-18.7,15-30.8
		c0.4-5.8-2.9-10.2-4.4-15.3c0.7-3.3,4.8-5.9,7.7-7l2.5,0.4c22.7,24.1,15.8,58.2,21.2,89C460.8,620.9,461.5,627.8,455.7,629.3z"/>
	<path class="st3" d="M443.6,158.6c-2.6-0.3-4.8-2.5-5.1-5.1c-0.7-3.7,1.1-7.3,4.4-8.4c3.3,0,6.6,0,8,2.9
		C450.2,152.3,448.7,157.8,443.6,158.6z"/>
	<path class="st5" d="M438.8,465.2c-4.7-1.5-5.8-7-6.6-11.4l0.7-2.2c5.5-1.1,11-2.2,17.2-1.8C447.2,455.3,442.8,460,438.8,465.2z"/>
	<path class="st6" d="M408.1,491.9c-7.7-0.7-17.2,4.4-22.7-4.4c-10.6-8-16.1-19.8-16.1-32.2l4.8-1.9c14.3,0.4,28.2-3.3,41.4-1.1
		c5.8,7.4,8.1,16.1,11,24.2l-0.7,3.3L408.1,491.9z"/>
	<path class="st5" d="M413.9,567.7c-5.5,4.8-11.7,9.2-19.4,6.6c-14.3-4.4-25.7-17.2-37.4-27.8c-11.7-14.7-30.7-27.8-28.9-49.4
		c1.9-6.2,3.3-13.2,9.9-16.5c22.7-12.1,35.6,13.2,50.6,26c7.7,4.1,18.3-7.7,23.4,3.7c2.2,6.2-4,11-2.2,16.5
		C423.1,536.6,426.4,556.8,413.9,567.7z"/>
	<path d="M395.2,375.4c-8.1,8.4-22.4,7-32.6,4.4c-4.8-1.1-8.8-5.5-10.3-10.6c-0.7-5.1,1.1-10.2,4.8-13.5c9.9-6.2,26-8.4,36.3-2.2
		C400,359,400.7,369.6,395.2,375.4z"/>
	<path class="st7" d="M384.6,374.3c-6.2,3-15.8,3-21.6-1.1c-2.5-2.6-4.4-6.6-2.5-10.3c3.3-5.4,9.9-5.4,15.7-6.2
		c4.8,0.3,9.2,0.7,12.4,3.7C392.7,365.2,390.1,372.5,384.6,374.3z"/>
	<path class="st2" d="M348,587.2c-5.1,0.3-9.5-2.2-13.2-5.9c-3-4.4-3.7-11-0.7-16.1c2.1-5.2,7.6-7,12.1-9.5
		c6.6,3.7,13.9,9.2,18.7,15.7C362.6,578.8,354.6,583.9,348,587.2z"/>
	<path class="st1" d="M280.6,628.2c-16.9,1.8-35.5,6.2-52.4,1.8c-4.4-3.3-6.6-9.2-5.1-15c0.7-6.6,5.8-12.8,11.4-16.1
		c11.3-2.2,27.8-13.1,36.6-0.3c4.4,8.8,11.3,16.5,15.7,24.9C287.1,627.4,282.8,626.8,280.6,628.2z"/>
	<path d="M258.3,344.7c-3.3,4-8.4,5.1-13.2,3.3c-7.3-3.3-9.9-11.7-10.3-19.4c-0.4-5.1,1.8-10.3,4-14.7c3.7-4,8.8-5.8,13.9-4
		c6.6,2.5,8.4,9.1,9.5,15C262.2,332.2,263.4,339.5,258.3,344.7z"/>
	<path class="st8" d="M163.7,400.3c0.8-0.3-1.1-2.2,0.8-1.8C164.8,399.3,164.5,400,163.7,400.3z"/>
</g>
</svg>
