<?xml version="1.0" encoding="utf-8"?>
<!-- Generator: Adobe Illustrator 24.0.0, SVG Export Plug-In . SVG Version: 6.00 Build 0)  -->
<svg version="1.1" id="Layer_1" xmlns="http://www.w3.org/2000/svg" xmlns:xlink="http://www.w3.org/1999/xlink" x="0px" y="0px"
	 viewBox="0 0 771.9 724.9" style="enable-background:new 0 0 771.9 724.9;" xml:space="preserve">
<style type="text/css">
	.st0{fill:#694318;}
	.st1{fill:#F0D4B8;}
	.st2{fill:#FFFFFF;}
	.st3{fill:#ED9CBA;}
</style>
<g>
	<g>
		<g>
			<path class="st0" d="M587,229.8c-7.1,0.7-24,3.8-28.4,4.7c-4.1,0.9-5.5,2.1-7-3.9c-2.9-12.2-11-27.5-19.3-40.2
				c1-2.4,2-4.8,2.8-7.3c8.8-30.3-5.7-47.7-14.2-52.4c-2.9-1.8-6.2-3.2-9.5-4.2c-7-24.9-19.2-48.4-33.2-51.8
				c-13.2-2.4-47.3,13.4-65.3,27.8c-0.1-0.1-0.1-0.1-0.2-0.1c-8.4-7.5-29.5-22.4-51.9-9.5c-10.7,7.2-18.2,19.2-23,35.6
				c-30.5,7.9-54.4,16.8-66.5,22.7c-2.5,1.2-5.6,1.6-8.5,1c-21.9-4.9-37.2-7.7-63.4-5.3c-16.3,1.5-20.6,11-24.1,21.7
				c-8.3,29.2,0.1,59.8,13,79.3c3.2,5.4,2,5.4,0,13.2c-4.9,18.7-6.7,43.8,0.4,70c0.8,3-3.2,4-5.2,4.6c-7.1,2.1-20.4,6.6-26.1,9.8
				c-9.8,5.6-5.7,13.9,3.4,9.6c3.5-1.6,23.7-7.8,27.2-8.3c3.5-0.6,4.6-2.1,6.4,2.2c2.3,5.4,8.3,17.2,10.6,20.9
				c1.7,2.7,1.5,3.2-1.7,5.1c-3.3,2-10,6-14.1,8.4c-6.4,3.6-4.3,11.7,3.2,8.7c5.5-2.2,11.4-4.9,16.3-6.8c4.2-1.7,5.8-1.5,8.7,2.1
				c1,1.2,2.3,2.6,3.6,4c-0.2,0.5-0.4,1-0.6,1.5c-2.1,6.9-1.9,14,0.5,20.5c0.3,0.8,0.7,1.7,1.1,2.5c-4.8,4.9-10.1,10.5-11.8,13.7
				c-4.9,9.1,3.5,11.7,8.4,5.7c2.5-3.1,6.1-6.7,9.6-10.1c-4.1,5.1-7.6,10.8-10.2,17.1c-2.6,6.4-4.1,13-4.7,19.7
				c-3.2,0-6.4,0.5-9.5,1.4c-17.4,5.4-26.8,24.8-21,43.2c5.8,18.4,24.6,29,41.9,23.5c4.5-1.4,8.5-3.8,11.9-7
				c5.4,4.9,11.5,8.9,18.5,11.8c2.5,1,5,1.8,7.6,2.4c-4.5,8.1-4.1,16.9,1.2,23.1c6.1,7.2,16.8,8.9,27.9,4.5
				c15.8-6.2,31.4-20.9,36.2-34c0.5,0.6,1,1.2,1.5,1.9c-0.2,31.1,1,57.9,4.7,63.7c1.7,2.6,4.3,4.1,7.1,4c4.5-0.2,17.2-3.5,34.6-8.9
				c-0.3,2-0.6,4-1,6c-1.6,8.3-3.3,17.6,1.1,29.5c3.6,9.7,10.5,16.9,19.9,20.6c17.3,6.8,39.8,1,55.1-6.7
				c46-23.2,40.4-57.5,32.6-80.8c25.4,30.3,57.2,58.2,103.9,25.9c14-9.7,29.9-26.7,32.1-45.2c0.7-5.6,0.1-11-1.8-16
				c-1.5-4.1-3.8-7.8-6.8-11.3c-3.5-4.1-7.2-6.9-10.9-9c1.6-1.9,2.4-4.3,1.9-7.1c-1.5-8.5-24-35-49.4-61.7c-0.8-8.4-2.6-15.8-5-22.3
				c-6.2-16.9-16.2-27.4-20.3-31.2c-3.6-3.4-7.3-6-10.9-8c12.4-10.4,24.7-23.9,32.9-39.9c1.7-3.4,4.8-3,8.6-2.3
				c6.9,1.2,21.1,4.6,26.4,4.9c10.7,0.7,11.2-9,0.1-11.5c-7-1.6-21.7-5.4-25.1-6.5c-2.9-1-4.2-1.5-3.2-4.6
				c1.3-3.9,3.3-16.6,3.3-18.8c-0.1-4.6,1.3-6.7,7.3-7.3c8.3-0.7,21.1-1.4,26.5-4.2c4.7-2.4,0.5-6.7-2.9-7
				c-3.2-0.4-18.1-0.8-23.2-0.3c-4.9,0.4-7.2-1.1-7.5-4.1c-0.3-2.9-1.5-15.9-2.6-20.4c-1.4-5.1,2.9-5.5,6.3-6.7
				c3.4-1.2,21.6-4.5,27.1-5.9C603.2,236.1,595.6,228.9,587,229.8z"/>
		</g>
		<path class="st1" d="M275,538.7c-0.8,1-1.6,2-2.2,3c-2.6,4.4-2.8,8.7-0.4,11.5c2.9,3.5,8.9,4,15.5,1.4c13.1-5.2,27-18.2,30.3-28.4
			c0.8-2.5,0.9-4.5,0.3-6.1c-0.1-0.3-0.3-0.6-0.5-0.9c-0.1-0.2-0.3-0.5-0.6-0.8c-6.7,7.2-14.2,12.8-22.5,16.3
			C288.6,537.4,281.8,538.7,275,538.7z"/>
		<path class="st1" d="M221.6,519.4c2.9-0.9,5.5-2.5,7.7-4.6c-9.4-11.8-15-26.7-15.9-42c-2.1,0-4.1,0.2-6.1,0.8l0,0
			c-11.6,3.6-17.8,16.8-13.8,29.5C197.4,515.8,210.1,523.1,221.6,519.4z"/>
		<path class="st1" d="M231.3,407.1c2.7-1.9,3.8-3.6,1.2-5.7c-0.7-0.5-1.5-1.2-2.3-1.8c-0.3,2.7-0.1,5.3,0.5,7.9
			C231,407.4,231.2,407.2,231.3,407.1z"/>
		<path class="st1" d="M256.4,415.7c-12.2,6.5-22.5,17.1-27.9,30.5c-12.3,29.9,2.3,66.5,31,78.3c10.6,4.3,21.1,4.4,31.4,0.1
			c9.9-4.2,19.1-12.5,26.3-23.7c-1.9-4.6-3.4-9.4-4.4-14.5c-1.3-6.8-1.7-13.1-1.5-18.9c-0.7,3.4-2.7,6.9-5.5,9.1
			c1,5.6-2.2,12.6-6.7,15.9c-1.6,1-4.1,0.5-4.5-1.1c-0.6-4.5,5.1-5.5,4.9-10.4c-0.4-1.6-0.7-3.8-2.9-4.3c-1.1-0.2-2.3,3-6.8,3.2
			c-2.7-0.1-5-1.9-5.5-4c-1.1-4.9,2.2-12.7,8.1-12.7c2.3,0,4.1,1.6,5.2,2.8c1.5,2.3,0.3,4.1,1.1,5.1c0.2,0.3,0.7,0.5,1.6,0.7
			c2.6-0.5,4.8-2.4,5-5.3c0.2-2.9-1.6-7.7,2.3-8.9c3-0.1,3.5,3.4,3.7,5.4c1.3-15.2,7-26.7,12.1-34.3c-10.4-0.3-20.5-1.1-30.2-2.6
			C280,424.3,267.5,420.8,256.4,415.7z M266.3,490.2c3.2-0.1,7.4,1,9.5,4c1.1,1.4,1.3,3,1,4.7c-1.1,2.6-2.5,4.4-5.9,4.3
			c-3.6-0.3-7.4-2-8.8-5C261.1,495.2,262.4,490.7,266.3,490.2z M287.7,435c3.9-1.1,8.4,0.7,10.7,3.7c1,1.8,1.4,3.7,0.5,5.6
			c-0.7,1.8-2.2,3-4.3,3.5c-3.2,0.3-8.3-1.8-9.8-4.4C282.7,440.7,284.1,435.7,287.7,435z"/>
		<path class="st2" d="M504.7,384.2L504.7,384.2c-1.2,0.1-2.2,0.4-3.2,0.9c9.6,8.5,21.2,19.7,33.1,31.6c-5.2-13.4-13-21.7-16.3-24.8
			C511.9,385.9,506.6,384,504.7,384.2z"/>
		<path class="st2" d="M326.1,483.8c1,5.2,2.5,9.9,4.5,14.1c0.9-23.9,2.5-46.8,4.5-61.6C328.9,445.2,321.7,461.1,326.1,483.8z"/>
		<path class="st2" d="M469.4,559.7c-28.2,10.2-56.2,19.9-79,27.2c-0.2,4.7-1,8.9-1.7,12.9c-1.5,7.8-2.6,13.9,0.5,22.2
			c2.3,6.2,6.2,10.3,12.1,12.6c10.8,4.3,28,1.8,43.9-6.2C484.4,608.7,477.6,582.2,469.4,559.7z"/>
		<path class="st2" d="M586.4,512.8c-19.2,9.5-54.3,23.7-92.3,37.8c27.3,32.1,50.3,48.6,85.8,23.9c14.6-10.1,25-24.1,26.4-35.6
			c0.8-6.3-0.9-11.7-5.3-16.7C596.4,517,591.8,514.7,586.4,512.8z"/>
		<path class="st3" d="M350,428.5c-4.6,18.8-9.2,134.6-4.7,157.5c33.4-6.9,211.2-70.6,242.1-89.2c-9.9-16.8-69.3-79.6-98-104.8
			c-4.8,2.6-9.8,5.1-14.9,7.4c-1.1,4.8-3.1,9.5-6,13.9c-8.1,12.4-21.9,21.5-37.9,24.9c-20,4.2-39.4-1.2-51.6-12.7
			C369,426.9,359.4,427.9,350,428.5z M489,411.8c10.4-3.9,22.1,1.5,25.9,11.9c3.8,10.4-1.5,22.1-12,25.9c-10.4,3.8-22-1.5-25.9-11.9
			C473.2,427.3,478.6,415.6,489,411.8z M404.5,459.9c3.9,10.4-1.5,22.1-11.9,25.9c-10.4,3.8-22.1-1.5-25.9-11.9
			c-3.9-10.4,1.5-22.1,11.9-25.9C389,444.1,400.6,449.4,404.5,459.9z"/>
		<path class="st2" d="M485.4,434.6c2.2,5.8,8.7,8.8,14.5,6.7c5.8-2.2,8.8-8.7,6.7-14.5c-2.2-5.8-8.7-8.8-14.5-6.7
			C486.3,422.3,483.3,428.8,485.4,434.6z"/>
		<path class="st2" d="M396.1,462.9c-2.1-5.8-8.6-8.8-14.5-6.7c-5.8,2.1-8.8,8.6-6.7,14.5c2.2,5.8,8.7,8.8,14.5,6.7
			C395.3,475.3,398.3,468.8,396.1,462.9z"/>
		<path class="st2" d="M411.2,419.2c-5.7,1.3-11.1,2.5-16.5,3.5c9.2,5,21.3,6.9,33.6,4.2c13.1-2.8,24.3-10.1,30.7-20
			c0.4-0.5,0.6-1.1,0.9-1.7C445.9,410.4,430.1,414.9,411.2,419.2z"/>
		<path class="st2" d="M490,229.8c-19.4,1.9-32.6-12.6-37.9-17.9c-2.9-2.8-2.5-4-7.7-2.9c-8.4,1.7-25.7-3.2-32.1-10.6
			c-4.5-5.3-5.5-2.5-13.6,2.4c-13.3,8.1-26.7,10.5-38.9,6.8c-26.5-9-28.3-42.4-26.6-55.4c0.3-2.5,0.7-4.9,1.1-7.3
			c-27.2,7.6-50.4,16-57.9,20.3c-6.7,3.8-8.8,4.7-18,1.5c-19.4-6.5-55.1-11-64.2-2c-8.3,8.1-13.4,41.4,2.4,66.1
			c2.3,3.2,2.4,1.9,4.5-0.5c3.5-4.1,9.2-2.1,9.8,2.8c0.5,3.8-2.6,10.1-5,16.7c-7.8,22.4-9.3,51.9-5.2,71.1c1.6,7.7,1.4,9.6,7.1,8.6
			c6.9-1.2,17.2-2.4,20.2-0.8c2.8,1.6,3.1,6.5-0.2,7.9c-4,1.7-11.4,2.6-15.2,3.5c-3.8,0.9-5.7,0.9-4.8,4.1c0.8,2.6,6.3,14,10.4,19.4
			c1.2,1.7,2.3,2.5,3.4,2.3c1.9-0.4,5.8-1.5,10.8-3.2c5.3-1.8,8.6,1.5,7.5,4c-1.2,2.7-5.7,5-9.3,6.8c-3.5,1.8-3.5,2.8-1.9,4.7
			c1.7,2,7.5,9.3,13.7,13.2c3.5,2.1,4.3,2.8,7.9,0.4c2.9-1.9,8.6-5.5,11.1-6.2c4.2-1.2,6.7,2.1,6.1,4.7c-0.6,2.5-2.9,4.5-5.3,6.2
			c-2.4,1.7-5.2,4-1.4,5.9c15.7,8.1,42.7,13.2,77.9,12.3c61.2-2.2,119-18.7,154.7-40.8c26.7-17.3,38.7-36.8,40.5-42.4
			c1.1-3.5-3.2-2.4-6.6-4c-2.9-1.3-4-2.8-3.2-5.8c1.1-4.4,6.9-3.8,10.8-4.3c2.8-0.4,5.8,0.6,6.9-4.2c1.1-5.2,6.1-21.9,2.7-22.3
			c-3.7-0.5-8.1,0.2-11-2.1c-3-2.4-1.7-5.5,0.9-6.8c2.6-1.3,4.7-0.9,9.3-2.8c2.1-0.8,2.5-0.6,2.6-3.1c0.3-5.3-1-15.2-2.4-20.7
			c-0.9-3.4-3.1-2.5-8.1-0.5c-5,2-10,4.9-14.8,4.2c-4.2-0.5-5.6-6.4,0.3-10c3.8-2.3,12.3-5.5,16.2-7.7c1.5-0.9,2.7-1.6,1.6-5.9
			c-2.5-10-7.4-20.6-13.9-31C515.8,218.5,503.2,228.4,490,229.8z M367.2,345.6c-1.6-7.1,3.1-16.3,17.3-19.6
			c13.5-3.1,22.7,4,24.3,10.8c1.7,7.5-2.6,16.8-15.7,19.8C380,359.5,369.7,356.5,367.2,345.6z M301.8,330.6c1.5,6.6,0,17.4-9.5,19.6
			c-9.5,2.2-14.9-4.9-16.5-11.9c-1.8-7.7-1.9-20,9.1-22.5C295.8,313.3,300.3,324,301.8,330.6z M482.3,288.9
			c1.9,8.5-0.7,17.9-8.2,19.6c-9.5,2.2-15.6-4-18-14.4c-1.3-5.9-0.5-17.3,9.2-19.5C473.3,272.8,479.6,276.9,482.3,288.9z"/>
		<path class="st2" d="M436.7,130.9c10.7,0.2,17,2.2,21.3,4.6c3.8,2,4.4,2.4,9.6-0.6c3.9-2.2,19.9-9.4,29.4-10
			c-6.5-20.7-16.1-35.8-23.7-35.8c-13.3,0.8-33.9,11.7-50.5,24.5c2.6,3.4,5,6.9,7.2,10.5C432.8,128.1,432.3,130.7,436.7,130.9z"/>
		<path class="st1" d="M390.3,349.1c6.5-1.5,10.1-4.9,9-9.5c-1.1-5-6.9-6.7-13.3-5.2c-6.4,1.5-10.5,5.3-9.4,10
			C377.5,348.7,383.4,350.7,390.3,349.1z"/>
		<path class="st3" d="M348.2,177.9c6,17.1,20.5,23.7,41.3,14.2c5.2-2.4,10.4-5.5,11.8-7.8c1.5-2.3,0.7-5.4-0.5-6.5
			c-1.7-1.8-18-2.2-19.8-20.3c-1.5-14.2,10.3-21.2,14.1-22.4c9.4-3.1,18,1.8,19.8,2.7c1.8,0.9,5.7-2.6,4.1-6.2
			c-3.9-8.8-14.9-18.3-20.8-23.1c-3.8-3.1-15.8-10.7-28.9-4.6C350,114.7,341.2,154.3,348.2,177.9z"/>
		<path class="st3" d="M407.2,147.6c1.1-1.2-6.9-4.3-11.8-0.2c-4,3.4-3.8,7.1-3.3,10.7c0.7,5.7,9.3,9.2,9.3,6.4
			C401.4,160.4,405.2,149.9,407.2,147.6z"/>
		<path class="st3" d="M455.8,191.3c5.3-4.8,10.5-13.4,9.4-25.6c-1-15-20.2-30.5-40.9-17.9c-8.4,5.1-12.2,14.6-11.2,25.4
			C415.1,195.4,441.2,204.5,455.8,191.3z"/>
		<path class="st3" d="M488.1,140.1c-4.8,1.5-11.4,4.5-14.2,6.9c-1.6,1.4-1.5,2.7-0.2,6.2c0.9,2.4,1.2,4.9,4.1,5.6
			c3.4,0.8,9.4,2.7,14.1,9c4.4,5.8,3.7,15.5,0.2,20.7c-4.2,6.2-14.4,9.1-21.7,7.7c-2.7-0.5-3.9,1.7-6.1,3.7
			c-2.8,2.6-3.9,3.6-2.1,5.8c3.5,4.2,10.6,10.6,19.8,11.5c14,1.3,25.4-6.7,36.7-27.7c6.3-11.7,10.7-32.2,1-43.4
			C509.7,134.4,492.9,138.7,488.1,140.1z"/>
		<path class="st3" d="M482.2,184.5c2.9-2.4,4.1-6.8,1.2-10.6c-2.1-2.6-5.4-4.3-5.7-1.7c-0.3,3.1-1.8,9.1-3,12.6
			C473.6,188.1,479.4,186.9,482.2,184.5z"/>
	</g>
</g>
</svg>
