<?xml version="1.0" encoding="utf-8"?>
<!-- Generator: Adobe Illustrator 24.0.0, SVG Export Plug-In . SVG Version: 6.00 Build 0)  -->
<svg version="1.1" id="Layer_1" xmlns="http://www.w3.org/2000/svg" xmlns:xlink="http://www.w3.org/1999/xlink" x="0px" y="0px"
	 viewBox="0 0 771.9 724.9" style="enable-background:new 0 0 771.9 724.9;" xml:space="preserve">
<style type="text/css">
	.st0{fill:#231F20;}
	.st1{fill:#FFFFFF;}
	.st2{fill:#EE3F41;}
	.st3{fill:#F6BAD4;}
</style>
<g>
	<path class="st0" d="M447.9,106.5c15.6-14.4,34.3-26.5,55.2-31.3c7.4-1.8,15.5-0.4,21.1,5.1c14.9,13.5,20.7,33.7,25.5,52.5
		c10.1,0.2,20.2,6.7,23.2,16.6c6.1,20,2.6,41.9-6.8,60.2c7.4,10.6,11.8,22.8,15.4,35c1.1,2.6,1.3,6.1,3.9,7.7
		c11.4-0.9,22.7-4,34.2-4.1c4,0.3,9.3,0.9,10.7,5.3c0,2.1-1.2,4.1-3.4,4.5c-13.1,3.6-27.2,2.1-39.9,7.3c-0.4,8.4,1,16.8,1.2,25.2
		c0.2,2.4-0.4,6.4,3.1,6.6c10.3,0.3,21-1.2,30.9,2.1c2.9,0.5,5,5.9,1.4,6.9c-10.8,3-22.3,2.3-33.3,4.1c-3.7,1.1-3.4,5.8-4.3,8.8
		c-1.3,7-4,13.8-4.6,20.8c0.4,0.3,1.3,1,1.7,1.3c11,4.5,23.2,5.9,33.6,11.7c3.7,2.1,3.8,9.8-1.3,9.8c-13.2-0.3-25.4-6.8-38.5-7.7
		c-2.6,0.8-4,3.2-5.5,5.3c-3.6,5.5-7.4,10.7-11.7,15.6c1.7,1.6,3.4,3.1,5.1,4.7c11.4,0.3,23.3,4.4,30.6,13.5
		c9.3,10.8,11.9,26.2,8.5,39.8c-3.9,17.1-16.4,31-31,40.1c-16,9.2-33,16.5-50.6,22c30.8,25.5,41,72.1,24.6,108.4
		c-7.5,17.3-21.7,31.9-39.4,38.8c-11.3,4.5-23.9,5.5-35.9,3.2c-10.6-1.8-20.1-7.2-30.3-10.6c-11.1-4.9-23.3-6.3-35.2-7.5
		c-19.4-1.6-39.2-0.4-58.1,4.3c-14.9,5.2-28.2,14.8-44.1,17c-18.2,2.9-37.3-3.3-50.9-15.6c-21.4-19.5-29-50.6-24.6-78.5
		c-11.7-3.6-22.5-11.1-28.2-22.1c-6-10.4-5.2-23.4-1.3-34.4c-2.4-7.1-3.5-15.1,0.2-21.9c5.2-11.7,18.7-17.6,31-15.7
		c15.1-9.3,29.3-20.9,47.1-24.6c-14.8-3.7-29.3-9.4-41.6-18.6c-10.9,7-20.2,15.9-30.1,24.1c-2.2,2.1-5.5,3-8.5,1.8
		c-2.4-2.4-2-6.1-0.1-8.7c6.6-10.4,17.9-16.2,26.3-25c2.2-3-1.3-5.6-3.1-7.7c-5-5-9-11-14.1-15.8c-6.1-2.3-12.1,2-17.5,4.3
		c-4.7,2-10.3,5.7-15.4,2.8c-2.4-1.3-1.2-4.8,0.3-6.4c5.2-5.3,12.3-8,18.9-11.2c1.7-0.9,3.8-1.7,4.6-3.6c0.1-2.2-1.2-4.2-2-6.2
		c-3.3-6.9-5.4-14.3-8.8-21.2c-0.6-1.9-2.8-2.6-4.7-2.2c-12.1,1.9-23.5,6.7-35.6,8.6c-5.1,1.2-5.7-6.1-2.8-8.8
		c4.4-3.8,10.2-5.5,15.7-7c7.7-2,15.3-4.5,23.1-6.3c-0.8-10.2-2.6-20.4-2.2-30.7c0-19.1,5.1-37.6,11.2-55.6
		c-4.7-12.2-11.2-23.8-13.6-36.8c-3.7-21.2-1.3-44.2,9.9-62.9c5.9-7.9,16.4-10.3,25.8-10.4c21.8,0,43.4,4.2,64.2,10.4
		c3.8,1.3,7.9,0.9,11.5-0.7c12.7-5.1,25.9-8.8,39.4-11.1c13.7-3.6,27.7-5.6,41.7-7.5c5.5-11.2,11.9-22.6,22.4-29.8
		c8.1-5.5,18.5-7.9,28.1-5.4C431.2,91.9,440.3,98.7,447.9,106.5L447.9,106.5z"/>
	<path class="st1" d="M497.2,93.9c5.1-1.9,11.2-4.1,16.4-1.6c4.8,3.3,7.9,8.6,10.4,13.8c4.1,8.8,7.2,18,10.3,27.1
		c-12.6,1.7-25.2,5.6-35.3,13.4c-9-8.6-21.8-12.6-34.1-11.3c-1.9-5.7-4.5-11.2-7.5-16.4C469.9,109.6,482.7,100.1,497.2,93.9
		L497.2,93.9z"/>
	<path class="st2" d="M388.3,114.7c4.4-6.5,10.5-12.4,18.3-14.4c8.7-2.7,17.6,1.3,24.6,6.1c8.8,6.4,15.3,15.5,20.6,24.9
		c0.6,1.8,2.9,3.7,1.7,5.6c-2.6,2.2-5.5,4.1-8.8,5.2c-3.4-1-6.4-3.2-9.9-4c-10.5-2.4-22.4,3.5-26.6,13.4c-4.9,9.4-2.2,21.9,6,28.6
		c4.2,3.9,9.8,5.7,15.5,6.1c1.1,3.2,4.3,6.9,2.6,10.3c-7.4,4.9-15.9,7.8-24.5,9.7c-10.5,2.3-23.2-0.7-29.3-10.2
		c-7-10.7-7.4-24.3-5.7-36.6C373.8,143.5,379.2,127.8,388.3,114.7L388.3,114.7z"/>
	<path class="st1" d="M302.7,155.8c20.2-5.6,40.8-9.3,61.4-13.1c-3.5,18.1-5.9,38.1,2.6,55.2c6.2,12.6,19.9,20.7,33.9,20.1
		c14.3-0.6,28.5-5.8,40.1-14c11.8,12.5,31.2,16.5,46.8,9.3c7.6,14,21.8,25.4,38.2,26.2c12.2,0.4,23.4-6.5,31-15.6
		c5.2,10.3,10.6,21.1,12,32.7c-7,5.5-17.6,5.1-24.2,11.5c-2.8,3.4,1.5,8.4,5.4,7.6c6.9-1.4,13.2-4.7,20.2-5.6
		c2.1,0.7,1.7,3.3,2.3,4.9c1.3,7.6,1,15.3,1.1,23c-5,2.6-12.7,0.1-15.9,5.6c-2,4.2,3.2,6.3,6.6,6.4c2.5,0.8,6.5-0.4,7.5,2.8
		c-0.7,8.3-3.3,16.3-6.4,24c-1.8,4.4-7.3,2.1-10.9,2.4c-3.4-0.5-8.5,0.9-8.3,5.1c0.6,5.3,6.8,5.6,10.6,7.6c0.9,2.1-0.7,4-1.7,5.8
		c-3.3,5-6.9,9.7-11.4,13.7c-3.9,1.4-8.3,1.9-11.6,4.6c-4.9,3.2-7.7,8.5-10.9,13.3c-13.4,9.7-29.2,15.4-44.6,21.1
		c-39.5,13.3-81.1,19.7-122.7,21.3c-14.2,0.5-28.5-0.9-42.6-2.9c-21.1-2.3-40.9-10.8-59.5-20.7c3.3-4.9,9.4-7,11.8-12.6
		c-1.5-2.8-4.4-5.3-7.7-3.9c-6.7,1-11.4,8.7-18.5,6.7c-4.8-3.1-8.5-7.7-12.5-11.8c-1.8-2.5-5.1-4.8-3.8-8.2
		c4.3-3.3,10.2-4.3,13.7-8.5c0.2-2.2-0.8-5.1-3.4-5.3c-6.3,0.4-12.1,3-18.3,3.5c-4.7-7.3-9.1-15.1-10.8-23.7
		c-0.3-1.6-0.6-4.2,1.5-4.7c6.8-1.9,14.2-0.8,20.7-3.7c3.5-1.9,2.1-7.3-1.4-8.1c-7.6-1.4-15.4-0.7-23-0.1c-0.7-0.4-2.1-1.3-2.9-1.7
		c-5.1-31.3-0.3-64.4,14.3-92.7c1.9-3.7,4.2-9.5-0.2-12.4c-3.8-2.3-7.2,1.3-9.9,3.5c-7.2-7.2-9.6-18-10.3-27.9
		c-1.1-13.7,0.3-28.2,7.5-40.2c4-6.1,12.1-6.9,18.8-7c20.4,0.2,40.5,5.2,59.6,12.3C286,164.9,294.2,158.1,302.7,155.8L302.7,155.8z"
		/>
	<path class="st2" d="M507.4,153.3c13-6.7,27.8-10.7,42.5-9.5c5.5,0.4,10.9,3.7,12.4,9.2c6.4,21.2-0.2,44.4-12.7,62
		c-5.9,7.9-15.1,14.4-25.4,13.3c-11.4-1.4-20.6-9.7-26.6-19c1.7-2.2,3-6.3,6.6-5.1c7.4,2.2,16.3,3.2,22.7-2.1
		c10.3-7.5,11.2-24.1,1.7-32.6c-4.6-5.1-11.9-5.2-18.2-6.2C509,160.2,507.7,156.8,507.4,153.3L507.4,153.3z"/>
	<path class="st2" d="M462.3,147.2c10-2.9,21.4-0.1,28.9,7.2c10.3,9.7,12.2,26.9,4,38.4c-5.7,8.4-15.9,13.8-26.1,13
		c-14.3-0.6-27.7-12.9-27.9-27.6C439.5,164.6,449,150.7,462.3,147.2L462.3,147.2z"/>
	<path class="st2" d="M418.1,161.1c-0.3-8.7,10.8-14.3,17.6-9c-3.9,6.8-6,14.2-7.5,21.8C422.1,173,417,167.4,418.1,161.1
		L418.1,161.1z"/>
	<path class="st2" d="M510.2,193.4c0.7-5.9,0.6-12.4,3.8-17.5c6.4,0,12,7.3,8.4,13.2C520.4,193.8,514.8,195.2,510.2,193.4
		L510.2,193.4z"/>
	<path class="st0" d="M483.6,287c4.5-1.3,10-1.4,13.4,2.3c7.9,7.8,8.8,21.5,3,30.7c-6.1,8.6-20.2,5.1-23.6-4.2
		C472.4,306.4,472.3,291.3,483.6,287L483.6,287z"/>
	<path class="st0" d="M281.7,317.7c4.3-1.6,9.4-0.6,13.1,1.9c5.5,4.6,7,12.3,7.3,19.1c0.3,5.4-1.3,11.5-5.9,14.8
		c-5.3,3.2-12.9,3.7-17.7-0.6c-5.2-5.1-6.7-12.8-6.4-19.8C272,326.8,275.5,320,281.7,317.7L281.7,317.7z"/>
	<path class="st0" d="M388.5,337c7.9-2.3,17-1.9,24.2,2.2c7.7,4.7,9.2,16.5,3.2,23.1c-6.1,7.1-16.2,9.1-25.1,8.2
		c-5.2-0.6-11.2-1.5-14.5-6c-4.1-5.5-4.2-13.8-0.3-19.4C379.2,341.2,383.7,338.5,388.5,337L388.5,337z"/>
	<path class="st2" d="M386.3,348.5c7-5.4,20.4-5.5,23.5,4.4c-1.8,6.4-8.8,8.9-14.9,9.1c-3.8,0-8.5-0.4-10.9-3.9
		C382,355,383.9,350.9,386.3,348.5L386.3,348.5z"/>
	<path class="st1" d="M534.6,391.6c3-4.3,8.5-6.5,13.7-5.5c5.8,1,8,9.1,14.4,7.9c8.2-0.4,16.9,2.6,22,9.3c7.7,9.5,7.9,23.3,3.2,34.2
		c-5.4,12.5-16.1,22-28,28.2c-4.4-4.9-7.6-10.7-11.4-16.2c-9-13.7-18.4-27.2-25.5-42c2.4-1.5,5.2-2.5,7.1-4.6
		C531.5,399.1,532.1,394.9,534.6,391.6L534.6,391.6z"/>
	<path class="st3" d="M475.5,426.7c10.6-4.6,21.3-9,32-13.4c10.3,17.2,20.4,34.7,31.6,51.4c1.9,2.8,3.6,5.7,5.3,8.7
		c-10.7,4.3-21.4,9.7-33,10.9C499.3,465.1,487.8,445.7,475.5,426.7L475.5,426.7z"/>
	<path class="st2" d="M442.6,436.2c6.4-1.4,12.4-4.4,19-4.7c10.4,16.1,20.7,32.3,30.1,49c-12-1-24.3-1.5-35.8,2.8
		c-16.3,5-29.6,17.3-38,32c-12.9,22.7-14.4,50.9-6.2,75.4c2.8,8.7,7.6,16.5,12.1,24.4c-11-1-22-2.3-33-2.6
		c-11.9,0.2-23.7,1.8-35.5,3c20.4-30.4,23.2-72.7,3.7-104.2c-9.3-15.1-24.6-26.9-42.2-30.3c-8.4-2-17.1-0.8-25.6-0.5
		c5.7-11.5,12.2-22.5,19-33.4c7.1,0.2,14.3-0.3,21.4,1.3c-0.7,8.8,1.6,17.8,7.3,24.7c10,14.2,27.6,21.7,44.7,21.5
		c13.6,0.6,27.9-2.1,39.1-10.2C437.3,473.4,443.8,454.1,442.6,436.2L442.6,436.2z"/>
	<path class="st3" d="M387.1,445c14.4-1.5,28.6-4.7,42.9-6.4c0.2,13.1-4.6,27-14.9,35.6c-9.1,7.5-21.4,9-32.8,8.9
		c-13.9-0.2-28.6-6.9-35.3-19.6c-2.8-4.9-2.9-10.6-2.9-16C358.5,446.8,372.8,446.8,387.1,445L387.1,445z"/>
	<path class="st3" d="M266.9,455.1c8.6-3.6,17.3-8.2,26.9-8c-7.2,12.4-14.5,24.7-21.7,37c-5.8-7.3-10.6-15.3-16.2-22.8
		C259.4,459,263,456.7,266.9,455.1L266.9,455.1z"/>
	<path class="st1" d="M234.6,475.3c2.6-1.2,4.7-3.3,7.1-5c7.3,8,13.8,16.8,19.9,25.8c-14.5,11.7-24.6,28.2-29.9,46
		c-10.9-3.4-20.7-12.5-21.8-24.4c-0.9-6.6,1.9-12.6,4.2-18.6c-0.4-3.9-3-7.2-3.3-11.1c0.1-6.1,5-11.5,10.8-12.9
		C225.8,474,230.2,475.1,234.6,475.3L234.6,475.3z"/>
	<path class="st1" d="M468.2,494.6c16-2.8,32.8,2.5,45.2,12.9c26.8,22.4,34.8,63.9,18.6,94.8c-7.5,14.7-21.4,26.5-37.8,29.7
		c-16.2,3.4-33.4-1.9-46-12.4C420.6,597,412.7,554.1,430,523C437.9,508.7,451.9,497.4,468.2,494.6L468.2,494.6z"/>
	<path class="st1" d="M294.4,495.4c11.7-2.7,24.4-0.6,34.7,5.8c13.6,8.1,22.5,22.5,26.3,37.6c6,23.4,1.3,49.3-12.4,69.2
		c-8.4,12.2-20.7,22-35.1,26c-13,3.7-27.5,1.4-38.7-6.1c-11.7-7.6-19.6-19.9-23.7-33c-7.6-24.1-3.2-51.4,10.8-72.3
		C265.2,509.5,278.6,498.8,294.4,495.4L294.4,495.4z"/>
</g>
</svg>
