<?xml version="1.0" encoding="utf-8"?>
<!-- Generator: Adobe Illustrator 24.0.0, SVG Export Plug-In . SVG Version: 6.00 Build 0)  -->
<svg version="1.1" id="Layer_1" xmlns="http://www.w3.org/2000/svg" xmlns:xlink="http://www.w3.org/1999/xlink" x="0px" y="0px"
	 viewBox="0 0 771.9 724.9" style="enable-background:new 0 0 771.9 724.9;" xml:space="preserve">
<style type="text/css">
	.st0{fill:#FFFFFF;}
	.st1{fill:#7D4400;}
	.st2{fill:#BB8ABE;}
	.st3{fill:#B3D335;}
	.st4{fill:#FFEC5F;}
	.st5{fill:#FFDECF;}
	.st6{fill:#F09BA7;}
</style>
<g>
	<path d="M621.4,350.6c0.7-3.6,4.3-4,6.8-2.6c1,0,3.9,1.4,5.2,1.6c4,0.7,9.7,0.8,15.4,2.3c1.6,0.4,2.9,1.1,5.3,1.6
		c0.7-0.4,2.1,1.3,3.1,1.4c2.4,0.2,2.5,0,3.4-2.2c0.3-0.7,0.6-1.3,0.8-1.9c-0.2-2.3-0.8-4.6-1.9-6.9c0,0,0,0,0,0.1l-25.9-6
		c-7.1-3.4-1.9-12.7-1.9-18.7c8.3-46.4-12.4-85-32.6-121.7c7.5-38.6,1.9-81.3-30.7-106.3c-22.1-8.3-39.7,8.6-58,17.2
		c-12.4,6-21,20.6-34.8,22.9c-27.8-4.1-57.7-3.7-86.5-6.4l-5.3-3.7c-8.2-16.5-10.9-40.8-33.7-46.1c-17.2-2.6-33,2.6-45.3,14.7
		c-5.6,4.1-9.4,10.9-15.3,14.2L262,89.7c-14.6-4.5-28.5-12-45.3-10.1c-14.3,7.1-21.7,23.6-26.6,37.4c-4.5,12.4-1.9,28.5-15.3,35.6
		c-18.7,13.1-10.1,39-7.1,56.9c-13.8,22.5-21,48.3-25.1,74.1c-8.3,2.7-18.4,3-27.4,2.3c-0.2-0.5-0.5-1-0.8-1.5l4.1,10.5
		c8.3,0,17.7-1.9,24.7,1.5l3.4,33.7l-2.2,3.4c-10.5,4.9-22.8,5.6-33.3,10.9c-1.1,1.5-0.7,4.1,0.7,4.5l33-6l3.7,1.1l11.2,28.1
		l-0.7,2.6c-11.2,6-24.3,7.9-35.6,14.2c-1.5,1.9-0.3,4.1,0.8,5.6c13.8-3.4,26.2-11.2,41.2-10.8c35.6,47.2,89.1,58,141.2,68.6
		c2.2,1.1,6.7,2.3,5.6,6c-5.2,34.8-32.5,60.3-44.2,92.5c-3.7,9.4-2.6,21-8.2,29.5c-21,5.6-50.9,4.5-56.6,31.1
		c-2.2,7.1-0.3,14.3,3.4,19.9c14.2,16.1,35.6,10.5,54.3,9.7c25.8-3,52.8-1.1,76.8,2.7c51.7,6.4,104.8,8.2,158.4,5.6
		c17.6-1.6,34.8-6,44.9-22.5c13.5-21,14.6-53.6,6.4-77.5c-6-13.5-19.1-25.1-33.3-28.8c-17.6-4.9-32.6,3.3-45.7,11.9l-2.6-0.7
		c-10.5-22.1-14.9-46.8-26.2-68.9c0-1.1,1.1-1.8,1.9-2.2c47.2-0.4,93.6-5.6,130-32.9l3.4-0.4l34.4,28.5c2.2,0.7,5.6,0.7,5.3-2.6
		c-7.1-12-21-19.5-30.7-30.7l-0.7-2.6c7.1-7.1,13.8-16.5,20.6-24c7.8,0.4,15.7,3,22.5,6.7l2.1,1c0.8,0.3,1.9,0.7,2.3,1.3
		c1.8,0.4,2.9-0.3,4.3-1.5c-3.2-6.9-14.2-10-24.3-13.7c-2.9-1.1-4.6-4.9-3.2-7.7C612.9,371.5,618.9,362.2,621.4,350.6z"/>
	<path class="st0" d="M608.8,335c-10.5,1.1-22.1,0.4-31.4,3.7c-0.4,1.1-1.5,1.9-1.2,3.4l2.3,1.8l26.6,1.1l1.5,2.3
		c-1.9,12.4-8.2,22.9-15.3,32.9c-7.5,2.6-16.5-7.1-23.2,1.1c2.2,7.1,12,4.9,15.7,10.1c-4.9,7.5-10.1,15.7-18.4,20.2
		c-6-0.4-10.9-10.1-16.8-4.5c0,5.6,7.8,7.1,8.2,12c-40.1,32.2-99.3,27-149.4,27.7c-27.7,0.8-56.6-2.2-82.4-4.5
		c-1.1-1.8-3,0.4-5.6-0.3c-45.3-6.4-89.1-17.2-126.6-43.5c-4.9-5.6-13.1-10.9-14.3-18c4.1-4.1,12.4-1.9,13.5-8.2
		c-7.1-6.4-19.9,5.6-24.7-6c-4.1-7.9-7.9-15.7-8.6-25.5c4.5-6,18,0.4,18-9.7c-6.8-6-21.7,3.7-23.2-8.6c-0.8-8.6-3.7-16.5-0.8-25.1
		c12.3-2.2,23.2,4.1,35.6,4.5c1.5,0.3,3.7-0.4,4.5-2.3c0.7-3-2.2-4.8-4.9-5.6l-33.7-7.9c-4.9-4.1-1.5-12-1.5-18
		c3.3-14.6,6.3-29.2,16.1-40.8c7.1,2.6,8.6,11.2,15,14.9c9.3,10.2,21.3,15,35.2,13.1c19.5-5.6,35.6-22.1,47.6-38.9
		c10.9-3.4,24-1.9,32.9-9.4c6.8-6.4,13.8-16.8,24.4-11.6c15.7,3.7,35.6,13.1,50.2,0.7c18.7-13.1,8.2-37.1,11.2-55.5
		c5.3-4.8,14.7-2.6,21.4-3.3l71.5,5.2l7.5-2.2c18.3-19.5,40.1-32.3,63.3-40.8c17.2,0,25.1,19.1,30,31.8c6,12.8,6,29.3,4.5,43.9
		c-1.5,10.5-19.9-0.7-14.6,12.8c35.2,39.3,55.8,91,41.6,145.3L608.8,335z"/>
	<polygon class="st1" points="589.3,421.2 589.7,421.5 589.7,422.3 	"/>
	<path class="st0" d="M508.4,635c-11.5,3.4-25.8,4.9-38.2,1.9l-2.6-4.1c0-28.1-2.2-49.5-3.7-77.9c0.7-8.6,7.9-14.9,15-19.5
		c10.8-6,25.1-6.3,35.6,0.4c19.4,12,20.2,34.4,19.8,54.3C533.9,608.1,526.1,626.8,508.4,635z"/>
	<path d="M517.8,355.3c-4.5,1.1-9.4,0-12.4-3c-6.3-6.8-7.1-18.7-3.3-27.3c1.8-4.1,6.3-7.9,10.9-8.6c6,0,12,3.4,14.2,9
		C529.8,336.1,529.1,349.6,517.8,355.3z"/>
	<path class="st2" d="M445.5,637.3c-30.3,0-57.3,0.3-87.6-1.5c-28.5-3.7-61.4-2.2-77.5-31.8c-29.6-49.4,24.7-88,37.1-132.2
		c1.9-5.2,0.7-13.5,6.7-15.4l31.8,2.3c3.7,2.2,2.6,7.5,2.2,10.8c-7.5,5.3-18.7,3.4-26.5,9c-28.1,24.3-23.2,67.4-18.4,101.1
		c2.6,12.4,15.7,21.7,27,24.4c14.6,2.6,26.6-5.6,33.7-17.2c10.1-0.8,18.3-7.9,24.3-14.9c10.1,1.5,22.9,4.8,31.1-3.7
		c5.6-4.9,8.6-11.3,8.3-18.7c0.7-5.3-6.8-13.5,0.7-15.4c3.7-0.7,7.5,1.2,8.2,4.5c6.8,29.2,9.4,63.3,4.9,93.2
		C450.4,634.3,448.5,636.9,445.5,637.3z"/>
	<path class="st3" d="M436.5,520.8c-21.3-1.1-39.7-8.6-53.5-25.8c-5.3-10.1-13.2-22.1-7.9-34.5c12-2.2,24.3-0.4,36.7-1.2
		c6.7,1.6,9.4,9.4,12.8,14.3c6.4,13.1,10.5,27,14.9,40.8C440.3,517.4,439.2,520.4,436.5,520.8z"/>
	<path class="st4" d="M423.1,560.1c-3.4,3.3-7.9,3.7-12.8,2.3c-5.2-2.3-8.6-7.5-9.4-13.1c1.5-5.3,5.2-10.5,10.5-12
		c4.1-1.1,9,0.4,12.4,3C429.8,544.8,429,556,423.1,560.1z"/>
	<path class="st2" d="M404.7,526.4c-6.4,4.5-12.7,10.5-16.4,17.2c-3,0.4-2.6-3-3.7-4.9c0.4-8.2-1.9-14.6,0.4-22.1
		c7.5-1.5,13.8,5.2,19.8,8.6V526.4z"/>
	<path d="M396.8,384.1c-11.6,5.6-27.3,3.4-37.1-4.5c-2.2-3.3-3.7-7.8-2.6-12.7c1.5-4.1,5.2-8.3,9.4-10.1c10.5-3.4,22.8-3.7,32.2,1.8
		c3.4,2.7,5.2,6,5.6,10.1C404.3,375.1,402.4,381.1,396.8,384.1z"/>
	<path class="st5" d="M389.7,379.6c-6,2.6-14.3,1.9-20.2-0.8c-3.4-1.1-4.1-4.8-4.9-8.2c0.4-3.7,3.4-6.7,6.8-8.2
		c6.4-1.5,15-1.9,20.6,1.5c2.2,1.5,3.7,3.7,4.1,6C396.5,374.3,393.5,378.1,389.7,379.6z"/>
	<path class="st0" d="M379.2,573.2c-3.3,2.2-8.2,1.5-12.4,2.6c-4.8,6.7-7.8,18.3-18.3,18.3c-7.5,0.7-13.9-1.5-19.1-6.7
		c-12.3-13.5-7.5-34.8-8.6-52.8c0-20.2,3.3-42.3,22.8-50.9c8.2-1.5,15.4,1.9,20.6,7.5c7.1,6.4,6.4,15.7,7.8,24
		c3.8,16.1-4.1,34.8,11.3,45.6C386,565.4,384.1,571.8,379.2,573.2z"/>
	<path class="st6" d="M368,183.7c-13.1,10.9-31.1,1.9-45.3-0.3c-3-0.7-5.2-4.5-6-7.5c0.4-6,7.9-6.3,12-9.4
		c4.8-4.5,8.6-10.1,6.7-16.8c-2.6-9-11.6-14.6-20.6-16.4c-8.2-1.6-16.4,11.6-23.2,0.3c-3.3-9.7,4.5-17.6,8.3-25.9
		c9.4-14.6,25.1-24.3,42.3-21.7c19.5,7.1,19.9,28.5,25.9,43.9c3,15.3,7.1,32.2,3.7,47.9L368,183.7z"/>
	<path class="st6" d="M318.9,157.5c-3.4,0.7-6.4-1.1-7.5-4.1c-1.2-3,0.3-6.7,3.7-7.5c3.7,0,7.5,1.5,8.2,4.9
		C324.2,153.7,321.9,156.7,318.9,157.5z"/>
	<path class="st6" d="M293.1,199.9c-9.3,7.1-23.6,4.5-33.4-0.8c-12.4-8.2-15.3-22.1-14.9-35.9c1.8-8.3,9-15.7,16.8-19.5
		c11.2-3.7,24.3-0.7,32.2,9c9,8.6,13.1,20.2,9.4,32.2C301.3,190.5,298.4,196.5,293.1,199.9z"/>
	<path class="st0" d="M269.1,628.7c-17.2,1.2-37.1,5.2-53.6-0.7c-3.7-2.2-7.1-6.7-5.6-11.6c0.7-9,9.4-15.3,16.8-19.1
		c9.7-2.6,22.8-4.1,31.8-1.9c6.4,9.4,12.4,18.3,19.5,27C279.2,627.9,272.8,627.9,269.1,628.7z"/>
	<path class="st0" d="M246.6,138.4c-4.1,5.2-9.7,11.6-16.8,8.2c-11.2-3.4-23.6-4.1-36-5.2c-3.3-3.7-1.1-9.8-0.7-14.3
		c5.6-13.5,7.9-35.9,27-36.7c20.2,3.3,38.2,11.6,54.3,23.6c3.3,2.3,3.3,7.5,1.5,10.5c-3,6-10.9,2.6-15.7,6L246.6,138.4z"/>
	<path d="M257.9,345.9c-5.2,1.1-10.1-0.7-13.8-4.5c-6.4-7.5-4.9-19.9-1.5-28.5c3.3-4.9,8.2-7.1,13.8-6.8c4.1,0.7,7.5,4.5,9.4,7.9
		C269.8,324.6,269.5,340.3,257.9,345.9z"/>
	<path class="st6" d="M233.2,237.3c-6.7,4.1-14.6,9.4-23.2,7.1c-19.9-3-30-24.4-36-40.8c-4.1-11.6-6.4-25.9,0.3-37.1
		c11.7-13.4,29.3-15.7,45.8-10.5c4.5,1.1,9.7,2.2,11.6,6.4c-0.4,7.5-9.8,4.1-14.3,7.5c-5.6,4.1-10.9,10.9-8.2,18.4
		c1.5,8.2,8.6,16.8,16.8,19.1c7.1,1.1,13.5-1.2,19.1-3.7c3.7,0,7.1,3,8.3,6C251.1,221.2,241.1,229.4,233.2,237.3z"/>
	<path class="st6" d="M231.7,196c-4.1,1.2-7.1-1.5-9-4.8c-0.3-3.4-2.6-7.9,0.4-10.9c2.2-2.2,5.6-3,8.2-2.6
		C235,182.9,241.1,192.7,231.7,196z"/>
</g>
</svg>
