<?xml version="1.0" encoding="utf-8"?>
<!-- Generator: Adobe Illustrator 24.0.0, SVG Export Plug-In . SVG Version: 6.00 Build 0)  -->
<svg version="1.1" id="Layer_1" xmlns="http://www.w3.org/2000/svg" xmlns:xlink="http://www.w3.org/1999/xlink" x="0px" y="0px"
	 viewBox="0 0 771.9 724.9" style="enable-background:new 0 0 771.9 724.9;" xml:space="preserve">
<style type="text/css">
	.st0{fill:#7D4400;}
	.st1{fill:#FFFFFF;}
	.st2{fill:#666666;}
	.st3{fill:#87328C;}
	.st4{fill:#F090AC;}
	.st5{fill:#E6E6E6;}
	.st6{fill:#FFEFCF;}
	.st7{fill:#FFDECF;}
	.st8{fill:#EC148E;}
</style>
<g>
	<path d="M599.5,530c-9.6-28.5-37.6-53.3-67.5-57.1c-3.6-0.8-1.5-4.9-2.7-7.5l-10.2-115.6c-2.4-10.1-10-20.3-19.7-25.4l0-0.8
		c7.5-5.3,13.6-12.9,19.9-19c10.3,1.7,18.7,7.8,27.9,11.8c3.8,1.1,6.6,6.8,11.3,4.1c0.8-0.8-0.2-1.8-0.2-2.6
		c-10.7-8.7-23.6-12.3-35-19.2c1.7-6.2,5.3-11.5,7-17.7c1.1-1.5,0.6-4.6,3.4-4.8l23.4,7.4l1.8-0.7c1.1-1.3,0.3-3.6-1.2-4.2
		l-21.3-7.8l-2.3-2.4c0.6-8.2,3.4-15.4,3.2-23.9l1.6-2.5c15.8-1.3,29.4,3.3,43.5,6.9c2.1,0,1.6-2.3,2.1-3.6
		c-0.8-1.6-2.6-2.6-4.6-2.1c-12.6-4.6-26.5-5.9-40.4-6.9l-1.8-1.3c-1.5-17.3-4.3-34.1-11.3-49.3c-2.5-5.5-7.3-9.9-9.3-15.4
		c3.5-9,7.6-22.1,0.2-30.7c0.3-16.8-1.7-34.6-7.2-50c-1.7-3.1-2.7-7.8-6.8-8.9c-16,0.5-30.3,6.2-44.1,12.2
		c-4.7,1.7-8.9,5.5-13.8,6.5c-8-13.6-21.2-26.9-38.3-24.7c-14.3,4.4-18.2,19.6-23.3,31.4c-0.3,1.3-1.9,2.8-3.1,3.1
		c-20.6-2.7-40.5-0.7-60.7,0c-7.8-8.9-16.2-17.3-26-22.9c-9.2-5-17.6-12.7-28.7-11.6c-14.6,8.8-21.6,24.4-26.2,39.3
		c-3,11.5-1.7,24.7-0.9,36.4c-26.6,28-37.5,63.2-35.6,103.2l-1.6,2c-8.6,2.4-18.6,1.2-25.9,6.5c-3.1,2-8.3,2.2-8.9,6.8
		c-0.3,1.3,1.3,0.8,1.8,1.3c10.7-5.2,21.6-10,34.5-9.5l1.3,1.3c2.1,10.1,5.1,20,8,29.8c-2.7,2.6-6.3,3.3-9.4,5
		c-3.1,2-7.5,2.7-8.9,6.6c-0.3,1.6,1.5,1.3,2.6,1.3c6.5-2.2,12.8-5.5,19.2-6.4c5,7.6,11.6,14.9,17.7,22c-5,6.9-13.9,10.9-16.3,18.8
		c-0.5,1,0.5,1.8,1.5,1.6l17.8-15.2l2.9-1c16.6,11.9,37.2,15.1,57.5,18.5c7.2,0.6,14.9,1,21.7,2.2c0.2,4.4-2.5,8.5-3.1,12.9
		c-4.4,17.2-13.2,32.6-22,47.9c-3.7,5.3-4.1,12.3-9,16.9c-9.8,1.1-19.4,4.3-25.3,13c-4,5.1-3.8,13.1-1.6,19.1
		c3.2,6.8,10.4,8.7,16.6,11.1c4.6,1.4,10.9,0.2,14.7,3.3c-0.1,4.4-0.1,8.5,0.8,12.9c3.7,11.2,14.7,17.5,25.8,18.8
		c1.8,0.6,5.2,0.6,5.4,3.2c-0.6,1.8-1.4,4.1-3.2,4.8c-22.9-4-44.2,6.5-55.7,25.9c-8.8,13.3-10.4,32.9-2.3,46.9
		c0.3,13.4,1.6,27.7,8.9,39.1c12.8,20.9,35.4,31.6,59.7,27.9c19.2-2.8,38.5-19.5,44-38.3c7.6-23.6,1.1-49.8-17.7-65.4l-0.5-2.3
		c-2.2-8.3-8.8-14.6-12.3-22.2l5.6-12.3c1.6-6.2,8-3.7,12.4-3.4c16.7,8,31.9,19.1,49.7,24.8c7.7,3.2,17.2,3.7,25.8,4.3
		c-5,19.5-4,41.5,2.9,59.7c8.1,23.9,32.3,43.7,54.9,52c31.9,10.4,67.6,1.4,89.8-25.6C603.1,597,612.4,560.2,599.5,530z M511,516.3
		c6.1-0.7,5.5-2.4,6.3,8.4c-0.1-1.4-0.9,18.5-0.6,18.4c-1.2,0.5-18.4-19.6-17.5-20.5c2.4-2.2,2.4-3,6.6-4.8
		C507.3,517.2,509.2,516.5,511,516.3z M415.8,351.9c-3.2,3.2-5.6,2.6-9.4,0.9c-3.8-1.6-10.3-9.3-5.8-8.2c1.2,0.3,21.7-0.2,23-0.5
		C428.9,343.1,420.1,347.5,415.8,351.9z M442.3,359.1c-0.8-2.7-2.1-6.3-5.2-7.2c-5.4-1.6-3.7-9.4,1.2-9.3c0.7-0.6,1.5-1.1,2.6-1.2
		c10.3-1.4,23.4-6.3,33.7-3.9c6,1.4,15.3,3.7,16.1,11.2c0.8,7.1-6.8,10.8-12.9,11.7c-10.9,1.5-21.2,4.1-32.2,2.2
		C444,362.1,442.7,360.6,442.3,359.1z M452.1,410.4c-2-0.1-5.4-0.3-6-2.3c-1.2-1.4-0.4-4.8,0.7-6.9c1-2.5,0.8-5.9,2.5-8
		c1.4-2.8,2.7-4.2,6-3.9c12.3,0.9,32.7-10.6,39.4-7.4c6.2,2.9,5.2,27.2,5.5,33.2c0.9,17.2,1.9,34.9,2,52.1
		c0.1,8.1-8.9,8.4-14.2,11.2c-4.6,2.4-10.2-4-5.8-7.5c7.7-6.1,9.8-25.7,6.6-33.7C481.8,419.5,472,411.3,452.1,410.4z M476.5,544
		c5.8-14.9,10.3-9.5,13.9-4.6c2.4,3.3,13.5,14.5,12.6,15.5c-0.6,0.7-26.2,2-27.8-0.6C473.8,552.4,475.6,546.3,476.5,544z
		 M475.4,564.2c0.3-0.7,7-1.2,11.2-1.4c0.7,0,4.7-0.5,4.9,0.2c1.8-0.9,14.8,0.5,17,0.5c5.5-0.2-6.3,6.7-10.6,11.4
		c-1.7,1.8-13.2,13.2-13.8,13.3C480.5,589,473.9,567.9,475.4,564.2z M515.5,599.7c-0.4,5.2,1.6,5.2-2,7.6
		c-3.6,2.4-22.6-7.2-24.3-11.6c-1.6-4,14.8-17.5,16.7-18.7c2-1.3,9.7-11.5,10.8-9.2C519.5,573.8,515.9,599.2,515.5,599.7z
		 M557.3,537.3c0.5,1.8,1.7,3.3,2.5,5c0.9,1.9,3.5,8.1,3.8,10.2c0.8,4.9-6.4,2.8-10.5,2.7c-3,0.2-21.4,2.3-22.3-1
		c-0.5-1.9,11.1-12.3,12.1-13.9c1.4-2.1,8.5-7.2,10.2-8.8C553.6,529.3,556.5,534.3,557.3,537.3z M523.7,516.3
		c1.1-1.8,11.2,2,13.2,2.5c1.5,0.4,8.5,6,9.7,6.9c1.8,1.3-1.9,3.9-5.2,7.5c-1.3,1.4-15.3,15.3-16.9,14.2c-1.4-0.9-1.4-20.1-1.5-21.8
		C522.7,520.2,523.3,517.1,523.7,516.3z M544.2,599.9c-2.9,1.1-5.3,3.1-8.2,4.4c-2.1,0.9-4.3,1.6-6.4,2.4c-2.6,1-4.9,3.1-5.5,0.8
		c-0.8-3.2-0.5-25.3-0.8-27c-0.5-2.4-0.9-10.5,0.8-11.4c2.1-1.1,13.5,11.9,16.5,14.9c1.2,1.2,10.2,9.4,9.8,10.6
		C549.7,597,546.4,599.1,544.2,599.9z M556.5,587.5c-1.2,0.7-5.8-3.7-9.6-6.9c-4.2-3.5-6.2-5.7-9.8-9.6c-3.9-4.3-8.3-9.8-5.6-8.5
		c0.2,0.1,12.5,0.2,12.7,0.3c4,0.5,19-0.9,19.7,0.7C565.8,567.7,560.2,585.2,556.5,587.5z"/>
	<path class="st0" d="M187.9,269.2l0.3,0.3l-1.6,0C186.5,268.9,187.3,269.2,187.9,269.2z"/>
	<path class="st1" d="M244.7,156c4-5.1,12.5-7.3,12.4-14.3c-1.5-1.8-4.3-2.4-6.4-1.4c-0.5,0.8-1.8,0.2-2.6,0.5
		c-3.5-5.7-0.5-13.5-1-20.2c2.3-14.4,6.7-29.3,20-37.9c6.2,0.1,11.3,3.8,16.7,6.4c10.5,7.4,21.5,15.4,27.4,27.3
		c3,3.4,8.7,2.5,12.9,2c18.1-2.8,35.4-3.5,53.7-0.1c1.8,3.1-0.6,7.2-0.2,11.1c-2.2,10.3-3,23.4,4.6,31.6c11.5,8.4,28.6,3.8,41,0.9
		c6,8.4,15.3,14.7,25.8,15.2c5,10.4,7.8,23.1,19.9,29.2c9.5,4.3,19.6-1,27-7.8c5.8-5.3,9.5-11.7,14.8-16.8c4.6,3.4,6.8,9.2,9.5,14.1
		c4.5,11.7,8.1,24.1,6.6,38.1c-8.8,2.2-17.9,3.3-26.4,5.5c-1.6,1-3.7,1-4.2,3c0,1,1,2.3,2,2.6c9.3-1.4,18.5-5.4,28.4-2.9
		c1.5,6.5-0.7,13.2-1.6,19.6c-0.5,1.8-0.9,4.4-2.9,4.9c-6.4-1.7-12.6-0.7-19.1-0.3c-0.8,0.5-1.8,1.3-1.9,2.3c0,1.6,1.5,2.1,2.5,2.6
		c5.9,0.9,12.9-0.8,17.7,2.9c-1.7,7.5-3.8,14.6-9.4,20.2c-6.2-0.9-12.9-0.7-18.6-1.6c-1,0.8-1.3,2.3-0.5,3.4
		c3.5,4.2,10.3,1.5,14.1,4.6c-1.6,4.4-5.8,7.7-9.5,10.7c-19.1,14.1-41.1,20.5-64.4,23.4c-37.5,5.6-78.8,4.4-117,0.6
		c-23.7-4-49.8-3.2-68.9-17.4l0.3-2.1c2.9-3.6,7.8-5,9.4-8.9c-1-1.8-3.4-1.1-4.6-0.6l-11.5,7c-4.6-1.1-7.7-6.1-10.7-9.5
		c-2.8-3.1-5.1-6.3-5.8-10.2c5-3.5,11.2-4,17.1-4.6c0.5-0.8,2.3-1.8,0.5-2.6c-6.9-3-14.2,0.6-20.9,1.5c-4.2-8.9-6.9-18.7-8-29.1
		c8.1-2.5,17.1-1.3,25.8-1.4c0.3-0.5,1.3-1,1.1-1.8c-4.3-2.6-9.2-3.5-14.7-3.6c-4.6-1.4-10.1,1.4-13.9-1.2
		c-1.1-10.6,0.3-22,1.3-32.8C217.2,194.8,225.1,173,244.7,156z"/>
	<path class="st2" d="M284.1,520.5c8.3-5.1,19.8-7.7,29.5-3.7c-0.8,4.9-1.7,10-3.6,14.7c-9.9,1.6-18.9,4.6-26.8,11.2
		c-10.7,7.3-16.5,18-21.1,28.8C256.4,551.5,266.6,531,284.1,520.5z"/>
	<path class="st1" d="M268.7,437.6c4-4.1,9.6-4.5,15.1-4.4c0.9,7.8,2.6,15,5,22.3c-4.7,1.7-10.9,0.9-16,0.3
		c-3.1-0.6-6.6-2.7-7.4-6.1C264.9,445,266,440.9,268.7,437.6z"/>
	<path d="M275.6,241c2.1-0.7,5.4-0.9,7.2,0.6c6.1,3.7,6,11.2,5.1,17.9c-0.3,3.6-2.2,7.5-5.8,8.9c-3.4,1-7.2,0.1-9.8-2
		C267.3,258.9,267.2,246.2,275.6,241z"/>
	<path class="st2" d="M295.6,542.4c18-8.5,42.2-5.5,56.4,8.7c14.5,13.9,19.8,34.2,14.9,54.2c-4.7,16.7-20.4,32.7-37.6,36.6
		c-20.2,4.6-39.2-2.7-51.8-18.7c-10.9-14.4-15.7-34.4-8.4-52.3C274.4,559.8,283.9,547.6,295.6,542.4z"/>
	<path d="M294.8,557.6c9.7-7.1,22.9-9.7,35-5.9c13.9,3.3,25.8,17.7,27.9,31.7c3.1,15.8-2.8,29.6-13.8,40.3
		c-11.2,8.3-27.6,11.9-40.9,5.8c-12.8-4.6-22.9-18.5-24.5-31.7C278.2,581.8,281.7,567.4,294.8,557.6z"/>
	<path class="st3" d="M303.1,559.6c10.7-5.8,26.4-4.2,35.6,3.7c11.2,9,15.1,22.2,12.8,36.4c-2.2,10-9.9,20.2-19.8,24.5
		c-8.8,4-21.2,3.3-29.4-1.3c-14.5-8.7-20.5-25.1-17.1-40.6C287.6,573.2,293.9,563.8,303.1,559.6z"/>
	<path class="st4" d="M311,389.8c7.5-13.8,12.4-28.5,16.5-43.6l0.8-0.7c11.1,1.7,23.2,1.7,34.6,2.6c-0.3,3.6-5,5.9-6.3,9.2
		c-4.5,7.9-8.1,18.5-4.1,27.6c6.4,18.2,26.2,25,40.5,34.5c10.7,5.9,22.8,9.2,36,8.3l-0.8,2.8c-15.4,25.1-29.7,50.4-45.9,74.9
		l-2.6-0.1c-25.8-14.6-52.7-26.7-76.2-46.2c-10.9-12.6-11.1-33.2-3.4-47.3L311,389.8z"/>
	<path class="st3" d="M301.2,469.1l2.6,0.8c12.5,9.8,26.3,17,39.1,26.2l-0.3,0.5c-12.9-1.2-26.8-1.8-38.3-7.4
		c-4.6-4.2-8.1-9.9-5.7-16.3C299.4,471.7,298.9,469.1,301.2,469.1z"/>
	<path d="M311.4,585c2.1-2.3,4.7-2.8,7.8-2.7c4.1,0.1,8,3.5,9.2,7.4c0.7,3.1,0.4,7.3-1.7,9.8c-1.8,2.3-4.2,4.1-7,4.5
		c-3.6,0.5-6.2-1.4-8.5-3.8C307.3,596.3,306.2,588.5,311.4,585z"/>
	<path class="st1" d="M315.2,588.2c1.8-1,4.2-1.2,5.9-0.2c2.3,1.6,3,4.7,2.2,7.5c-1.1,2.8-4.4,3.3-7,2.5c-1.5-0.5-2.6-2.4-3-3.7
		C313.1,592,313.4,589.7,315.2,588.2z"/>
	<path class="st5" d="M327.5,504.2c2.9-2.8,7.2-0.1,10.8-0.1l-0.3,2.8c-3.7,7.9-8,15.6-9.7,24.6l-8.5-0.4l-0.8-1.6
		C320.2,520.3,323.2,512.1,327.5,504.2z"/>
	<path class="st6" d="M338.1,531.2c2.1,0.8,2.8,2.9,3.8,4.7C339.3,536.4,336.5,534,338.1,531.2z"/>
	<path d="M353.5,277.4c6-5.1,15.1-5.2,22.5-3.3c2.8,1.3,6.1,3.7,6.8,7.1c1,4.1-0.4,8.5-3.5,11.6c-7.3,4.8-19.2,4.1-26.1-1
		c-2-1.9-2.8-4.2-3-6.5C349.8,282,351.6,279.7,353.5,277.4z"/>
	<path class="st7" d="M358.6,279c4.7-2,11.7-2.4,16.5-0.2c2.1,1.3,3.6,3.4,3.3,6c0,2.9-2.9,5.4-5.3,6.6c-4.4,1.5-10.9,1.4-15-0.8
		c-1.5-1.1-2.5-2.9-3-4.4C354.7,283.1,356,280.3,358.6,279z"/>
	<path class="st4" d="M372.9,352.6c9.4-5,20.9-0.4,29.1,4.6l-0.3,3.6c-6.7,13.6-12.1,27.9-20.1,41l-2.3-0.1
		c-8.7-5.8-20.7-14.5-19.5-26.4C361.3,366.3,364,357.3,372.9,352.6z"/>
	<path class="st8" d="M393.3,100.7c3.7-6.9,6.2-16.4,14.8-18.9c13.2-1.3,24.3,9.7,29.6,20.9c2.2,4.9,4.5,10.4,3.9,16.1l-7.8,4
		c-4.6-3.2-11-5.4-16.5-2.6c-3.9,1.7-5.3,5.6-5.8,9.4c-0.3,3.9,0.7,7.3,2.9,10.1c1.8,2.6,5.4,1.9,7.2,4.8c-0.1,2.6,0.7,6-0.4,8
		c-9.6,4.7-23.1,8.1-33.1,2.3c-8.9-10.5-2.4-26.1,0.1-37.4L393.3,100.7z"/>
	<path class="st1" d="M407.1,360.9c2.6,0.1,5.4,2.7,8.5,1.7c3.7-3.8,7.6-7.1,13.3-6.5c2.3,0.6,5.1,1.9,5.8,4.5
		c3,5.7-2.8,10.3-0.5,16c5.1,4.5,9.9,9.5,9.8,16.2c-0.4,10.1-6.5,19-14.8,24.3c-15.3,6.2-28.6-3.8-41.1-10c-2.8-1.6-0.5-3.9,0.1-5.7
		C394.5,387.8,399.9,374,407.1,360.9z"/>
	<path class="st1" d="M422,458.3c5.9-11.3,13.3-21.5,20.7-32c4.7-5.1,11.7-6,18.7-4.8c6.9,2.7,15.1,8,16.8,16
		c5.1,17.4-3.6,33.8-11.4,48.1c-7.9,12.5-17.2,26.1-29.5,35.7c-16.6,7.5-31.9-4.4-45.7-11.3C400.5,492.2,412.4,475.6,422,458.3z"/>
	<path class="st8" d="M420.8,125.4c2.6-0.7,5.2,0.1,7.2,1.4c1.5,3.4-2.4,6.4-3.8,9.5c-1.3,2-3.4,0.2-4.7-0.3
		c-1.5-1.1-1.7-2.6-2.2-3.9C417.4,129.2,418.2,126.1,420.8,125.4z"/>
	<path class="st8" d="M438.3,129.8c5.2-4.3,12.4-5.5,19.1-3.6c6.2,2.2,11.5,8.2,12.4,14.7c1.4,7.8-0.5,15.5-4.7,21.4
		c-5.5,6.4-13.6,8.5-21.6,6.9c-7.7-2-13.5-9.3-14.4-16.8C428.5,143.3,432,135.9,438.3,129.8z"/>
	<path class="st2" d="M450.4,518.9c1,1.6,1,4.2,1.7,6.2c2.2,7.3,9.8,12.8,17.6,13.2l2.3,0c-7.6,19-4.3,41.2,7.8,56.9
		c13.7,15.2,34.2,23.6,54.7,16.9c19-6.9,34.5-26,35.9-46.1c2.7-21.6-9.1-42.2-28.3-52.4c-11.3-5.6-25.7-7.9-38.2-3.7l-0.7-0.3
		c2.2-9.3,0.8-19.6-7.1-25.7l0.5-1.6c21.1-7.9,45.7-1.5,63.9,8.8c27.5,19.8,40.4,51.5,35,84.5c-4.1,27.8-28,54.5-54.8,63.1
		c-28.1,9.3-58.4,0.1-78.4-20.4c-21.6-22.1-28.5-56.2-18.2-85.5C446.1,528.1,447.7,523.2,450.4,518.9z"/>
	<path class="st3" d="M443.9,369.5c16-0.8,32-1,45.6-7.8c3.9-3,6.6-7.1,6.9-12c0.1-4.4-2.7-7.3-5.3-10.4c-3.3-2.6-7.4-4.3-11-6.1
		l11.7-5.5c8,3,17.4,8.8,19.6,17.9c2.7,7.3,0.3,15.5-4.8,21.1c-15.4,13.2-35.6,14.9-56.3,15.3c-3.9-0.6-4.8-5.3-7.9-7.1
		C442.5,372.9,442.3,370.5,443.9,369.5z"/>
	<path class="st1" d="M449.8,108.1c13.6-9.1,28.4-15.8,44.5-19.1c2.6-0.5,6.5-0.4,7.2,3c3.9,12.5,7.6,25.9,6,40.1
		c-4.6,0.2-10.1-0.4-15.2-0.8l-16.6,0.5c-3.3-4.2-8.1-10.5-13.5-11.8c-4.3-2.7-14.7,0.5-13-8.5L449.8,108.1z"/>
	<path d="M456.3,244.5c3.1-1,5.7,0.6,8.2,2c4.3,4.7,4.2,11.9,2.8,17.9c-1.1,3.3-2.9,6.1-6.3,7.9c-2.8,0.5-5.7,0.2-7.7-1.9
		c-5.3-5.3-3.7-11.9-3-18.6C451,248.8,452.9,245.2,456.3,244.5z"/>
	<path class="st8" d="M467.3,169.8c4.9,1.4,9.2,7.1,14.6,3.6c5-3.3,6.9-8.7,5.7-14.1c-0.9-4.9-6.3-7.1-9.7-9.7
		c-0.7-2.8-0.6-6.5,0.2-9c9.9-3.5,23-2.2,32,2.3c9.9,11-0.6,24-5.5,34.3c-7.9,8.9-15.7,26.1-30.3,22.7
		c-10.8-2.3-13.5-14.2-16.7-22.5C459.8,174.1,464.2,172.6,467.3,169.8z"/>
	<path class="st3" d="M479.8,489.9c3.6-1,8-1.1,11.6,0.5c3.1,2.1,5.6,5,5.5,8.9c0.8,12.9-10.4,21.8-19.9,29.6c-4.4,2-11.2,2.7-15-1
		c-3.6-3.7-4.5-8.9-3.1-13.7C462.2,504.4,470.2,494.7,479.8,489.9z"/>
	<path class="st8" d="M476.8,157.3c2.3-0.2,3.6,2.1,4.8,4c0.5,2.1,0.2,4.7-2.1,5.4c-2.3,0.5-5.2-0.3-6.2-2.9
		C473.7,161.1,475,158.8,476.8,157.3z"/>
	<path class="st3" d="M493.2,524.3c8.1,9.2,15.2,19.4,23.8,28.3c2.3,1.1,6.5,0.1,7.2,3c0,1.6-1.3,1.8-2.6,2.3
		c-3.6-0.3-7.3-0.4-10.1-2c-7.8-8.7-15.5-17.6-22.5-26.5C488.7,527,491.6,525.3,493.2,524.3z"/>
	<path class="st3" d="M503.6,379.1c3.4-1.7,5.8-4.8,8.7-7.6l1,1.1l8.2,96.7c1,4.2-3.7,2.8-6,3c-7.5,1.7-4.8-7.8-6-12
		C507.6,433.1,504.7,406.4,503.6,379.1z"/>
</g>
</svg>
