<?xml version="1.0" encoding="utf-8"?>
<!-- Generator: Adobe Illustrator 24.0.0, SVG Export Plug-In . SVG Version: 6.00 Build 0)  -->
<svg version="1.1" id="Layer_1" xmlns="http://www.w3.org/2000/svg" xmlns:xlink="http://www.w3.org/1999/xlink" x="0px" y="0px"
	 viewBox="0 0 771.9 724.9" style="enable-background:new 0 0 771.9 724.9;" xml:space="preserve">
<style type="text/css">
	.st0{fill:#EF86A9;}
	.st1{fill:#5C3800;}
	.st2{fill:#FFFFFF;}
	.st3{fill:#E3032E;}
	.st4{fill:#F2D3B7;}
</style>
<g>
	<path class="st0" d="M383.9,372.3c34-1.1,66.9,13.9,83.2,32.3c6,6.7,60.7,62.2,57.8,162.7c0.4-0.1-3.5,38.1-141.1,38.1
		c-135.3,0-141.5-38.2-141.1-38.1c-2.8-100.5,51.9-156,57.8-162.7C316.8,386.2,349.8,371.2,383.9,372.3L383.9,372.3z"/>
	<path class="st1" d="M383.8,364.8c0.1,0,0.1,0,0.2,0c-0.1,0-0.3,0-0.4,0C383.7,364.8,383.8,364.8,383.8,364.8
		c-33.9-1-69.6,13-88.9,34.9c0,0-1,1.1-1,1.1c-22.3,24.5-58.9,77.2-58.9,159c0,2.5,0,5.1,0.1,7.6c0,0,0,0,0,0c0,0,0,0,0,0.1
		c0,0,0-0.1,0-0.1c0,0,0,0.1,0,0.1c0,2.2,0.8,4.3,1.6,5.9c5.8,11.9,31.7,39.6,146.9,39.6c111.1,0,139.7-24.4,146.8-38.9
		c1.2-2.4,1.8-4.6,1.8-6.5c0,0,0-0.1,0-0.1c0-1.8-0.5-3.3-1.6-4.7c1,1.3,1.6,2.9,1.6,4.6c0.1-2.6,0.1-5.1,0.1-7.7
		c0-81.9-36.6-134.5-58.9-159l-0.9-1C453.4,377.8,417.7,363.8,383.8,364.8z M250.2,567.4L250.2,567.4c0,1.3-0.4,3.3-2,5.1
		C249.5,571.1,250.2,569.3,250.2,567.4z M250.1,559.8c0-76.8,34.2-126.1,55-149l1.1-1.2c13.3-15.1,43.2-30.9,77.4-29.8
		c0.2,0,0.4,0,0.5,0c34.1-1.1,64,14.7,77.4,29.8l1.1,1.2c20.8,22.8,55,72.1,55,148.9c0,2.3,0,4.7-0.1,7.1
		c-0.9,2.6-13.9,31.2-133.6,31.2c-116.7,0-132.2-28.2-133.6-31.5C250.1,564.2,250.1,562,250.1,559.8z M517.4,567.5
		C517.4,567.4,517.5,567.4,517.4,567.5c0,1.9,0.8,3.7,2.1,5.1C517.8,570.8,517.4,568.7,517.4,567.5z M383.8,364.8
		C383.8,364.8,383.8,364.8,383.8,364.8C383.8,364.8,383.8,364.8,383.8,364.8z M532.4,567.4C532.4,567.4,532.4,567.4,532.4,567.4
		C532.4,567.4,532.4,567.4,532.4,567.4z M532.4,567.6C532.4,567.5,532.4,567.5,532.4,567.6c0-0.1,0-0.1,0-0.1
		C532.4,567.5,532.4,567.5,532.4,567.6z M235.3,567.6c0,0,0-0.1,0-0.1C235.3,567.5,235.3,567.5,235.3,567.6z M532.4,567.6
		C532.4,567.6,532.4,567.6,532.4,567.6C532.4,567.6,532.4,567.6,532.4,567.6z"/>
	<path class="st2" d="M309.7,511.7c-9.5,0-17.2-7.7-17.2-17.2c0-9.5,7.7-17.2,17.2-17.2c9.5,0,17.2,7.7,17.2,17.2
		C327,504,319.3,511.7,309.7,511.7z"/>
	<path class="st1" d="M287.7,494.5c0,12.2,9.9,22.1,22.1,22.1c12.2,0,22.1-9.9,22.1-22.1c0-12.2-9.9-22.1-22.1-22.1
		C297.6,472.4,287.7,482.3,287.7,494.5z M297.4,494.5c0-6.8,5.5-12.4,12.3-12.4c6.8,0,12.3,5.5,12.3,12.4c0,6.8-5.5,12.3-12.3,12.3
		C302.9,506.8,297.4,501.3,297.4,494.5z"/>
	<path class="st2" d="M383.8,472c-29.8,0-53.9-19.7-53.9-43.9c0-24.2,24.1-43.9,53.9-43.9c29.8,0,53.9,19.7,53.9,43.9
		C437.8,452.4,413.6,472,383.8,472z"/>
	<path class="st1" d="M323.7,428.1c0,27.6,27,50.1,60.2,50.1c33.2,0,60.2-22.5,60.2-50.1c0-27.6-27-50.1-60.2-50.1
		C350.6,378,323.7,400.5,323.7,428.1z M336.2,428.1c0-20.7,21.4-37.6,47.6-37.6c26.3,0,47.7,16.9,47.7,37.6s-21.4,37.6-47.7,37.6
		C357.6,465.8,336.2,448.9,336.2,428.1z"/>
	<g>
		<path class="st1" d="M459.7,84.1c7.6,6.1,13.3,12.9,15.5,16.7c2.3,3.7,3.5,3.1,8.8,0.8c5.3-2.2,27.3-9.1,33.7-10.5
			c7.8-1.8,30.1-5.9,40.2-1c8.4,4.1,13.1,16.3,15.4,23.6c2.3,7.3,7.2,26.5,5.8,38.6c-0.6,4.9-0.4,6.1,2.9,9.2
			c7.9,7.3,11.5,22.5,9.8,33.7c-2.2,15-8.4,23.8-9.6,25.9c-1.2,2.1-4.1,4.4-1.5,9.2c4.5,8.5,10.5,35.5,10.9,46.1
			c0.3,6.7,1.8,5.9,6.3,6.1c4.9,0.2,23.8,1.7,31.5,3c9.4,1.5,15.4,11.2,1.1,11.2c-6.2,0-26.5-1.7-30.4-1.3c-3.9,0.4-8.5-0.5-8.6,5.3
			c0,5.2-2.5,19.3-3,22.5c-0.5,3.2,1.6,5.6,6.8,6.4c5.6,0.9,21.3,5.5,24.6,6.9c3.5,1.4,6.6,7.1,1,8.3c-6.5,1.4-20.3-1.5-29.3-3
			c-6.4-1.1-8.5,0.8-9.7,5.7c-0.6,2.3-6.4,15.2-8.8,19c-1.9,3-0.8,3.8,2.1,5.7c3.3,2.2,17.8,10.3,24.8,14c11.1,5.8,7.8,16-3.3,12.2
			c-5.5-1.8-19.7-9.5-26.6-12.7c-3.9-1.8-7.1-3.2-9.8,0c-2,2.4-12.9,13.9-26.6,22.4c-19.1,11.9-32.3,16.6-45.9,20.6
			c-15.8,4.7-57.5,11.4-91.8,8.7c-13.7-1.1-40.2-2.6-68.3-7.5c-25.9-4.5-55.2-12.1-78.6-24.9c-12.6-6.9-25-16.5-29.7-21.1
			c-3.3-3.2-4.9-2.5-9.1-0.6c-5.8,2.6-21,10-29.7,16.3c-6.9,5-15.2-0.2-7.4-8.4c5.1-5.4,25.1-16.3,28.5-17.7
			c3.4-1.4,5.1-2.8,2.9-5.7c-3.8-5.1-9.4-13.8-12-19.5c-2.1-4.6-3.7-5.3-8.6-4.7c-5.8,0.6-12.9,1.8-19.3,2.6
			c-8.8,1.1-8.9-8.1-1-10.1c5-1.3,13.2-3.7,17.3-4.9c4-1.1,4.3-1.5,3.3-4.9c-1.4-4.6-4.4-18.8-5.4-25.2c-0.7-5.1-2.3-3.8-6.2-4.2
			c-3.9-0.4-27,0.4-31.2,1.2c-10.9,1.9-12.9-8.1-0.9-11.2c6.9-1.8,22.3-2.8,30.5-3.1c2.3-0.1,6.8,0,6.8-3.4
			c-0.1-29.8,8.9-55.9,19.3-74.4c4.4-7.7,5.6-7.3,3.7-14c-3-10.5-6.7-27.2-5.4-41.7c1.6-17.2,5.5-33,14-46.1
			c6.7-10.3,13.9-19,31.7-16.2c17.2,2.7,31.4,7.6,39,10.6c7.7,3,24.2,11,26.8,13c2.6,1.9,6.3,2,9.3,1.4c19.3-4.2,48.2-5,66.4-4.2
			c3.6,0.2,4.2,0.6,6.9-3.8c6-9.7,19.5-25,32.9-28.8C441.9,70.6,455.6,80.8,459.7,84.1z"/>
		<path class="st3" d="M458,103c3.2,4.4,13.8,19.9,15.5,30.4c0.7,4.3-4.4,6.9-6.1,5.4c-1.7-1.4-9.4-9-20.3-8.4
			c-4.3,0.2-18.8,4.3-21.3,19.8c-3.1,19.7,14,24.8,15.4,27.1c0.9,1.6,0.9,5.1-1.3,7.1c-2.2,2-8.6,3.6-14.7,4.9
			c-7.8,1.6-20.6,2.1-28.2-3.6c-7.6-5.7-10.5-9.3-11.8-21.6c-1.2-12.1,5-30.6,10.8-41.6c4.4-8.2,18-29.9,32.6-32.5
			C444.2,87.1,454.8,98.6,458,103z"/>
		<path class="st2" d="M559.4,118.4c2.4,7,4.4,17.7,4.9,24.4c0.2,3.3,1.5,7.5-4,6c-9.7-2.8-31,0.5-36.1,1.9
			c-6.3,1.7-6.8,1.1-10.3-2.1c-3.9-3.7-10.1-7.6-21.4-10.9c-4.6-1.4-3.3-4-5.2-9.1c-2.3-6.1-2.1-8.9,2.6-11.2
			c5.3-2.6,17.4-7.7,25.2-10.2c7.8-2.5,22.7-5.2,29.9-4.2C549.1,103.5,555.2,106.3,559.4,118.4z"/>
		<path class="st2" d="M262.9,108.3c9.7,3.1,28.4,12.2,35.5,17.1c8.8,6.1,11.4,5.7,19.5,3.5c11.8-3.1,41.3-5.2,52.5-4.7
			c6.9,0.3,9.7-1.1,6.2,6.8c-3.3,7.5-6.1,23.4-5.3,34.1c0.9,11.8,6.8,25.4,17.8,32.2c11.9,7.4,26.7,8.6,43.2,3.8
			c10-2.9,11.8-5.6,15.1,1.2c4.7,9.7,22.6,19.9,31.1,20.4c5.8,0.3,5.1,1.5,7.3,5.3c4.1,7.1,14,26.4,35.1,29.7
			c8.4,1.3,14.9-0.3,21.8-2.9c10.1-3.8,15.6-8.4,18.6-10.7c3.2-2.4,5.9-5.9,8.1-0.4c3,7.7,4.1,11.8,5.3,17.9
			c1.8,9.3,3.1,18.7,1.3,20.6c-1.8,1.9-15.9,2.9-21.8,4.7c-7.2,2.1-7.4,8.8-3.1,10.5c4.9,2,11,0.4,16.9-0.3c5.8-0.7,8.4-1,8.5,2.8
			c0,5.1-0.6,7.9-0.8,10.2c-0.3,3.5-1.8,9.4-2.5,12.5c-0.6,2.7-1.2,2.3-3.7,2.6c-5.4,0.7-7.5-0.3-10.6,0.3c-3.1,0.6-5.3,3.6-2.8,7
			c2.4,3.2,7.4,3.7,11.1,5.3c3.5,1.5-6.5,17.7-9.2,22.9c-2.5,4.8-5.4,2.9-8.5,2.5c-4.4-0.5-10.3-2.8-12.8,1.5
			c-1.7,3-0.9,4.8,1.7,7.1c3.1,2.7,8,2.7,5.8,6.1c-3.5,5.4-21.7,22.7-54.9,33.5c-30.1,9.8-65.1,11.1-93.7,10.2
			c-22.9-0.7-52.2-3.6-82.1-10.6c-37.6-8.9-64.8-22.1-79.2-35.1c-3.4-3.1,0.1-4.7,3.1-5.8c3-1.1,6-2.6,7.4-5.1
			c1.4-2.5-0.3-6.7-5.2-6.7c-2.8,0-9.9,2.2-13.6,3.4c-4.5,1.5-5.2,0.6-8.2-2.6c-5.5-5.9-9.7-15.2-10.8-17.9
			c-1.1-2.5-0.9-3.5,3.4-4.4c4.4-0.9,9.7-2.1,11.8-4.6c1.9-2.3-0.7-6.8-6.8-6.3c-5.9,0.4-10.3,0.5-12.4,0.3c-1.2-0.1-2.1-1.2-3-3.3
			c-2.8-6.9-5.5-20.5-5.5-23.5c-0.1-3.6,1.9-3.1,6.2-3c4.4,0.1,12.4,1.3,17.2,0.6c3.8-0.6,4.9-5.9,2.4-8.3
			c-2.7-2.5-13.9-4.2-21.6-4.9c-6.4-0.6-5.7-2.5-5.2-11.1c1.3-20.5,7.9-37.5,12.8-49.7c4.5-11.1,9.3-18.8,12.9-24.3
			c4.3-6.4,9.5-12.2,10-16.3c0.7-5.4-4.8-9.1-9.6-5.7c-2.9,2-3.1,3.1-4.7-0.9c-4-10.2-4.1-20.3-2.4-33.5
			c1.6-12.1,8.2-31.4,18.3-37.1C239.1,100.5,253.4,105.2,262.9,108.3z"/>
		<path class="st3" d="M456.6,147.2c-2.8,1.8-9.8,11.9-11,16.3c-0.8,3.1-8.9-3.2-8-9.4c0.5-4,1.4-8,6.6-10.4
			C450.5,140.7,458.1,146.2,456.6,147.2z"/>
		<path class="st3" d="M500.5,155.4c6.5,3.8,14.4,14.2,12.5,27.4c-2,13.2-10.5,20.5-17.2,24.5c-6.7,4-18.3,3.7-26.7-1.2
			c-8.5-4.9-16.1-17.7-13.6-30c2.5-12.3,9-20.3,19.1-23.9C484.7,148.6,494,151.5,500.5,155.4z"/>
		<path class="st3" d="M576.5,177.2c7.2,14.7-2.4,31.4-10.4,41.9c-4.8,6.3-10.3,12.9-20.9,19.1c-9.7,5.7-19.2,7.6-28.9,3.9
			c-9.5-3.6-15.3-12.3-17.7-17.7c-1.3-2.8,0.2-3.6,3.9-5.5c2.8-1.5,4.8-3.5,7.4-2.2c7.3,3.5,19,3.3,25.2-2.1
			c5.2-4.5,8.6-14.6,5.6-22c-3.2-7.9-9-11.7-12.4-13.5c-2.9-1.6-2.6-4.3-2.8-7.1c-0.4-4.1-0.2-5.5,2-6.5c3.5-1.7,11.4-3.1,16.9-3.3
			C550.1,161.9,569.1,162.1,576.5,177.2z"/>
		<path class="st3" d="M525.7,207.6c-3.6,1.7-10.1,1.3-8-1.9c2.3-3.3,5.5-9.3,6.7-12.5c1-2.6,4.1,0.1,5.5,3.4
			C532,201.5,529.5,205.8,525.7,207.6z"/>
		<path class="st1" d="M291.5,296.8c2.8,3.8,3.6,11.8,3.2,15.2c-1,9.2-5.4,14.8-7.6,16c-2.3,1.3-6.6,2.5-11.4,1.1
			c-4.3-1.2-8-4.3-9.5-8.7c-1.5-4.5-1.3-12,0-16.5c1.2-4.2,3.5-9.1,8.6-11.7C280.7,289.4,287.7,291.7,291.5,296.8z"/>
		<path class="st1" d="M495.9,305.2c2.6,4.8,3.7,14.9,0,23c-2.3,5.1-6.8,8.1-10.4,8.7c-3.8,0.7-10.1-1.4-13.2-5.6
			c-2.9-3.9-4.4-11.1-2.9-17.9c1.1-4.9,3-10.5,7.9-13.4C483.2,296.5,492.2,298.3,495.9,305.2z"/>
		<path class="st1" d="M405.6,342.8c2.7,6.6,0,15.1-8.1,19.5c-8.4,4.5-22.1,2.4-28.2-0.9c-6-3.3-8.8-7-9.5-12.9
			c-0.7-6.3,2.6-10.7,7.2-14.5c4.7-3.8,15.6-5,23-3C397.3,333.1,402.9,336.1,405.6,342.8z"/>
		<path class="st4" d="M395.3,345.9c0.9,3.4,0.4,5.7-1.4,7.5c-3.6,3.7-12.4,3.3-15.8,2.1c-3.4-1.2-7.8-3.2-8-7.3
			c-0.1-2.9,0.7-4.5,4-7c3-2.2,9.3-1.7,11.4-1.3C387.8,340.3,394.5,342.5,395.3,345.9z"/>
	</g>
	<path class="st4" d="M479,533.1c24.8,6.6,55.7,33,42.5,53.2c-8.6,13.2-30.9,11.6-43.6-4C454.2,552.8,460.6,528.2,479,533.1z"/>
	<path class="st1" d="M460.8,534.7c-7.5,11.6-2.3,31.5,13.3,50.7c7.9,9.7,19.8,15.4,31.3,14.8c8.7-0.4,16.2-4.5,20.5-11.2
		c4.5-6.9,5.2-14.9,2-23.2c-6.7-17.5-29.4-32.9-47.5-37.7l0,0C472.1,526,464.8,528.4,460.8,534.7z M481.9,579
		c-15.4-19-16-33.6-12.6-38.8c1.6-2.5,4.5-3.3,8.4-2.2c17.5,4.7,35.7,18.8,40.6,31.5c0.9,2.3,1.3,4.4,1.3,6.4c0,2.7-0.8,5.2-2.3,7.6
		c-2.6,4-7,6.3-12.5,6.6C496.5,590.4,487.8,586.2,481.9,579z"/>
	<path class="st4" d="M392.6,533c-28.8,7.9-56.6,43-43.8,63.3c9.5,15.1,31,9.5,43.7-6.1C416.2,560.9,410.9,528,392.6,533z"/>
	<path class="st1" d="M391.3,528.2L391.3,528.2c-20.4,5.6-40.5,23.5-47.9,42.6c-4.2,10.7-3.7,20.4,1.2,28.2
		c4.3,6.7,11,10.7,18.9,11.2c11.4,0.7,24.1-5.8,33-16.8c18.4-22.7,20.4-47.1,13-58.5C405.3,528.5,398.7,526.1,391.3,528.2z
		 M400.9,540.3c4.6,7,3.8,26.7-12.4,46.6c-6.8,8.4-16.5,13.6-24.5,13.1c-4.7-0.3-8.4-2.5-10.9-6.5c-1.8-2.8-2.4-5.9-2.4-8.9
		c0-3.7,1-7.4,2.1-10.3c6.2-16.1,23.9-31.8,41.2-36.5C397.1,537.1,399.2,537.8,400.9,540.3z"/>
	<path class="st4" d="M476.8,533c28.8,7.9,56.6,43,43.8,63.3c-9.5,15.1-31,9.5-43.7-6.1C453.3,560.9,458.5,528,476.8,533z"/>
	<path class="st1" d="M460.1,534.8c-7.5,11.4-5.5,35.8,13,58.6c9,11,21.6,17.5,33,16.8c7.9-0.5,14.6-4.4,18.9-11.2
		c4.9-7.8,5.3-17.5,1.2-28.2c-7.4-19.1-27.6-37-47.9-42.6l0,0C470.8,526.1,464.2,528.5,460.1,534.8z M480.9,587
		c-16.2-20-16.9-39.6-12.4-46.6c1.7-2.5,3.8-3.3,6.9-2.4l0,0c17.2,4.7,34.9,20.4,41.2,36.5c2.1,5.3,3.7,12.9-0.3,19.2
		c-2.5,4-6.2,6.2-10.9,6.5C497.4,600.5,487.8,595.4,480.9,587z"/>
	<path class="st4" d="M464,525c-1.2,0.1-4-0.5-7.1-1c-13.1-2-30.4-2.2-45.3,0.5c-1.4,0.3-4.7,1-6.3,0.4c-0.9-0.3-38,54.6-20.4,79.9
		c7.4,10.7,28.8,16.6,50.6,16.2c23.1-0.5,47.7-3.8,55.7-22.8C500.2,576.5,465.2,524.9,464,525z"/>
	<path class="st1" d="M410.8,519.5c-0.5,0.1-4,0.5-4,0.5c-3.3-1.2-5.6,1.7-6.4,2.8c-0.4,0.5-39.4,56.3-19.6,84.8
		c9.8,14.1,35.7,18.7,54.8,18.3c23.2-0.5,51-3.8,60.2-25.9c10.4-24.8-25.8-75.8-26.2-76.3c-1.4-1.9-3.1-4.1-6.2-3.8
		c0.1,0,0.1,0,0.1,0c-0.1,0-2.9-0.5-2.9-0.5l-2.9-0.5C443,516.7,425,516.9,410.8,519.5z M403.7,529.7c0.6,0.2,1.3,0.2,2,0.3
		C405,530,404.4,529.9,403.7,529.7z M412.1,529.6c13.8-2.5,30.5-2.7,44.1-0.6l0,0l2.7,0.5c0,0,1.3,0.1,2.6,0.3
		c5.5,6.8,26.2,40.5,26.2,59.7c0,2.5-0.4,4.8-1.2,6.7c-7,16.7-31,19.3-51.1,19.7c-20.9,0.4-40.4-5.5-46.3-14
		c-2.7-3.8-3.8-8.7-3.8-14.1c0-21.2,16.9-50.3,22.3-57.7C409.1,530.1,410.6,529.9,412.1,529.6z M463.5,519.9
		C463.5,519.9,463.6,519.9,463.5,519.9c0.1,0,0.1,0,0.1,0C463.6,519.9,463.5,519.9,463.5,519.9z M463.6,519.9
		C463.6,519.9,463.6,520,463.6,519.9C463.6,520,463.6,520,463.6,519.9C463.6,519.9,463.6,519.9,463.6,519.9z"/>
	<g>
		<path class="st4" d="M515.1,466.2c5.4-4.5,27.8-32.4,3.9-53.2c-17.6-15.3-37.4-5.5-45.4,1.8c-1.1,1-1.9,1.8-3.1,1.9
			c-1.2,0.1-4-0.7-7-1.4c-13-2.6-30.3-3.6-45.2-1.6c-1.5,0.2-4.7,0.7-6.3,0.1c-0.9-0.4-3-2.2-4.4-3.6c-8-7.7-28.6-21.2-45.8-4.4
			c-20.2,19.7-9.8,41.2,1.4,52.7c-0.3,1.6-14.4,48.6,24.4,69.7c31.5,18.1,86.2,18.6,111.2-5C520.8,502.5,516,478.5,515.1,466.2z"/>
		<path class="st1" d="M358.1,402.2c-8.5,8.3-12.9,17.6-13,27.7c0,0.2,0,0.3,0,0.5c0,13.6,7.7,24.2,12.5,29.6
			c-1.1,4.6-2.3,11.5-2.3,19.9c0,17.4,5.5,39.7,29.8,52.8c32.5,18.6,89.6,20.2,117.1-5.7c16-15,19.1-31.9,19.1-45
			c0-4.8-0.4-9.1-0.7-12.5c0,0-0.1-0.8-0.1-1.5c5.6-5.7,14.4-18.4,14.5-32.5c0-0.1,0-0.2,0-0.4c0-10-4.2-18.7-12.5-25.9
			c-20.3-17.7-43-6.5-52.2,1.9c-0.2,0.2-0.3,0.3-0.5,0.5c-0.7-0.2-2.1-0.5-2.1-0.5l-3.1-0.7c-14.6-3-32.6-3.6-46.9-1.6
			c-0.5,0.1-3.3,0.3-3.8,0.3c-0.5-0.4-2.9-2.5-2.9-2.5C400.2,396.3,377,383.8,358.1,402.2z M390,523.8
			c-31.2-16.9-24.8-52.9-22.1-63.5c0.4-1.7,0.1-4-1.2-5.3c-3.5-3.6-11.6-13.2-11.4-25c0.1-7.3,3.4-14.2,9.9-20.6
			c16.1-15.7,35.1,1,38.8,4.5c0,0,6,4.6,6,4.6c2.6,1,5.6,0.7,8.5,0.3c13.8-1.9,30.5-1.3,44,1.5l2.8,0.6l5.5,0.8
			c0.1,0,5.9-2.9,5.9-2.9c7.2-6.6,24.1-15,39-2c6.2,5.4,9.1,11.4,9.1,18.5c-0.1,12.3-9.6,24.2-12.9,26.9c-1.3,1.1-2,2.6-1.8,4.3
			l0.3,3.9c1.2,12.8,3.1,32-15.2,49.1C471.2,542.2,419,540.4,390,523.8z M414.1,409.3c0,0-0.2-0.2-0.3-0.2
			C413.9,409.1,413.9,409.1,414.1,409.3z"/>
		<path class="st1" d="M475.7,475.5c2.3,3.3,2.1,8.3-0.1,11.5c-1.3,1.5-3.1,2.6-5.2,2.4c-2-0.1-3.6-1.1-4.7-3.1c-1.4-3-1-8.6,1-10.9
			C468.6,472.5,473.9,472.2,475.7,475.5z"/>
		<path class="st1" d="M410.1,472.7c1.4,3,1.9,7.4-0.1,10.5c-0.9,1.6-2.3,2.4-4,2.7c-2.9,0-5-0.7-6.3-3.9c-1.1-3.5-1-7.7,1.4-10.2
			C403.5,469.7,408.2,469.2,410.1,472.7z"/>
		<path class="st1" d="M441,497.6c-0.2,0.4-0.3,0.9-0.1,1.8c1.3,2.4,3.9,3.9,6.7,3.1c2.8-0.7,6.9-4.1,9.3-0.6
			c1.2,3.1-2.7,4.7-4.5,5.6c-4.4,1.8-10.1,1.3-14.4-1.4c-5,2.8-12.8,1.9-17.5-1.3c-1.5-1.2-1.8-3.7-0.5-4.7c4.2-2.1,7,3.2,11.6,1.3
			c1.3-0.9,3.4-1.9,3.1-4.2l0,0c-0.1-1.1-3.6-1.2-5.2-5.5c-0.8-2.6,0.2-5.4,2.1-6.6c4.4-2.7,13-2,14.9,3.7c0.7,2.2-0.2,4.5-1.1,5.9
			C443.9,497.1,441.7,496.6,441,497.6L441,497.6z"/>
		<path class="st1" d="M389.5,426.8c0.4-0.8,0.6-1.8,0.5-2.8c-0.2-1.1-0.7-1.9-1.5-2.6c-0.5-0.5,0.4-1.9,0.3-2.7
			c-0.5-2.3-2.5-4-4.8-3.5c-7.6,2-14.8,8.7-18.3,15c-1.4,2.3-1.2,5.2,1,5.9c2,0.7,3.6,0.9,5,0c0.4,0.6,1,1.1,1.7,1.5
			c1.6,0.7,2.6,0.1,4.2,0.1c0.3,0.9,1.2,1.4,2.2,1.5c0.7,0,2.1,0,4.5-2c2-1.7,4.3-3.8,5.5-6.1C390.4,429.7,390.3,428.1,389.5,426.8z
			"/>
		<path class="st1" d="M489.6,432.5c-0.4-0.9-0.5-1.8-0.2-2.8c0.3-1,0.9-1.9,1.8-2.4c0.5-0.5-0.2-2,0.1-2.8c0.8-2.3,2.9-3.7,5.1-2.9
			c7.4,2.8,13.8,10.2,16.6,16.8c1.1,2.4,0.7,5.3-1.6,5.8c-2.1,0.5-3.7,0.5-4.9-0.5c-0.5,0.6-1.1,1-1.9,1.3c-1.7,0.5-2.6-0.2-4.2-0.4
			c-0.4,0.9-1.3,1.3-2.3,1.2c-0.7,0-2.1-0.2-4.2-2.4c-1.8-1.9-3.8-4.3-4.8-6.6C488.4,435.2,488.7,433.7,489.6,432.5z"/>
	</g>
	<path class="st4" d="M425.9,592c4.3,20-6.5,39.3-24.1,43c-17.6,3.8-35.3-9.4-39.6-29.4c-4.3-20,6.5-39.3,24.1-43
		C403.8,558.8,421.6,571.9,425.9,592z"/>
	<path class="st1" d="M385.2,557.6c-9.1,1.9-17,7.5-22.3,15.7c-6.1,9.5-8.2,21.6-5.7,33.3c4.9,22.7,25.4,37.6,45.6,33.3
		c9.1-1.9,17-7.5,22.3-15.7c6.1-9.5,8.2-21.6,5.7-33.3v0C425.9,568.2,405.5,553.3,385.2,557.6z M367.1,604.5
		c-2-9.1-0.4-18.5,4.3-25.7c3.8-5.9,9.5-9.9,15.9-11.3c14.8-3.2,29.9,8.3,33.6,25.5c0.5,2.6,0.8,5.2,0.8,7.7c0,6.5-1.7,12.8-5.1,18
		c-3.8,5.9-9.5,9.9-15.9,11.3C385.9,633.2,370.8,621.8,367.1,604.5z"/>
	<path class="st4" d="M442.2,592c-4.3,20,6.5,39.3,24.1,43c17.6,3.8,35.3-9.4,39.6-29.4c4.3-20-6.5-39.3-24.1-43
		C464.3,558.8,446.5,571.9,442.2,592z"/>
	<path class="st1" d="M456.1,562.8c-9.5,6.1-16.3,16.4-18.9,28.1c-0.7,3.3-1.1,6.6-1.1,9.8c0,18.9,11.7,35.5,29,39.2
		c9.1,1.9,18.6,0.1,26.8-5.2c9.5-6.1,16.3-16.4,18.9-28.1c2.5-11.7,0.4-23.9-5.7-33.3c-5.3-8.2-13.2-13.8-22.3-15.7
		C473.8,555.7,464.3,557.5,456.1,562.8z M467.4,630c-14.8-3.2-23.9-19.8-20.2-37l0,0c2-9.1,7.2-17,14.5-21.7
		c5.9-3.8,12.7-5.2,19.1-3.8c6.4,1.4,12.1,5.4,15.9,11.3c4.7,7.2,6.2,16.6,4.3,25.7c-2,9.1-7.2,17-14.5,21.7
		C480.6,630.1,473.8,631.4,467.4,630z M437.3,590.9L437.3,590.9L437.3,590.9z"/>
	<path class="st2" d="M503.2,640.6c-33.8-10.6-50.5-53.3-37.3-95.4c13.2-42.2,51.3-67.8,85.1-57.2c33.8,10.6,50.5,53.3,37.3,95.4
		C575.1,625.5,537,651.1,503.2,640.6z"/>
	<path class="st1" d="M458.7,542.9c-3.3,10.4-4.9,21-4.9,31.3c0,14.7,3.3,28.9,9.7,41.2c8.4,16,21.7,27.5,37.4,32.4
		c37.7,11.8,80.1-16.1,94.5-62.1c14.4-46-4.6-93.1-42.3-104.9C515.4,469,473.1,496.9,458.7,542.9z M505.4,633.4L505.4,633.4
		c-12.1-3.8-22-12.4-28.6-25c-9.1-17.4-10.5-39.6-3.8-61c11.9-38.1,45.9-61.6,75.6-52.3c29.8,9.3,44.3,47.9,32.4,86
		C569.2,619.3,535.2,642.7,505.4,633.4z M501,647.7L501,647.7L501,647.7z"/>
	<path class="st2" d="M256.6,419.5c-26.7,22.2-7.9,66.7,18.1,98.3c32.7,39.8,63.7,40.3,81.9,28.4c15.2-10,21-30.4,13-50.4
		c14.9-14.5,2.9-38.6-17.1-34.1c-3.5-5.1-3.2-4.3-7.8-9.3C315,420,280.8,399.4,256.6,419.5z"/>
	<path class="st1" d="M251.8,413.8c-10.9,9.1-15.5,21.3-15.5,34.9c0,23.4,13.7,51,32.6,74c35.5,43.1,70.7,43.7,91.8,29.9
		c12.9-8.5,20-22.9,20-38.7c0-5.5-1.1-11.2-2.9-16.8c3.6-5,6-10.6,6-16.4c0-4.4-1.1-8.9-3.3-13c-5-9.2-14.3-14.2-24.6-13.6
		c-1.4-1.8-2.9-3.6-2.9-3.6l-2.7-2.9C311.5,405.1,276.5,393.2,251.8,413.8z M280.5,513.1c-24.4-29.7-40.8-69.8-19.1-87.8l0,0
		c24.7-20.5,62.6,15.7,77.8,32.2c0,0,3,3.1,3,3.1l4.2,5.3c1.8,2.3,5,3.7,7.8,3.1c8.4-1.9,12.2,3.8,13.1,5.6
		c2.1,3.9,2.6,10.4-2.9,15.8c-2.2,2.1-2.8,5.3-1.7,8.1c6.4,16.2,2.2,33.2-10.2,41.4C336.8,550.2,309.6,548.6,280.5,513.1z
		 M251.8,413.8L251.8,413.8L251.8,413.8z"/>
	<path class="st2" d="M284.4,640.6c33.8-10.6,50.5-53.3,37.4-95.4c-13.2-42.2-51.3-67.8-85.1-57.2c-33.8,10.6-50.5,53.3-37.4,95.4
		C212.5,625.5,250.6,651.1,284.4,640.6z"/>
	<path class="st1" d="M234.4,480.8c-37.7,11.8-56.7,58.8-42.3,104.9c14.4,46,56.8,73.9,94.5,62.1c15.8-4.9,29.1-16.4,37.4-32.4
		c6.4-12.3,9.7-26.5,9.7-41.2c0-10.3-1.6-20.9-4.8-31.3C314.5,496.9,272.1,469,234.4,480.8z M206.5,581.1
		c-11.9-38.1,2.6-76.7,32.4-86c29.8-9.3,63.7,14.1,75.6,52.3c6.7,21.4,5.3,43.6-3.8,61c-6.6,12.6-16.5,21.2-28.6,25l0,0
		C252.3,642.7,218.4,619.3,206.5,581.1z M286.6,647.7L286.6,647.7L286.6,647.7L286.6,647.7z"/>
</g>
</svg>
