<?xml version="1.0" encoding="utf-8"?>
<!-- Generator: Adobe Illustrator 24.0.0, SVG Export Plug-In . SVG Version: 6.00 Build 0)  -->
<svg version="1.1" id="Layer_1" xmlns="http://www.w3.org/2000/svg" xmlns:xlink="http://www.w3.org/1999/xlink" x="0px" y="0px"
	 viewBox="0 0 771.9 724.9" style="enable-background:new 0 0 771.9 724.9;" xml:space="preserve">
<style type="text/css">
	.st0{fill:#746B68;stroke:#746B68;stroke-width:9.380000e-02;stroke-miterlimit:10;}
	.st1{fill:#56B5E3;stroke:#56B5E3;stroke-width:9.380000e-02;stroke-miterlimit:10;}
	.st2{fill:#FFFFFF;stroke:#FFFFFF;stroke-width:9.380000e-02;stroke-miterlimit:10;}
	.st3{fill:#736B68;stroke:#736B68;stroke-width:9.380000e-02;stroke-miterlimit:10;}
	.st4{fill:#756C68;stroke:#756C68;stroke-width:9.380000e-02;stroke-miterlimit:10;}
	.st5{fill:#FAD600;stroke:#FAD600;stroke-width:9.380000e-02;stroke-miterlimit:10;}
</style>
<g>
	<path class="st0" d="M431.8,79.8c7-5,15.9-5.8,24.2-5.2c12,2.3,20.6,12,27.1,21.7c3,4.8,5.7,9.9,8.5,14.7
		c14.9-6.9,29.9-14.7,46.6-16.5c5.7-0.3,12.9-1.2,16.5,4.3c10.7,14,12,32.6,13.7,49.5c5.5,3,11.2,5.8,15.5,10.2
		c6.7,8.2,6.9,19.2,4.7,29.1c-2.5,7.4-5.8,14.4-10.5,20.6c-2,2.8-4.5,5.3-6.2,8.4c-0.3,2.5,1.3,4.5,2.2,6.7
		c6.4,12.5,11,25.9,13.9,39.8c1.3,5.7,2.3,11.5,3.7,17.2c9.2,1.3,18.7,1.7,27.9,3c4.7,1,10.4,1.5,12.7,6.2c-0.3,4.7-5.7,3-8.7,2.7
		c-10.5-2-21.2-2.5-31.9-1.8c-1.2,11-2.3,22.2-3.5,33.3c8.4,2.8,16.9,5.2,24.6,9.4c3.2,1,2.7,4.3,2.8,7c-2.7-0.5-5.5-0.8-8.2-1.5
		c-7.4-2.2-14.7-4-22.4-4.5c-3.3,8.2-7,16.2-10.2,24.4c4,2.3,8.2,4.8,12.4,7c6.7,3.7,13.5,7.4,19.6,12c1.7,2.7,2.8,5.7,4,8.7
		c-3.3-0.7-6.9-1.5-10-2.8c-6.5-3.5-12.7-7.5-19.4-10.9c-3.8-2-7.7-3.5-11.7-5c-7,8.7-13.9,17.7-22.4,25.1c-3.2,3-6.9,5.5-10.4,8
		c13.7,3.8,26.4,14.4,28.6,29.1c3.8,20.6-10.5,39.8-28.1,48.8c-13.4,8-28.4,12.2-43,17c-5.7,1.3-9.4,6.2-13.4,10
		c-6.4,6.2-14.9,10-23.4,11.5c-4.5,0.5-9,0.7-13.5,0.7c-2.8,12-4.5,24.2-6,36.4c-2.3,13-3,26.2-4.7,39.4c-0.2,4.8-5.7,5.7-9.5,6
		c-9.2,0.5-18.4,0.3-27.7,0.2c-5.7-0.3-11.5-1-17.2-1.5c-3.7-0.5-7.4-0.7-11-1c-3.7,7.5-7.7,14.7-12.7,21.4
		c-13,19.4-35.8,33.9-59.7,31.8c-17.4-0.7-32.9-11.2-43.1-24.7c-6.9-8-8.9-19.2-15.4-27.2c-12.4-5.5-23.9-13.5-30.6-25.6
		c-10.9-19.6-10.5-42.6-10-64.3c0.5-5.3-2.8-9.7-5.3-13.9c-4.2-6.2-7.5-12.7-10.2-19.6c-1.7-5.3-6.4-13,0-17
		c5.7-2.5,11.2-5.5,16.7-8.7c-4.8-3.3-10.2-6.2-14.2-10.7c-3.8-4.5-5.7-10.2-8-15.5c-8.7-0.2-18.2-0.5-25.1-6.5
		c-8.5-7.7-12.7-20.1-10-31.3c2.2-8.7,7.2-16.5,13.2-23.1c6-5.8,13.2-10.5,20.7-14.4c10.7-5.3,22.6-8.4,34.4-8.7
		c7.7-0.2,15.2,1.5,22.9,2c-1.7-1.7-3.2-3.5-5-4.8c-10.4-1.3-20.9,3.3-31.1,0.2c-0.2-3.5,3.8-4,6.5-4.8c7.2-1.8,14.5-2.8,21.9-4.8
		c-2.5-9.4-5-18.9-6.4-28.4c-12.2-1.8-24.4,0.8-36.8,0c0-1.3,0-4.2,0-5.5c11.7-3.3,23.9-3.7,36.1-3.7c0.3-5.3,0.3-10.5,0.5-15.9
		c0.5-25.1,8-49.6,21.2-70.9c6.7-9,0.2-20.1,0.7-30.1c-1-19.9,4.5-39.8,13.9-57.2c3.2-5.3,6.5-11.9,13-13.7
		c8.7-1.2,17.2,1.5,25.2,4.2c14.5,4.7,28.1,12.2,40.4,21.2c3.3,2.3,7.2,5.5,11.7,3.8c17.5-4.5,35.8-4.7,53.6-3.8
		C405.7,109.2,415.3,91,431.8,79.8L431.8,79.8z"/>
	<path class="st1" d="M423.5,101.5c6.7-8.5,16-16.9,27.6-16.7c9-0.7,16.5,5.8,21.7,12.5c6.9,9.5,10.7,20.7,13.4,31.9
		c-2.7,0.8-5.2,1.8-7.9,2.2c-6.9-4-13.7-9.9-22.2-8c-13,1.7-21.2,16.7-16.5,28.7c2.5,7.4,10.2,10.2,15.5,15c1.7,1.5,0.5,4.2,0.2,6
		c-9.9,4.8-21.4,6.2-32.3,5.2c-10-0.8-19.1-9.2-19.9-19.4C400.9,138,411.1,117.9,423.5,101.5L423.5,101.5z"/>
	<path class="st2" d="M520.1,109.7c7.7-3,15.7-6,24.1-5c3.7,0.8,5.5,4.8,7,7.9c4.7,10.7,6.5,22.6,6,34.1c-9.5-0.3-19.1,0.7-28.6,0.3
		c-5-5.2-9.5-10.9-16.4-13.9c-5.7-3.3-13.5-3-17.5-9C501.3,116.6,511,113.4,520.1,109.7L520.1,109.7z"/>
	<path class="st2" d="M266.4,114.9c3.3-4,9.2-3.5,13.9-2.7c17.4,3.7,33.6,12.2,47.1,23.6c3.2,2.7,6.4,7.2,11.2,6.2
		c18.2-3,36.8-7.2,55.2-3.8c-1.2,9-2.8,18.2-0.3,27.1c2.7,11,12.5,19.1,23.2,21.4c13.7,2.8,28.1,0.3,41.4-3.2
		c4.5,7,9.7,14,17.2,18.4c6,4,13.4,5,20.4,6c5.5,12.5,13.9,25.6,27.7,29.4c14.4,4.3,27.9-3.8,39.4-11.4
		c9.4,16.5,16.4,35.3,16.5,54.5c-9.4,2.3-21.4-0.8-28.2,7.5c8.4,6.5,19.1-2,28.2,2.3c2,1.8,0.8,5,1.2,7.5
		c-0.7,7.5-0.7,15.2-3.7,22.2c-6,1.8-12.7,0.5-19.1,1.7c-0.2,1.2-0.5,3.7-0.7,4.8c5.3,1.7,10.7,2.7,15.9,4
		c-0.2,8.7-4.8,16.4-9.7,23.4c-6.5-1-13-4.8-19.7-3.2c-0.5,0.5-1.7,1.8-2.2,2.5c5,4.3,11.4,6.4,16.7,10.2
		c-8.2,13-19.9,24.2-33.8,31.4c-8-5.2-18.6-9.2-27.7-4.3c-6.5,3-9,9.9-13.2,15.2c-7.5,2.5-17,6.2-24.4,1c-29.1-17.9-66-19.1-97.8-8
		c-14.2,5.5-29.6,1.2-43.6-2.5c-21.4-6.4-44-14.7-58-33.1c5.3-1.7,10.9-2.8,16.2-4.7c-0.7-3-2.5-4.5-5.3-4.3
		c-5.7,0-11.2,1.5-16.7,1.7c-7-5.2-11-13.4-14.4-21.2c4.2-0.7,8.4-1.3,12.4-2.2c0-1.2,0-3.3,0-4.5c-5.2-1-10.5-1.2-15.7-2.2
		c-4.8-8-5.3-17.9-6.5-26.9c7.2,0.7,14.2,2,21.6,2.3c0.2-1.3,0.8-4,1.2-5.3c-7.5-3.7-16-3.7-23.9-6.5c-2.2-24.9,2.8-50.6,14-73
		c5.3-11,14.5-19.6,21.2-29.7c-1-1-2.8-2.8-3.8-3.8c-2.8,0.8-5.5,1.5-8.2,2.3c-2.7-9.2-2.8-18.7-1.5-28.1
		C253,142.1,257.3,127.1,266.4,114.9L266.4,114.9z"/>
	<path class="st1" d="M449.5,152.3c-5.8-7-0.7-19.4,8.2-20.6c4.5-0.8,8.4,2,12.2,4c-5,6.5-9.7,13.2-13.2,20.6
		C454.2,155.2,451.5,154.3,449.5,152.3L449.5,152.3z"/>
	<path class="st1" d="M483.5,140c10.4-3.5,22.9-1.5,30.9,6.2c10.4,9.5,12.5,27.1,4.2,38.8c-7.7,11.4-24.1,16.4-36.4,10.2
		c-11-5.8-18.7-18.6-16.5-30.9C466.7,153.7,473.6,143.8,483.5,140L483.5,140z"/>
	<path class="st1" d="M533.6,157.9c12.2-2.2,25.9-3,37.1,3.7c6.2,3.5,9.2,10.9,8.4,17.7c-1,15.2-11.2,27.6-22.1,37.4
		c-7.9,6-17,11.9-27.4,11.4c-11.5-1.5-18.9-12-23.6-21.7c3.8-1.8,7.4-4.8,11.7-5.2c7,1.5,14.2,6,21.6,2.8c10-3.2,13.9-16.2,9-25.1
		c-2.8-5.7-9.4-7.9-14.7-10.5C533.6,164.9,533.6,161.4,533.6,157.9L533.6,157.9z"/>
	<path class="st1" d="M533.6,177.1c3.2,2,7.7,3.7,8.7,7.9c0.8,4.3-1.2,9.7-5.3,11.9c-4.2,1.7-8.5-0.3-12.4-2
		C527.6,188.9,530.6,182.9,533.6,177.1L533.6,177.1z"/>
	<path class="st3" d="M306.3,291.7c5.8-2.7,13.5,0.3,16,6.4c3.8,7.9,4.5,18.2-1,25.4c-6,7.2-18.4,3.3-21.1-5.2
		C296.9,309.6,297.3,296.7,306.3,291.7L306.3,291.7z"/>
	<path class="st3" d="M497,300.8c5-1.5,11.4-1,14.7,3.3c5,6.4,4.8,15.2,3,22.7c-1.7,7-9.4,12.4-16.5,9.5
		c-7.7-2.3-10.2-11.2-9.9-18.4C488.1,311.4,490.3,303.4,497,300.8L497,300.8z"/>
	<path class="st4" d="M403.2,328.7c8.7-2.7,19.7-1.2,25.9,6c6,7.2,2.2,19.1-6.5,21.9c-9.5,2.7-22.2,2.3-28.4-6.7
		C389,342,394.2,330.7,403.2,328.7L403.2,328.7z"/>
	<path class="st5" d="M409.7,333.8c6.2-0.5,14.9,1.8,15.5,9.2c-0.7,13.7-26.6,12.4-25.7-1.3C399.7,336.5,405.4,334.3,409.7,333.8
		L409.7,333.8z"/>
	<path class="st2" d="M169.3,362.1c15.9-11.5,36.6-16.7,55.8-12c5.7,1.3,11,4.2,15.5,8c-10.9,6.2-23.6,8.2-34.4,14.2
		c-2.5,1.3-4,3.7-5.3,6c1.8,2.5,4.7,2.5,7.4,1.3c12.5-5.3,25.7-9.5,39.1-12.9c7.4,7,14.7,13.9,22.7,20.2c8,6.2,14.7,14.4,18.4,23.7
		c3.2,7.5,0.5,16.4-5.2,21.9c-7.9,7.5-17.7,12.7-28.4,14.9c-7,1-15.5,1.3-20.6-4.7c-2.7-2.2-4.2-6.2-7.5-7.4c-5,1.2-9.7,4-14.9,4.5
		c-10.5,2-21.6-4.5-25.2-14.5c-1.3-4.3-1.8-8.9-2.7-13.4c-7.2,0.5-15,2.8-21.9-0.8c-10.5-4-14.7-17.2-10.9-27.4
		C154,374.5,161.6,367.6,169.3,362.1L169.3,362.1z"/>
	<path class="st2" d="M492.3,414.9c2-6.7,4-15.7,12.4-17c8-2,13,5.8,17.5,11.2c6.5,1.8,13.9,1.3,20.1,4.8
		c11,5.2,15.7,19.2,11.9,30.6c-3.8,13.7-16,22.6-28.4,28.4c-14.2-12.2-22.9-29.2-29.7-46.3C494.6,422.8,492.6,419.1,492.3,414.9
		L492.3,414.9z"/>
	<path class="st1" d="M295.1,399.9c12.2,4,24.6,7.5,37.3,10.2c-9.4,7.5-21.1,15.2-22.1,28.2c-1.3,16.7,2.3,36.8,17.7,46.1
		c10.2,6.5,23.1,5.2,34.1,2.2c5.3,7,11.7,14.4,20.7,16.4c10.5,2.8,21.1-0.7,30.9-4.2c5.7,6.4,12.5,11.9,20.2,15.7
		c-4.2,24.9-8.5,49.8-10.9,74.9c-27.7,2.3-55.8-2-82.7-8.7c-26.6-7.2-52.5-16.9-76.2-30.6c-15.2-9.7-29.7-20.2-42.3-33.1
		c-13.9-14-26.2-30.2-32.9-49c6.7-6.2,14.5-10.5,21.9-15.9c3.8-2.7,8-4.5,12.4-6c6.9,7.7,16.5,13.4,27.2,11.9
		c16.2-1.8,31.8-10,42.5-22.4c5.2-5.5,7.9-13.2,6.7-20.7C298.6,409.7,296.6,404.7,295.1,399.9L295.1,399.9z"/>
	<path class="st2" d="M353.8,411.4c22.4-8.7,47.1-14,71-8.4c16.5,4.5,32.9,12.2,44.6,25.1c13,14,19.9,34.3,15.7,53
		c-2.3,11.9-12,21.4-23.6,24.7c-10.5,3-22.1,0.7-31.1-5c-6.2-3.8-9.7-10.4-13.7-16c-5.8,2.5-10.7,7-16.9,8.9c-7,2-15.2,1.3-21.2-3
		c-5.7-3.7-8.4-10-11.7-15.7c-7,1.3-13.9,4.3-21.2,4.2c-11.7-0.2-22.6-9.4-24.6-20.9c-2-9.2-3.7-20.4,3-28.2
		C331.9,420.9,343.1,416.1,353.8,411.4L353.8,411.4z"/>
	<path class="st1" d="M475.8,419.7c2.2-0.7,4.5-1.3,6.7-2c2.7,6.9,5.3,13.7,7.4,20.7C485.1,432.3,480.6,425.9,475.8,419.7
		L475.8,419.7z"/>
	<path class="st1" d="M491,441.3c6.9,12.7,14,25.1,23.7,35.6c-6.2,2.5-12.5,4.8-18.9,6.7c0.5-6.7,1.3-13.5,0.7-20.2
		C495.7,455.7,492.6,448.7,491,441.3L491,441.3z"/>
	<path class="st2" d="M213,561c-5.2-14-6.9-29.4-5-44.3c9.2,9.2,18.4,18.2,28.6,26.2c-0.3,6.9-1.5,13.7-1.7,20.7
		c-0.3,6.9,1.2,13.5,1,20.4C225.1,580.4,216.9,571.5,213,561L213,561z"/>
	<path class="st2" d="M247,550.9c33.1,21.1,70,35.1,108.3,43.1c-6.2,20.4-22.7,37.4-42.8,44.6c-11.4,3-24.2,2.3-34.6-3.8
		c-15-8.2-24.4-23.7-28.9-39.8C245.3,580.7,245,565.6,247,550.9L247,550.9z"/>
</g>
</svg>
