<?xml version="1.0" encoding="utf-8"?>
<!-- Generator: Adobe Illustrator 24.0.0, SVG Export Plug-In . SVG Version: 6.00 Build 0)  -->
<svg version="1.1" id="Layer_1" xmlns="http://www.w3.org/2000/svg" xmlns:xlink="http://www.w3.org/1999/xlink" x="0px" y="0px"
	 viewBox="0 0 771.9 724.9" style="enable-background:new 0 0 771.9 724.9;" xml:space="preserve">
<style type="text/css">
	.st0{fill:#FFFFFF;stroke:#1D1D1B;stroke-width:3.4702;}
	.st1{fill:none;stroke:#CC1719;stroke-width:4.8584;}
	.st2{fill:#283582;stroke:#1D1D1B;stroke-width:3.4702;}
	.st3{fill:none;stroke:#CC1719;stroke-width:4.8584;stroke-linecap:round;stroke-linejoin:round;}
	.st4{fill:#FFDC00;stroke:#1D1D1B;stroke-width:3.4702;}
	.st5{fill:#1D1D1B;}
	.st6{fill:#CC1719;stroke:#1D1D1B;stroke-width:3.4702;}
	.st7{fill:none;stroke:#1D1D1B;stroke-width:3.4702;}
	.st8{fill:none;stroke:#CC1719;stroke-width:3.4702;}
</style>
<g>
	<path class="st0" d="M301.9,398.8c0,0-53.6,22.6-87.5,52.7c-33.9,30.1-31,64.9-6.6,78c24.5,13.2,54.5,5.6,62.1-0.9
		C277.5,522,301.9,398.8,301.9,398.8z"/>
	<g>
		<line class="st1" x1="261.5" y1="425.2" x2="281.2" y2="444"/>
		<line class="st1" x1="246.4" y1="435.5" x2="272.8" y2="460.9"/>
		<line class="st1" x1="227.6" y1="445.9" x2="264.3" y2="476.9"/>
	</g>
	<path class="st2" d="M315.1,397.9c0,0-57.4,74.3-72.4,146.7c0,0,28.2,53.6,52.7,53.6c24.4,0,130.7,3.8,130.7,3.8
		s74.3-13.2,77.1-37.6c2.8-24.4-7.5-141.1-8.5-163.6C493.8,378.2,315.1,397.9,315.1,397.9z"/>
	<path class="st0" d="M242.7,544.6c0,0-13.2,37.6-0.9,55.5c12.2,17.9,38.6,39.5,92.2,43.3c0,0,36.7,9.4,37.6-13.2
		c0.9-22.6,2.8-57.4,2.8-57.4S273.7,559.7,242.7,544.6z"/>
	<path class="st0" d="M374.3,572.8l129.8,2.8c0,0,17.9,40.4-24.5,62.1c-42.3,21.6-111.9,12.2-108.1-2.8
		C375.3,619.8,373.4,595.4,374.3,572.8z"/>
	<path class="st0" d="M320.7,467.5c0-7.8-6.3-14.1-14.1-14.1c-7.8,0-14.1,6.3-14.1,14.1c0,7.8,6.3,14.1,14.1,14.1
		C314.4,481.6,320.7,475.3,320.7,467.5z"/>
	<g>
		<path class="st0" d="M321.5,397.8c0,0,0.9,75.9,53.1,75.9c52.2,0,64.5-43.6,67.3-66.4C444.7,384.5,321.5,397.8,321.5,397.8z"/>
		<g>
			<line class="st3" x1="328.3" y1="433.6" x2="408.7" y2="437.6"/>
			<line class="st3" x1="339.5" y1="452.5" x2="402.6" y2="453.4"/>
		</g>
	</g>
	<g>
		<path class="st0" d="M308.2,150.3c0,0,73-27.5,129.9-25.6c0,0,29.4-33.2,77.8-27.5c24.7,19,6.6,75.9,4.8,83.5
			c-1.9,7.6,32.2,43.6,40.8,75.9c8.5,32.2,9.5,92.9-33.2,128c-42.7,35.1-151.7,42.7-218.1,31.3c-66.4-11.4-158.4-95.8-80.6-212.4
			c0,0-24.7,3.8-11.4-49.3C231.4,100.9,276.9,138.9,308.2,150.3z"/>
		<path class="st4" d="M401.6,349.5c0,8.6-8.6,15.5-19.3,15.5c-10.6,0-19.3-7-19.3-15.5c0-8.6,8.6-15.5,19.3-15.5
			C393,334,401.6,340.9,401.6,349.5z"/>
		<path class="st5" d="M293.5,317.5c0,9.6-5.1,17.4-11.3,17.4c-6.2,0-11.3-7.8-11.3-17.4c0-9.6,5.1-17.4,11.3-17.4
			C288.4,300.1,293.5,307.9,293.5,317.5z"/>
		<path class="st5" d="M484.4,318.4c0,9.6-5.1,17.4-11.3,17.4c-6.2,0-11.3-7.8-11.3-17.4c0-9.6,5.1-17.4,11.3-17.4
			C479.3,301,484.4,308.8,484.4,318.4z"/>
		<g>
			<path class="st6" d="M462.8,143.6c0,0,1-37.9-24.7-56c-25.6-18-40.8-24.7-66.4,26.6c-25.6,51.2,14.2,104.3,69.2,66.4
				C496,142.7,462.8,143.6,462.8,143.6z"/>
			<path class="st6" d="M482.7,156.9c0,0,56-24.7,70.2-2.8c14.2,21.8,5.7,48.4-20.9,63.5c-26.6,15.2-56.9,11.4-61.7-29.4
				C465.6,147.4,482.7,156.9,482.7,156.9z"/>
			<path class="st6" d="M491.9,161.8c0-16.6-13.5-30.1-30.1-30.1c-16.6,0-30.1,13.5-30.1,30.1c0,16.6,13.5,30.1,30.1,30.1
				C478.4,191.9,491.9,178.5,491.9,161.8z"/>
			<path class="st6" d="M519.2,182.5c0-7.8-6.3-14.1-14.1-14.1c-7.8,0-14.1,6.3-14.1,14.1c0,7.8,6.3,14.1,14.1,14.1
				C512.9,196.6,519.2,190.3,519.2,182.5z"/>
			<path class="st6" d="M439.2,145.9c0-8.8-7.2-16-16-16c-8.8,0-16,7.2-16,16c0,8.8,7.2,16,16,16
				C432.1,161.9,439.2,154.7,439.2,145.9z"/>
		</g>
		<g>
			<path class="st7" d="M232.3,312.4c0,0-42.7-4.7-61.6,16.1"/>
			<path class="st7" d="M241.8,341.8c0,0-32.2,3.8-50.3,19.9"/>
			<path class="st7" d="M251.3,365.5c0,0-25.6,15.2-33.2,28.4"/>
			<path class="st7" d="M530.1,342.8c0,0,33.2,10.4,46.5,21.8"/>
			<path class="st7" d="M540.5,314.3c0,0,32.2-2.8,45.5,6.6"/>
			<path class="st7" d="M533.9,282.1c0,0,41.7-6.6,67.3-1.9"/>
		</g>
	</g>
	<g>
		<path class="st4" d="M454.2,409.2c0,0-37.9,12.3-45.5,28.5c-7.6,16.1-7.6,27.5,2.8,23.7c10.4-3.8,11.4-11.4,11.4-11.4
			s-5.7,9.5-6.6,16.1c-0.9,6.6-3.8,16.1-3.8,16.1s-35.1,7.6-13.3,20.9c21.8,13.3,40.8,17.1,42.7,2.8c1.9-14.2-5.7-23.7-5.7-23.7
			l19.9,12.3c0,0-27.5,18-11.4,26.6c16.1,8.5,51.2,21.8,37-5.7c0,0,19-16.1,22.8-29.4c3.8-13.3-9.5-56-9.5-56L454.2,409.2z"/>
		<g>
			<path class="st8" d="M465.7,441.6c0,0-10.9-11.4-21.2-10.3c-10.3,1.1,8.1,15.2,16.3,14.1c8.1-1.1,24.4-1.6,22.3,6.5
				C480.9,460,463.5,457.3,465.7,441.6z"/>
			<polyline class="st8" points="439.1,456.8 465.7,445.4 470.1,467.6 			"/>
		</g>
		<g>
			<path class="st4" d="M480.8,359.9c0,0,23.7,1,32.2,13.3c0,0,33.2-6.6,36,12.3c2.8,19-8.5,33.2-26.6,29.4c0,0-11.4,33.2-47.4,20.9
				c-36-12.3-37.9-34.1-27.5-58.8c0,0-16.1-7.6,0-24.7C463.7,335.2,480.8,359.9,480.8,359.9z"/>
			<g>
				<path class="st5" d="M534.7,392.5c0-4.2-2.6-7.7-5.9-7.7c-3.3,0-5.9,3.4-5.9,7.7c0,4.2,2.6,7.7,5.9,7.7
					C532,400.2,534.7,396.8,534.7,392.5z"/>
				<path class="st5" d="M463.4,369c3.2-2.7,4.2-7,2.1-9.5c-2.1-2.5-6.4-2.3-9.7,0.4c-3.2,2.7-4.2,7-2.1,9.5
					C455.9,371.9,460.2,371.7,463.4,369z"/>
				<g>
					<path class="st5" d="M473.3,396.6c0-2.6-2.1-4.7-4.7-4.7c-2.6,0-4.7,2.1-4.7,4.7c0,2.6,2.1,4.7,4.7,4.7
						C471.2,401.4,473.3,399.3,473.3,396.6z"/>
					<path class="st5" d="M498.7,408.5c0-2.6-2.1-4.7-4.7-4.7c-2.6,0-4.7,2.1-4.7,4.7c0,2.6,2.1,4.7,4.7,4.7
						C496.6,413.2,498.7,411.1,498.7,408.5z"/>
					<path class="st5" d="M481.5,410.2c0-2.6-2.1-4.7-4.7-4.7c-2.6,0-4.7,2.1-4.7,4.7c0,2.6,2.1,4.7,4.7,4.7
						C479.4,415,481.5,412.8,481.5,410.2z"/>
				</g>
			</g>
		</g>
	</g>
	<path class="st0" d="M554.9,464.7c0-19.7-16-35.7-35.7-35.7c-19.7,0-35.7,16-35.7,35.7c0,19.7,16,35.7,35.7,35.7
		C538.9,500.4,554.9,484.4,554.9,464.7z"/>
</g>
</svg>
