<?xml version="1.0" encoding="utf-8"?>
<!-- Generator: Adobe Illustrator 24.0.0, SVG Export Plug-In . SVG Version: 6.00 Build 0)  -->
<svg version="1.1" id="Layer_1" xmlns="http://www.w3.org/2000/svg" xmlns:xlink="http://www.w3.org/1999/xlink" x="0px" y="0px"
	 viewBox="0 0 771.9 724.9" style="enable-background:new 0 0 771.9 724.9;" xml:space="preserve">
<style type="text/css">
	.st0{fill:#FFFFFF;}
	.st1{fill:#FFF200;}
	.st2{fill:#2E3191;}
	.st3{fill:#7D4400;}
	.st4{fill:#00ADDD;}
	.st5{fill:#FFDECF;}
	.st6{fill:#999999;}
	.st7{fill:#EC1C24;}
	.st8{fill:#C3996B;}
	.st9{fill:#FFEFCF;}
</style>
<g>
	<path d="M628.9,328c-2.3-1.2-4.8-2.1-7.2-3.1c-5.4-2.3-10.9-5.1-16.8-5.7c-3.9-0.3-6.9-4.3-4.6-8.1c0.9-1.4,0.5-4.6,0.8-6.4
		c0.2-1.1,1-1.9,1.7-2.8c0.2-4.4,0.6-9.4,1.8-13.4c0.7-2.3,2.7-3.9,5.2-4c3.3,0,6.2-0.8,9.5-0.4c3.1,0.4,8.5,1.2,11.2-0.9
		c0.7-0.5,2.9-4.1,0.8-4.9c-0.7-0.3-1.1-0.7-1.6-1.1c-0.2,0.2-0.4,0.4-0.5,0.6l-20.8-1.6c-6-4.5-3.4-12.5-5.2-19.3
		c-1.5-29.3-17.8-52.7-32.3-77l2.3-10.4c4.5-29.8,3-61.9-20.7-81.7c-14.1-1.1-28.6,0.9-40.9,7.3c-3.8,1.2-7.2,4.1-10.6,4.7v0.7
		c-11.6,5.7-21.4,16.9-31.4,25.4c-28.1-4.8-56.6-9.2-85.6-8l-2.3-1.8c-3.8-9.5-9.8-20.5-20.2-25.5c-10-4.3-21.5-1.2-29.4,5.6
		c-5.2,3.2-8,9.9-13.5,11.7c-15.1-14.9-32.7-23.1-50.6-31.6c-4.7-1.1-10.7-4.3-15.1-0.4c-11.5,13.2-19.3,28.4-24.4,44.5
		c-1.8,5-1.3,11.1-4.4,15.4c-10.5,2.8-24.5,7.8-27.1,20.2c-4.8,15.7,6,28.1,10.7,41.4c-16.6,29.2-24.6,62.7-22.5,99.7l-2.1,2.6
		c-12.5,2.1-25.7,3.4-36.6,9.5c-2.4,1.3-6.8,3.5-6.3,7.2c0.6,1.7,2.3,2.4,3.7,2.5c12.9-6.4,26.6-10.7,41.4-11.7l1.7,1.7
		c2.7,12.2,6.8,23.4,10.2,35.3c-4.5,4.2-10.6,5.1-15.7,8c-2.7,1.6-7.5,3.5-7.3,7.5c0.6,1.7,2.3,2.1,3.7,1.8c7.8-2.8,15-7,23.1-8.8
		c7.2,8.6,13.3,18.2,22.2,25.9l0.3,1.7c-5.6,8.9-18.2,13.3-20.8,23.7c0.3,1,1.3,2.1,2.3,2.1c9.9-5.1,16.3-17.1,26.8-20.5
		c7.3,5.3,15.3,8.2,22.9,11.8c14.3,5.8,30.4,7.9,45.5,11.7c-12.6,7.1-25.9,13.4-39.2,19.1c-4.7-1.8-10.3-4.3-15.8-2.1
		c-5.1,1.2-8.3,6.5-10.4,10.5c-1.8,5.4-0.3,10.8,1.6,15.2c-6,11.3-6.5,28.1,1.6,38.4c7.8,12,21.9,14.7,35.3,13.1l2.6,2.8
		c-1.1,4-0.9,8.7-4,11.3c-10.8-0.7-24.7-6.7-33.4,2.8c-4.5,5.3-5.7,13.7-3.6,20.5c3.1,9.5,13.2,12.5,21.5,15
		c5.3,2.2,12.1,1.4,17.1,4.2l7.8,22.1c0.7,11.8-1.7,24.6,0.7,35.7c0.7,10.8,9.8,20.8,19.6,24.4c36.8,8.1,79.6,9.9,118,6.5
		c13.7-7.4,32.7-1.8,47.7-5.8c12.8-1,24.2-11.8,27.9-23.8c5.8-16.4-3.9-31.4-15.4-42.1c3.1-17.5,5.3-35.6,6.5-53.4
		c0.2-9.4-0.8-19.2,0.4-28.3c2.6,0.2,12.4,2.4,13.1,2.8c0,0,0.1,0,0.1,0c11.2,1,18.5-0.9,29.3-5.4c10.9-4.5,16.8-18.6,13.5-32.8
		c0-0.1-1.8-4-3-5.2c-13.3-12.6-11.9-17.9-11.6-19.2c0.5-3.2,0.8-8.6,0.1-10.7c-2.4-3.5-4.6-7.1-9.6-9c0.3,0.1,0.5,0.3,0.8,0.5
		c-1.5-0.8-3-1.5-4.6-2c-9.3-2.6-15.6,5.7-24,3.4c-3.3-1.8-6.7-3.9-10-6.3c10.9-2.5,21.9-4.7,32.7-7.7c-0.1,0.1,14.3-5.1,19.9-7.2
		c4.3-1.6,24.5-13.1,27.5-15.3c4.4-3.1,11.6-10.8,11.7-10.8c0.4-0.4,0.9-0.8,1.4-1.1c0.1-0.1,3.9-5.1,4.6-5.6c0.4-0.8,1-1.6,1.9-2.1
		c0.8-0.7,1.9-1.2,3.3-1.2c0.4,0,0.7,0.1,1.1,0.2c0.6-0.1,1.2-0.1,1.9,0c4.1,0.9,8,3.1,12.2,3.7c0.5,0.1,9,0.7,5-2.8
		c-0.6-0.5-1.3-0.8-2.1-0.9c-4-0.9-9-0.7-12.5-3.2c-7.9-5.6,2.4-17.2,4.7-23.1c0.3-0.7,0.7-1.3,1.2-1.8c-0.2-3.6,3.7-7.6,8.1-5.4
		c4.8,2.4,11.3,2.8,16.4,4.5c3.5,1.2,7.1,1.8,10.6,2.4c0.1,0,0.1-0.1,0.2-0.1C633.5,332.7,630.6,328.9,628.9,328z"/>
	<path class="st0" d="M588.1,313.6c-5.5,2.5-11.1-1.3-16.8,0.2c-3.7,0.9-9.4-0.9-11.2,3.4c4.6,6.5,15.5,2.1,22.5,4.6
		c6.3,4.2-1,11.7-2.1,17.5c-2.8,3.6-3.4,10.7-9.7,9.8c-6.1-0.5-13.5-0.7-19.5-1.9c-1.3,0.3-2.1,2-1.4,3.3c4.2,5.2,12.4,3,17.7,6.5
		c-2.9,6.7-10.1,12.2-15.9,16.4c-45.5,27.7-100.5,31-157,30.1c-44.4-1.9-91.2-3.4-133.3-15c-7-3.2-14.6-5.8-21.2-10.7
		c1.5-5.7,8-7.9,11.8-11.8c0.4-1.3-0.6-2.4-1.6-3.1c-6.7,1.2-12,7.4-18.4,9.6c-8.6-5.3-16.4-13.9-20.6-22.8l0.4-2
		c6.5-3.9,14.3-4.3,21.3-5.8l1.7-2c-2.6-4.1-8.7-1.9-13.4-2.4c-4.7,0.9-9.8,2.5-14.6,2.7c-5.1-10.6-7.8-22.1-9.2-34.3
		c9.9-4.1,21.9-0.8,32.1-2.8c1-0.6,1.1-1.6,1.1-2.7c-10-6-22.8-4-34.3-4.3c-3.8-9.9-0.1-22.2-0.8-33c2.9-19.1,6.1-38.2,17.3-53.4
		l2,0c8.7,15.1,23.7,31.6,42.3,29.1c16.3-5.9,22.5-22.9,32.3-35.2c12.4,0.3,25-2.7,33.7-12.2l3.5-2.6c16.7,4.8,37.4,12.1,53.2,0.7
		c15.6-15.4,8.5-40.5,5.6-59.4l2.7-1.3c28,0.1,57.5,1.9,83.6,9c8.8-1.5,9.1-11.5,16.3-16.1c17.5-14,36.3-24,58.9-24
		c17.1,15.9,18.1,40.9,15.5,63.7c-0.8,3.4-1.2,7.4-3.9,9.3c-2.3-0.7-5.7-0.5-6.8,2.2c0.8,6.8,8.5,10.7,11.3,16.5
		c14.4,26,31.6,51.4,29.4,83.6l-2.4,2c-12.2,2.7-25.6,2.3-35.9,9.5c-0.7,1.7,1,2.1,1.6,3.1c11.5-1.4,23.4-6.1,35.8-3.8
		c2.6,4.5,0.4,10.1,0.3,14.8L588.1,313.6z"/>
	<path class="st0" d="M528.3,483.1c-3.6-5.5-1.3-12.8,2.2-17.8c1-1.3,2.4-2.6,4.1-2.6c3.2,7.5-0.4,15.2-5.3,20.4H528.3z"/>
	<path class="st0" d="M505.3,451.5c-6,10.3-8.1,23.7-6.1,36.2c-6-1.8-13.3-3.4-16.9-8.5l-4.6-31.4c2.9-6,5.7-12.3,10.3-17.6
		c10,4.3,15.1-10.7,25.4-5c2.7,1.4,4.9,3.8,6.2,6.6C521,441.8,508.8,444.5,505.3,451.5z"/>
	<path d="M508.7,321.6c-2.7,1.6-6.1-0.2-8.7-1.2c-6.6-4.6-6.4-13-5.5-20.4c1.1-4.7,2-10.4,7.4-12.3c3.4-1.6,6.7,0.5,9.7,1.3
		c6.6,5.6,6.6,15.7,4.4,23.7C514.9,316.4,512.2,319.7,508.7,321.6z"/>
	<path class="st0" d="M471.9,629.8c-8.2,3.5-18.6,3.9-28,2.6c6.4-13,9.3-31.7-0.9-44.1l1.4-1.3l25.3-1.3c9,3,14.2,12.9,15.3,21.3
		C486,617,480.1,624.9,471.9,629.8z"/>
	<path class="st1" d="M475.1,432.9c-2.6-3.4-4.1-8.5-4.7-12.9c3.7,0.8,7,2.5,9.3,5C478.6,427.9,477.5,430.6,475.1,432.9z"/>
	<path class="st2" d="M468.8,567.7c-0.8,3.7-2.2,7.3-6.3,8.2c-7.4,0.5-15.2,2.3-22.9,0.7c-2.8-6.5,3.5-19.1-7.2-18.7
		c-5.9,5.2-3.8,13.7-5.9,20.4c-11.5,3-23.6,2-33.4,1.4c2.1-26.2-6.6-54.1-28.7-72.5c-9.2-7.4-22-9.4-33.5-6
		c-6.1-0.1-12.4,12.1-17.2,2.2c2.5-5.7-6.1-9.6-2-14.5c20.9-12.3,59.2-22,54.7-55.1c-0.5-7.1-3.7-13.2-7.6-19.1l0.4-0.7
		c5,0.8,12.8-1.3,14.7,3.8c2.8,19.6,5.6,43.2,28,49.9c14.7,4.5,32.3,2.2,42.4-9.6c9.4-11.5,5.8-29.2,5.9-43.6
		c1.7-0.9,3.8-1.2,5.4,0.2c11.3,31.3,17.8,64.5,18.2,99.8C473.4,532.1,472.3,550,468.8,567.7z"/>
	<path d="M459.1,502.1c-5.1,0.9-10.1,0.7-14.4-1.7c-4.3-3.8-6.5-8.6-6.7-14c0.8-4.7,2.3-10,7.4-11.9c3.8-1.6,9.2-2.1,13.1-0.3
		c5.7,2.2,9.6,8.3,10.1,14C468.8,494.3,464.6,499.9,459.1,502.1z"/>
	<path class="st3" d="M469,344.8l-0.4,2.4L469,344.8z"/>
	<path class="st4" d="M455.9,495.6c-3.4,0.6-7.1,0.1-9.4-2.6c-2-2.4-2.6-5.8-1.8-8.8c0.7-2.3,3.5-4.3,5.8-4.9
		c4.8-0.9,8.4,1.2,10.3,5C463.2,488.4,461,494.8,455.9,495.6z"/>
	<path class="st0" d="M426,632.5c-10.3,6.8-23.7,5.8-36.5,6.1c-30.3-1.2-62.3,0.4-89.3-9.8c-12.9-8.5-9-26.2-8.3-40.3l1.7-1.6
		l27.2,2.1c17.6,9.6,42.9,20,61.1,5.3l3.8-3.6l44.8-0.8c8.2,6.6,9.3,18.1,6.6,28.1C435.7,623.7,430.8,629,426,632.5z"/>
	<path class="st1" d="M429.6,459.6c-11.2,4.1-27.4,3.6-35.9-6c-8.5-10.6-10.1-24.5-10.4-38c11.5-0.7,26.3-1,39.4-0.9
		c5,0.8,13.5-1.7,18.1,1.8C442.1,431,446,452.3,429.6,459.6z"/>
	<path d="M406,346.1c-7.3,6.9-18.3,4.9-27.3,3c-3.3-1.4-7.7-3.6-8.9-7.7c-0.9-4.1-1.1-8.8,2-12.1c7.6-7.5,20.8-8.5,30.8-4.6
		c3.6,1.8,6.6,5.9,7.1,9.6C410.3,338.8,408.8,342.8,406,346.1z"/>
	<path class="st5" d="M398.3,344.9c-6.1,2.5-14.9,2.3-20.5-1.6c-2.3-1.7-3.2-4.5-2.8-7.1c0.4-2.7,2.5-5.7,5.2-6.6
		c7.1-1.8,16.9-3.6,22.5,2.3C406.3,336.4,403.4,343,398.3,344.9z"/>
	<path d="M390.8,501.3c-2.8,2.6-5.8,3.9-9.5,4.1c-6.7-0.2-13.3-4.4-15.9-10.9c-1.3-4.1-1.1-8.8,1-12.4c2.1-3.6,5.9-6.2,10-6.8
		c4.4,0.1,8.8-0.1,12.4,2.6C394.9,483.6,397.7,495.1,390.8,501.3z"/>
	<path class="st4" d="M383.4,498.4c-3.1,0.6-6.7,0.5-9.4-1.6c-2.3-2.8-3.9-6.5-2.1-10.2c1.4-3.3,5.2-3.9,8.2-4.5
		c3.7,0.1,6.3,2.9,7.9,5.6C389,492.2,387.9,496.8,383.4,498.4z"/>
	<path class="st6" d="M376.8,585.1c-12.2,12.4-31.8,3.8-44.8-0.5c-13.7-5.7-31.2-18.7-32.4-35.2c0.2-6.7,3.7-12,7.9-17.3
		c3.4,0.4,5.3,4.8,8.6,5.6c3.4,0.8,7,1.9,10.1,0.3c2.7-1.3,5.1-3.9,5.9-6.6c2.9-7-3.8-10.9-7-16c5.5-5.6,14-8,22.1-6.1
		c19.4,4.6,28.2,26.3,34.2,42.3C383.7,563.7,384.8,575.6,376.8,585.1z"/>
	<path class="st7" d="M367.9,185.5c-11.9,2.7-24.2-1.3-35.3-4.3c-2.2-5.1,0.7-11.1,0.8-16.8c5.1-1.5,10.8-2.4,13.7-7.7
		c2.1-3.3,0.9-8.1,0-11.8c-1.6-3.4-4.9-6.5-8.6-8c-7.6-3.9-13.3,5.4-19.9,0.8c-2-2.1-7-3.9-4.5-7.5c8.8-12.2,19.7-29.8,35.6-32.7
		c6.4-0.1,11.7,3,14.9,8.1c8.9,21.1,18,43.9,13.7,68.4C376.5,178.7,372.7,183.6,367.9,185.5z"/>
	<path class="st1" d="M318.1,472.7l-1.7-0.4c-9-15.1-16.3-30.8-24-46.1c10.3-6.1,21.5-11.6,33.7-13.9c10.4-0.7,21.8,1.9,26.6,12.2
		c4.5,8.2,3.8,20.3-2.1,27.5C342.3,463.6,329.1,466.3,318.1,472.7z"/>
	<path class="st7" d="M335.1,154.7c-5.1,1.9-5.3-4.5-6.9-7.2c0.4-2.7,3.4-1.9,5.1-2.9c3.1-0.6,5.4,1.1,6.3,3.5
		C339.9,151.1,337.8,154.1,335.1,154.7z"/>
	<path class="st8" d="M321.6,531.8c-7.4-0.9-10.9-8.7-16.1-13.2c-0.9-2.4,2.8-4.3,4.5-6.3c5.3,3.9,9.9,8.4,14.1,13.9
		C325.8,528.2,324,531.5,321.6,531.8z"/>
	<path class="st7" d="M310.2,190.7c-8.2,4.8-19.7,3.9-26.9-2.1c-7.6-6.3-12.1-15.1-11.1-25.6c0.6-9.7,7.6-19.6,17.1-22.4
		c9.9-4.1,20.2,1.2,27.4,7.8c5.9,7.6,9.3,16.7,6.4,26.5C320.9,181.2,316,187.5,310.2,190.7z"/>
	<polygon class="st3" points="307.9,440.8 310.2,442.6 308.9,441.9 	"/>
	<path class="st0" d="M300.7,484.1c-0.5,4.7-0.6,9.4-3.7,12.7c-3.1,2.9-7.1,3.8-11.5,2.7l-8.9-6.3c-11.2,2.1-24.6,1.7-32.1-8.6
		c-4.9-6.5-5.9-17-2-24.7c7.8-15.2,24.6-24.2,39.2-30.3l1,0c9,15.7,18.7,31.4,25,48.1C305.1,480.5,301.8,480.4,300.7,484.1z"/>
	<path class="st2" d="M291.8,575.4c-11.7-17.1-11.1-38.7-7.5-59.8c3.4-1.3,5.3,4.2,9,3.9c3.4-0.6,5.3,2.5,7.6,4.6
		c-5.3,10.3-14.3,20.1-10.3,33.4c2.8,7.2,7,13.7,12.6,19.5C299.8,578,295.5,576.5,291.8,575.4z"/>
	<path class="st8" d="M299.9,511.7c-2.7,0.9-5.4,1.2-7.4-1.6c4.1-1.2,8.5-3.8,12.3-6.4C305.4,507.4,302.7,509.7,299.9,511.7z"/>
	<path class="st0" d="M302.1,129.2c-13.4-2-23.7,5.1-32.7,13.9c-10-5-20.3-8.6-32.4-8.9c-1.3-13.5,6.7-24.1,12.4-35.4
		c2.8-3.9,5.6-8.9,10.1-11.1c18.4,3.2,32.2,15.7,47.1,26.5C314.1,119.1,305.2,125.2,302.1,129.2z"/>
	<path d="M282.3,316.2c-4.1,0.9-8.4-0.3-11.1-3c-5.6-5.5-4-15.3-3.1-22.3c0.8-3.7,4.3-7.9,8-9.2c3.8-0.9,7.1,0.2,9.7,2.6
		c5.9,6.5,5.3,16.3,3.4,24.3C288.1,312,285.7,314.6,282.3,316.2z"/>
	<path class="st7" d="M268.3,219.6c-5.9,5.6-13.1,11.8-21.8,8.5c-13.3-6.8-21.7-20.4-30.8-32.2c-5.8-11.6-15.9-23.3-10.8-37.3
		c6-10.3,18.2-14,29.3-14.4c9.7,1.3,20.5,2.9,28.8,7.9c1.2,3.8-0.9,7.7-1.3,11.8c-6.5,2.5-12.7,7.4-15.9,13.7
		c-0.8,4-0.9,7.7,1.4,10.8c3.5,5.8,9.5,9.4,16.3,7.9c3.4-0.6,5.5-3.9,9.2-3.5C288.1,199.5,272.3,211.9,268.3,219.6z"/>
	<path class="st0" d="M269.7,546.9c-9.7-0.2-21.2-0.5-27-9.1c-0.2-3.7-0.8-8.1,1.9-10.7c7.3-5.9,17.2-0.9,24.9,0.6
		C270.7,534.1,269.8,540.2,269.7,546.9z"/>
	<path class="st7" d="M261.1,188.7c-3.4,0.2-6.4-1.9-7.6-4.9c-1-2,0.5-4.7,1.5-6.7c2.1-2.3,4.5-3.9,7.5-3.9
		C263.7,178,272.2,188.3,261.1,188.7z"/>
	<path class="st8" d="M240.5,442.4c-0.9-3.7,1.9-7,4.9-8.6c1.7-0.6,3.7-1.6,5.1-0.2L240.5,442.4z"/>
	<path class="st9" d="M499.2,409.9"/>
	<path class="st0" d="M522.7,442.9l-0.1-11.3c-1.6-4.3-6.1-7.3-10.4-8.1c-4.6-0.6-8.2,1.8-12.3,4.2c-3.7,1.3-8.4,3-11.9,2.5
		c-5.1,7.8-5.7,8.2-9.8,16.8c-1.4,2.9,3.2,35.3,4.5,38.2c10.3,4.8,21.6,8,32.9,6.3c8.6-1.3,16.5-8.6,19-16.6
		C538.6,462.4,531,451,522.7,442.9z"/>
</g>
</svg>
