<?xml version="1.0" encoding="utf-8"?>
<!-- Generator: Adobe Illustrator 24.0.0, SVG Export Plug-In . SVG Version: 6.00 Build 0)  -->
<svg version="1.1" id="Layer_1" xmlns="http://www.w3.org/2000/svg" xmlns:xlink="http://www.w3.org/1999/xlink" x="0px" y="0px"
	 viewBox="0 0 771.9 724.9" style="enable-background:new 0 0 771.9 724.9;" xml:space="preserve">
<style type="text/css">
	.st0{fill:#FFFFFF;}
	.st1{fill:#FFF100;}
	.st2{fill:#009345;}
	.st3{fill:#90278E;}
	.st4{fill:#FFDECF;}
</style>
<g>
	<path d="M123.9,375.8c7.2-3,13-9.2,20.5-12.3c7.2-2.7,14-8.5,22.5-7.5c4.4,8.5,8.2,17.4,11.2,26.6c-6.8,8.2-18.8,10.2-24.9,20.1
		l0.3,4.1c5.1-1.3,9.2-5.4,14-7.8c5.8-1.7,11.3-8.2,18.1-5.1c6.5,7.8,12.6,15.7,19.8,22.5c-0.7,3.7-4.8,4.8-7.2,6.5
		c-13.3,7.8-27.9,18.1-36.8,31.4c-1.1,2,0,4.4,2,5.1c7.9-2.4,11.9-11.3,18.8-16c10.3-6.1,19.1-15.7,31.1-18.8
		c7.8,2.4,14,8.2,21.5,11.3c13.3,6.5,27.3,11.3,42.7,13.6c3,2.7-0.4,7.8-1.4,10.9c-5.1,7.5-11.3,21.1-21.8,19.1
		c-12.6-6.2-26.6-17.1-41.2-8.9c-9.2,6.2-12.6,16.7-10.2,27.3c3,13,18.4,20.1,24.6,31.4c-4.4,17-1.7,34.8-2.4,52.5
		c1.7,24.5,13.3,51.1,38.2,60c32.1,13.6,70.3,7.9,104.4,3.4c24.6-3.1,44.7-17.4,68.9-22.2c13-4.1,27.3-15.7,31-29.7
		c2.4-7.9,2.8-17.4-1-24.9l0.3-1.3c21.5-7.5,43.3-14.7,61.1-31.4c7.8-7.8-0.7-17.1-0.3-25.9c27.2-26.6,54.6-57,82.9-85.3
		c14.3,1.7,29-4.8,36.9-18.1c5.1-11.2,6.5-28-2.4-38.2c-7.8-7.8-20.8-7.8-30.7-5.1c-11.3,4.4-23.9,12.6-29,24.6l-0.7,10.6
		c-17.8,8.8-34.8,19.8-52.9,27.6c0.7-16.7-6.8-33.8-20.1-45c4.1-5.1,10.6-8.5,15.4-14.3c6.8-5.5,10.2-14.3,18.1-17.4
		c14.7,5.1,28.6,11.9,41.3,22.5c1.4-0.3,3.1-2.1,2.8-4.1c-3.5-7.8-11.6-10.6-17.7-15.7c-7.2-4.5-15-7.2-22.2-10.9
		c-2.4-6.5,2.4-12.3,5.1-18.1c1.7-3.4,6.1-2.4,8.8-1.7c7.2,2,13.7,6.5,20.8,6.8c0.7-0.7,1.4-2,0.7-3.1c-8.2-7.8-20.8-7.5-26.9-17.1
		l1.7-28c5.5-4.1,14-1,20.1-0.7c9.6,2.4,18.4,6.5,28.3,8.5c2.4-0.7,2.7-3.4,1-5.4c-13.6-10.9-31.4-10.9-47.8-14.3l-4.1-4.1
		c-6.5-35.5-22.5-67.2-47.8-94.8c-2.7-32.1-14.3-61.4-37.5-85.6c-6.1-5.1-11.9-10.9-20.5-8.5c-25.9,8.2-45.7,29-64.4,50.5
		c-11.3,4.4-24.9,3.7-36.6,7.2c-12.9,3.4-25.2,8.2-37.5,12.6c-15.3-16.4-32.7-37.2-56.3-32.4c-13.6,1-22.9,15.7-26.9,27l-3.4,1
		c-24.6-3.1-52.9-4.8-75.7,2.7c-7.2,4.4-6.2,12.6-7.5,19.5c0.7,20.5,4.1,41.6,10.2,60.7c-6.5,8.2-8.9,21.5-3.7,30.7
		c1.4,14.3,26.3,19.8,18.1,35.8c-4.1,16.4-4.1,35.8-2.4,52.6c-5.1,8.2-16,7.1-23.2,12.6c-7.1,4.8-16.7,8.2-20.8,16.7
		C119.9,374.5,121.9,375.8,123.9,375.8z"/>
	<path class="st0" d="M163.2,214.5l1.7,1.4c8.2-3.7,16.7-6.8,25.6-8.9c3.7-15,17-30,32.8-33.4c2.4-5.5,1-11.6,2.4-17.7
		c-1.7-3.8-6.8-2.4-10.2-3.8c-19.5-1-40.6-4.4-58,3.1c-6.1,9.2-2.4,21.5-1.4,32.1C157.7,196.8,159.4,206,163.2,214.5z"/>
	<path class="st1" d="M196.6,283.7c9.9,3.4,23.9,8.9,32.8-1c8.2-8.2,8.2-19.4,6.8-31c-4.4,0-9.9-1-14.3-0.7c-3,4.8-8.2,8.5-13.3,9.2
		c-5.5-0.3-10.9-1-14.3-6.1c-3.1-3.4-3.1-8.5-2.4-12.6l4.1-10.6c-2.4-3.8-2.4-9.2-6.5-11.6c-12.6,3.1-29.3,7.2-32,22.2
		C159.1,261.2,179.9,275.5,196.6,283.7z"/>
	<path class="st0" d="M179.6,340.7c12.3,1.3,26.2-3.1,38.6,1.3c1.7,1.4,1.7,3.4,0.3,4.8c-6.8,3.1-12.9,0-20.8,1.4
		c-5.8,1-14,0-16,5.8c1.3,8.2,4.7,15.7,8.5,22.9l3.8,2c8.5-0.3,17.8-7.5,26.9-2.4c-4.4,7.8-16.4,5.1-21.8,12
		c3.1,9.5,12,17.4,20.5,21.5c8.2,0,14.7-6.5,23.5-4.8c1.4,1,1.7,2.7,1,4.1c-4.7,3.7-10.2,5.5-15.4,7.5l0.4,1.7
		c53.2,33.1,129.9,26.9,183.2-2.7l23.2-7.8c2-8.9,3.1-18.4,9.9-25.6c13.7-14.3,35.5-16.7,53.5-9.9c12-3.4,22.5-15.7,30-25.9
		c-0.7-4.1-5.8-3.7-8.9-5.1c-5.4-1.4-12.9-1.1-15.7-6.5c2.4-5.5,8.9-2.8,14-3.1c5.8,0.7,11.6,5.1,17.4,1.7c3.1-4.4,4.8-9.2,6.2-14.7
		c-2.4-5.4-9.2-3.4-13.6-5.4c-4.1-0.3-8.2,0-10.9-3.1c-1.4-3.1,2.4-2.7,3.7-3.8l21.9-0.3c4.8-5.8,2-15.3,3.4-23.2
		c-3.1-10.2-15-1.7-22.2-2.7c-4.1,1-9.5,3.1-13-0.4c-1.3-1-0.6-3.4,0.7-4.4c9.2-4.4,20.5-4.8,30.7-7.8c3.4-3.7,0.7-8.5,0.7-13.3
		c-8.5-33.4-26.6-64.8-57-87.7c-1-2-2.7-4.4-1-6.8c2.1-6.2,10.2,2.4,9.9-4.8c-3.8-23.9-13.3-45.4-31.4-63.5
		c-9.9-10.9-20.8,1.7-30,5.1c-15.7,9.9-28.3,25.9-39.2,40.3c-21.5,4.8-44.4,5.1-63.8,14.3c-3.4,2.4-8.2,2.4-10.3,6.5
		c7.5,17.4,16.4,41.6,3.1,59.4c-14.7,13.7-36.9,14-57,11.6c-4.4,6.8-11.3,15-18.8,19.1c0.4,16.4,0.7,33.5-11.6,44.4
		c-14.7,12.6-36.2,5.8-51.2-1.7c-1.4-0.7-2.8-2-4.5-1.7c-5.1,15.4-6.8,35.1-2.4,50.5L179.6,340.7z"/>
	<path class="st1" d="M204.8,252.7c3.1,0.7,7.2-0.7,8.5-4.1v-1c-4.5-1.7-7.5-5.8-11.9-7.2C197.3,244.1,199.3,252,204.8,252.7z"/>
	<path class="st1" d="M215.1,237.7c8.9,5.1,20.8,4.8,29.6-0.4c9.9-5.8,14.7-16.4,14-28c-1.7-9.9-8.9-20.8-19.1-23.9
		c-10.9-4.1-22.8-0.7-30.3,7.5c-7.2,7.5-10.6,17.4-7.5,27.6C203.1,227.8,208.6,233.9,215.1,237.7z"/>
	<path class="st0" d="M230.4,515.7c3-3.7,4.8-9.5,7.8-14.3l9.5-11.9c-1.7-4.1-7.2-6.5-10.9-8.5c-6.2-2.4-15-5.8-20.5,0.3
		c-2.4,2.7-4.1,5.5-4.5,8.9C211,502.1,222.2,509.5,230.4,515.7z"/>
	<path class="st1" d="M242.7,175.9c6.8-2.4,12.6-8.8,21.1-6.8c5.8,1.4,10.9,6.5,13.3,11.9c3.1,9.6-2.7,17.1-8.8,23.2
		c3.4,4.8-5.1,16.4,6.1,14.7c15.4-0.4,36.2,2.1,43.3-14.7c4.1-29.7-13-54.9-35.4-73.3c-7.9-5.5-19.1-10.6-28.7-5.1
		c-13.6,10.2-16.4,26.9-18.8,42.3C232.1,174.6,238.9,174.9,242.7,175.9z"/>
	<path class="st0" d="M261.4,628.6c38.2,19.8,90.8,10.2,130-1c13.6-4.1,19.8-18.4,21.1-31.4c-0.7-9.2-1.4-19.1-9.9-24.2l-7.2-1.4
		c-41.3,13.6-96.9,20.5-137.5,0.7c-7.2-2.8-13.6-7.2-20.8-9.9c-3.4,11.6-1,23.5,0.7,34.8C240.3,609.5,249.2,621.8,261.4,628.6z"/>
	<path class="st2" d="M247.1,554.3c35.5,21.8,89.4,24.9,128.9,9.9c-5.4-2.7-11.6-6.8-17.1-11.3c-7.8,10.9-20.1,17.4-34.1,15.3
		c-11.2-1.4-22.2-9.2-27.6-19.8c-10.2-23.5-14-53.9-7.2-80.5c1.4-5.1,3.8-10.2,7.2-14.7c-1-1.7-3.4-1-5.5-0.7
		c-6.9,11.9-13.3,24.6-24.9,34.8c-19.8,11.9-27.6,32.4-31,52.9C233.8,548.4,242.3,550.8,247.1,554.3z"/>
	<path class="st1" d="M264.2,194c2.7,0.4,4.8-3.1,5.5-5.4c0.7-3.8-1-6.5-2.7-9.2c-2.7-2.4-7.2-3.1-10.6-1.7
		c-1.7,0.7-4.1,2.7-3.1,4.4C257.3,185.2,261.4,189.6,264.2,194z"/>
	<path d="M274.4,368.7c3.8,1.7,8.2,0.3,11.6-1.7c4.5-3.8,4.1-10.2,3.1-15.7c-1.3-6.8-5.1-14.3-12.3-16.7c-3.7-0.7-7.2,1-9.9,2.7
		c-5.8,5.1-3.4,13.6-2.1,19.8C266.2,361.8,270,366.3,274.4,368.7z"/>
	<path class="st2" d="M296.5,500.7c17.1-1.4,34.2-6.2,51.2-9.2l1-1.7c-4.4-13.3-6.1-29-20.5-36.8c-5.5-2.4-12.3-1-17.1,1.4
		C296.5,465.2,295.2,483.6,296.5,500.7z"/>
	<path class="st0" d="M316.7,555.6c8.2,4.4,19.8,5.1,27.7-0.7c6.8-5.8,9.2-14,10.9-22.6c3.7-2.7,9.2-4.8,10.9-9.8
		c0.7-4.5,0.4-9.6-3.4-12.6c-3.1-3.4-9.9-2-10.6-8.2l-3.4-0.7c-17.4,3.4-35.1,5.5-51.5,10.3C299.6,528,301.4,545.4,316.7,555.6z"/>
	<path class="st2" d="M352.2,464.5c4.8-6.8,17-9.5,16.4-19.4l-26.6,5.1l8.5,14.3H352.2z"/>
	<path class="st3" d="M359.7,490.8h1l8.2-10.9l-3.4-14.6c-5.2,0.6-8.9,6.5-10.3,10.9C357.3,480.9,356.6,486.7,359.7,490.8z"/>
	<path class="st3" d="M373,552.2c4.4,2.4,9.2,5.2,14.7,4.5c0.7-4.1-1-8.9-2.4-13.3c-5.4-2.7-11.3-4.8-15.4-9.2
		c-3.1,2.4-6.8,3.4-7.5,7.5C363.4,546.7,369.2,549.5,373,552.2z"/>
	<path class="st2" d="M376.4,517.4c1.4,4.4-4.5,12.6,4.4,14h1.7c-2.7-13.3-6.1-26.2-10.6-38.9c-3.4,1.4-4.4,4.8-5.8,7.5
		C370.2,505.5,375.7,510.6,376.4,517.4z"/>
	<path class="st3" d="M383.2,477.1c12.6,9.9,32.1,9.9,48.1,6.5l3.4-4.8l15-47.1c-2.7-4.8-7.8-7.5-10.6-12.6c-21.8,5.5-44,12-59,31.4
		C374.3,458.1,374,471.7,383.2,477.1z"/>
	<path d="M385.9,354.7c8.9,3.4,18.4-0.4,25.3-6.5c3.1-3.4,5.5-7.5,4.4-12.3c-0.7-4.4-3.7-8.9-7.8-10.6c-8.5-2.7-18.7,1.4-25.2,7.2
		c-2.4,3-4.4,6.5-4.4,10.2C378.8,347.5,380.8,352.6,385.9,354.7z"/>
	<path class="st3" d="M401.3,558c20.5,11.6,48.4,3.4,70.6-3.4c15.4-6.5,31.7-12,45-23.9c6.1-6.5,0-15.7-1.3-22.8
		c-13.3-6.2-22.2-20.1-27-32.8c-30.7,15.7-69.9,27.3-104.7,16.4C390.1,513.6,392.7,536.8,401.3,558z"/>
	<path class="st4" d="M390.3,348.9c5.5,1,10.6-0.7,15-4.1c2.7-2.4,4.5-6.5,2.7-10.2c-2.4-3.8-8.2-3.8-11.9-2.8
		c-4.4,1.7-9.2,3.7-10.6,8.9C385.3,344.5,387,347.9,390.3,348.9z"/>
	<path class="st0" d="M458.3,589.7c1-6.4,3.1-15-3-19.4c-11.6,2.7-23.6,5.1-35.8,4.4c5.4,12.3,4.4,29.7-0.7,41.9
		C434.4,615,453.5,607.4,458.3,589.7z"/>
	<path class="st3" d="M447.3,480.2c13.6-2.7,25.9-8.5,37.8-16c-0.6-4.1,4.1-9.9-0.3-13.7c-8.9-2-17.4-8.5-21.8-17.1
		c-0.7-0.7-2.1,0-2.7-0.3l-14.6,44.3C446,478.5,446,479.9,447.3,480.2z"/>
	<path class="st0" d="M451.1,418.1c5.5,10.2,16.4-0.3,20.8,10.2c4.1,8.2,13,14.3,21.8,15.3c9.6,0,16.4-6.8,24.2-11.2
		c4.8-7.2,4.1-18.8,0.3-26.6c-7.2-17.1-24.6-27-42.6-26.6c-10.9,0.3-21.5,5.8-26.3,16.1C445.7,402.1,445.3,412.3,451.1,418.1z"/>
	<path d="M482.1,306.9c3.7,0.7,6.8,0.3,10.2-1.7c4.1-3.1,4.8-7.8,4.5-13c-1.7-5.8-2.1-12.6-7.5-16.7c-3.1-2-7.2-3.1-10.6-1.7
		c-3.7,1.4-7.2,5.4-7.5,9.2C471.2,292.6,474,301.8,482.1,306.9z"/>
	<path class="st3" d="M521.4,497.6c7.9,0.4,11.6-7.8,17.8-12.6c19.1-22.2,43.7-43.3,62.4-65.5c-7.5-2-12-15.7-20.8-8.2
		c-27.3,16-55.9,27.6-82.2,45.7c-2.7,3.7-1,9.2,0,13.3C502.6,480.9,509.1,494.2,521.4,497.6z"/>
	<path class="st3" d="M597.6,398.7c8.5,1.4,16.7-1.3,23.5-5.8c2.4-1.3,5.1-3.8,4.1-2.7c5.5-4.1,13-9.9,10.9-17.4
		c-7.2-5.1-19.1-3.4-25.9,1c-7.9,5.1-18.8,11.3-17.1,21.8L597.6,398.7z"/>
	<path d="M604.3,395c2,0.3,4.1-1.4,4.7-3.4c0.7-3.1-2-4.8-4.4-5.4c-2.4,0.3-4.1,2-4.5,4.1C600.1,392.9,601.8,394.3,604.3,395z"/>
	<path class="st3" d="M623.7,414.7c6.8-2.1,13-6.2,16.7-13c2.4-4.4,3.1-10.6,2.7-16c-4.1,2.7-6.8,8.2-11.6,10.9
		c-9.2,7.5-19.4,10.9-31.4,10.9C606.3,413.7,614.5,417.4,623.7,414.7z"/>
	<path d="M613.8,382.3c2.1,0.4,4.5-1.4,5.2-3.4c0-2-1.4-4.1-3.4-4.4c-2.8-0.7-4.8,1-5.5,3.1C609.7,379.9,611.8,381.6,613.8,382.3z"
		/>
	<path d="M619,392.2c2.1,0.3,4.5-1.4,5.2-3.4c0-2-1.4-4.1-3.4-4.4c-2.8-0.7-4.8,1-5.5,3.1C614.9,389.8,616.9,391.5,619,392.2z"/>
	<path d="M627.5,381.3c3.1,1,6.1-1,6.8-3.7c0-2.4-1-3.8-3-5.1c-2.7,0-5.5,0.7-6.5,3.1C624.7,377.9,625.1,380.3,627.5,381.3z"/>
</g>
</svg>
