<?xml version="1.0" encoding="utf-8"?>
<!-- Generator: Adobe Illustrator 24.0.0, SVG Export Plug-In . SVG Version: 6.00 Build 0)  -->
<svg version="1.1" id="Layer_1" xmlns="http://www.w3.org/2000/svg" xmlns:xlink="http://www.w3.org/1999/xlink" x="0px" y="0px"
	 viewBox="0 0 771.9 724.9" style="enable-background:new 0 0 771.9 724.9;" xml:space="preserve">
<style type="text/css">
	.st0{fill:#694318;}
	.st1{fill:#FFFFFF;}
	.st2{fill:#ED9CBA;}
	.st3{fill:#F0D4B8;}
</style>
<g>
	<g>
		<path class="st0" d="M644.7,326.3c-4.3-9-11.9-16-21-19.3c-8.5-3-17.5-2.6-25.5,1.1c-3,1.4-5.8,3.3-8.1,5.5
			c-5.2-4.6-11.1-8.5-17.5-11.5c-5.2-2.4-10.7-4.1-16.2-5.3c0.6-5.1,1.3-11.5,1.2-14.6c-0.2-5.5,4.2-4.9,7.9-5.4
			c3.7-0.5,22.9,0.4,28.8,0.1c13.5-0.5,7.4-9.5-1.5-10.6c-7.3-0.8-25.2-1.7-29.8-1.6c-4.3,0-6.1,0.9-6.2-5.5
			c-0.2-13.1-4.9-30.4-10.5-45.2c1.6-2.2,3.1-4.4,4.5-6.7c15.8-28.7,5.1-49.7-2.4-56.4c-2.6-2.5-5.6-4.7-8.7-6.5
			c-1.5-26.8-8.5-53.4-21.8-60.1c-12.8-5.4-51,2.9-72.6,13.4c0-0.1-0.1-0.1-0.1-0.2c-6.8-9.5-24.8-29.4-50.5-21.4
			c-12.5,4.9-22.9,15.3-31.4,30.8c-32.7,1.1-59,4.6-72.6,7.9c-2.8,0.7-6,0.4-8.8-1c-21.1-10-35.9-16.3-63-19.8
			c-16.9-2.2-23.4,6.5-29.4,16.5c-15,27.7-13.6,60.6-4.9,83.3c2,6.2,0.9,5.9-3,13.4c-9.2,17.9-16.7,42.8-15.5,71
			c0.1,3.2-4.1,3.3-6.4,3.4c-7.7,0.5-22.2,2.1-28.7,4c-11.2,3.4-9,12.7,1.2,10.5c3.9-0.9,25.8-2.5,29.4-2.3c3.7,0.2,5.1-1.1,6,3.7
			c1.1,6,4.5,19.4,6,23.6c1.2,3.2,0.8,3.6-2.9,4.8c-3.8,1.3-11.5,3.8-16.2,5.3c-7.4,2.2-7,10.9,1.3,9.5c6-1,12.7-2.4,18.1-3.2
			c4.7-0.7,6.2-0.2,8.3,4.1c2.7,5.2,8.2,13.2,12.1,17.9c2.2,2.7,0.6,4.1-2.6,5.5c-3.2,1.4-21.7,12.5-26.3,17.8
			c-7.1,8.1,0.9,12.6,7.2,7.7c8-6.2,22.1-13.8,27.5-16.5c3.9-1.9,5.4-2.6,8.6,0.3c11.3,10.2,25.5,18.2,41.4,24.4
			c4.7,1.8,9.5,3.5,14.3,5c-5.5,5-9.2,12.1-10.5,20.4c-0.5,3.1-0.7,6.2-0.7,9.3c0,5.6,0.8,11.2,2.4,16.8
			c-19.6,45.4-41,103.2-38.7,114.1c0.7,3.2,2.7,5.5,5.5,6.4c4.3,1.4,17.3,2.7,35.3,3.7c-1,1.9-2.1,3.7-3.2,5.5
			c-4.5,7.5-9.5,16-9.5,29.1c0,10.8,4.2,20.2,12,27.2c14.4,12.9,38.4,15.3,56.1,13.3c34.6-4,49.6-20.4,56.1-38.4
			c6.5,18,21.5,34.4,56.1,38.4c17.7,2,41.7-0.4,56.1-13.3c7.9-7,12-16.4,12-27.2c0-13.1-5.1-21.6-9.5-29.1c-1.1-1.8-2.2-3.6-3.1-5.4
			c13.2-1,22.9-2.3,27.5-3.8l0,0c2.9-1,4.8-3.5,5.4-6.7c1.3-6.9-6.2-29.6-16.9-56.1c1.5-0.5,3-0.9,4.5-1.5
			c9.8-3.9,17.5-9.8,22.9-17.2c6.3,2.1,11.7,3.6,15.3,4.1c3.1,0.4,6-0.6,8.2-3c3.5-3.7,4.9-11.5,5.3-20.8c11.5,1,22.9-0.4,30-5
			c8.2-5.2,12.6-14.6,11.1-23.3c-1.2-6.7-5.7-12.1-12.6-15.3c12.5-5.1,22.2-14.5,28.2-27.2c3.2-6.8,5.1-14.3,5.8-22
			c4.7,0,9.4-1,13.9-3.1C646.4,365.7,653.3,344.4,644.7,326.3z"/>
	</g>
	<path class="st1" d="M510.2,484.2c-9.4-3.7-19.5-8.1-28.9-12.8c3.5,7.8,7,15.8,10.2,23.5c1.5-0.4,3.1-1,4.6-1.6
		C501.9,491.2,506.6,488,510.2,484.2z"/>
	<path class="st1" d="M459.1,424.9c0.2-0.2,0.5-0.4,0.7-0.7c-0.7-0.6-1.4-1.2-2-1.8C458.3,423.3,458.7,424.1,459.1,424.9z"/>
	<path class="st1" d="M360.1,577.4c-31.2-0.2-62-0.9-86.7-1.9c-1.9,4.5-4.2,8.4-6.4,12.1c-4.2,7-7.5,12.6-7.5,21.8
		c0,6.8,2.4,12.3,7.3,16.7c9,8,26.7,11.9,45,9.8C357,630.5,360,602.2,360.1,577.4z"/>
	<path class="st1" d="M427.1,635.7c18.4,2.1,36.1-1.7,45.1-9.8c4.9-4.4,7.3-9.8,7.3-16.7c0-9.2-3.3-14.8-7.5-21.8
		c-2.1-3.6-4.4-7.4-6.3-11.8c-24,1.2-55,1.7-86.8,1.7C378.8,602.3,381.8,630.5,427.1,635.7z"/>
	<path class="st2" d="M499.4,558.5c-2.6-14.2-21.3-60.3-38.6-98.2c-5.8-3.6-10.3-6.9-12.7-9.7c-1.4-1.7-2.1-3.7-2.1-6
		c0-0.8,0.1-1.6,0.3-2.5c0.4-1.9,1.5-4,3-6.2c-4.6-9.3-8.8-17.2-12.1-22.6c-6.1,1.1-12.4,2.1-19.1,2.8c-6.8,13.5-20.8,23.8-38,27.6
		c3.2,4.5,4.9,10,4.9,15.8c0,3-1,6.1-1.9,9.1c3.2,6.4,5.4,13.8,5.4,21.4c0,8.5-2.5,17-8.8,23.9c-13.8,14.9-39.1,25.7-81.3-7.6
		c-15.6-12.3-27.2-24.9-34.7-37.6c-15,36-30.2,76.2-32.4,89.6C266.5,563.7,462.6,565.6,499.4,558.5z M431.4,445.8
		c11.5,0,20.9,9.4,20.9,20.9c0,11.6-9.4,21-20.9,21c-11.6,0-21-9.4-21-21C410.4,455.2,419.8,445.8,431.4,445.8z"/>
	<path class="st1" d="M431.4,478.5c6.5,0,11.7-5.3,11.7-11.7c0-6.5-5.2-11.7-11.7-11.7c-6.5,0-11.7,5.2-11.7,11.7
		C419.7,473.2,424.9,478.5,431.4,478.5z"/>
	<path class="st1" d="M371.4,418.5c-15.8,0.1-30.5-0.7-44.5-2.1c7.1,9.1,19.2,15.6,33.4,16.8c0.9,0,1.7,0,2.5,0.2
		c0.9,0,1.7,0.1,2.6,0.1c15.7,0,29.6-6.4,37.7-16.1C393.4,418.1,382.9,418.5,371.4,418.5z"/>
	<path class="st1" d="M462.9,132c10.7,2.7,16.7,6.1,20.6,9.5c3.3,2.9,3.8,3.5,9.8,1.6c4.5-1.4,22.3-4.9,32.1-3.4
		c-1.9-22.5-8.1-40-15.9-41.7c-13.7-2.2-37.1,4.2-56.8,13.4c1.9,4,3.5,8.1,4.9,12.3C459.5,128.3,458.4,130.9,462.9,132z"/>
	<path class="st1" d="M298.9,397c52.5,9.8,104.7,8.8,144.6-0.1c-0.4-5.2,0.9-10.2,4-14.2c5.4-7,14.8-9.4,24.5-6
		c0.3,0.1,0.6,0.2,0.8,0.3c-4.7-13.3-4.4-27.4,1.9-41c3.2-6.8,7.7-13.1,13.2-18.5c-3.1-3.7-5.5-8-6.8-12.8
		c-4.8-18.3,7.1-37.3,26.5-42.3c9.6-2.5,19.9-1.2,28.3,3.7c0.6,0.3,1.1,0.8,1.6,1.2c0.9-0.2,1.8-0.4,2.4-0.6c1.7-0.5,3.1-1,3-5.7
		c-0.2-10.7-2.8-22.5-7-34.6c-12.7,12.5-27.8,19.6-41.5,18c-20.1-2.4-30.2-20.2-34.3-26.7c-2.3-3.5-1.6-4.6-7.1-4.7
		c-8.9-0.2-25.4-9.1-30.2-18.1c-3.4-6.4-5-3.7-14.3-0.6c-15.4,5.1-29.4,4.6-41-2c-24.8-15.1-19.1-49.4-14.3-62.2
		c0.9-2.5,1.8-4.8,2.7-7.2c-29.3,1.4-54.8,4.8-63.3,7.4c-7.6,2.3-10,2.8-18.6-2.7c-18.1-10.9-53.3-23.6-64.6-16.6
		c-10.2,6.3-23,38.9-12.6,67.5c1.6,3.7,2,2.5,4.7,0.5c4.4-3.4,9.7-0.1,9.3,5c-0.3,4-5,9.6-8.9,15.8c-13,20.9-21.3,50.5-21.5,70.9
		c-0.1,8.1-0.7,10,5.3,10.3c7.3,0.3,18,1.5,20.6,3.8c2.5,2.2,1.7,7.3-2,8c-4.4,0.8-12.1,0-16.2,0.1c-4.1,0-6-0.4-5.8,3
		c0.2,2.8,3.3,15.6,6.1,22c0.9,2,1.8,3,2.9,3c2,0,6.2-0.1,11.7-0.8c5.7-0.6,8.4,3.5,6.7,5.8c-1.9,2.5-6.9,3.8-11,4.8
		c-4,1-4.1,2-3,4.3c1.2,2.4,5.5,11.1,10.9,16.5c3,2.9,3.8,3.8,7.9,2.2c3.4-1.3,10-3.6,12.7-3.7c4.6-0.3,6.3,3.7,5.1,6.1
		c-1.2,2.4-4,3.9-6.8,5.1c-2.8,1.2-6.1,2.8-2.8,5.6C236.7,378.6,263,390,298.9,397z M459.1,284.3c8.5-0.1,14,5.5,14,18.3
		c0,9-4.9,18-12.9,18c-10.1,0-14.9-7.5-15-18.6C445.3,295.7,448.8,284.4,459.1,284.3z M365.6,317.9c14.3-0.1,22.1,9.2,22.1,16.5
		c0,8-6.4,16.4-20.4,16.5c-14,0.1-23.7-5.4-23.8-17C343.6,326.3,350.5,318,365.6,317.9z M266.6,321.6c-10.1,0.1-14-8.4-14-15.8
		c0-8.3,2.7-20.7,14.3-20.8c11.6-0.1,13.7,11.8,13.7,18.9C280.7,310.9,276.7,321.5,266.6,321.6z"/>
	<path class="st3" d="M366.1,342.7c7,0,11.3-2.6,11.3-7.6c0-5.3-5.4-8.3-12.3-8.3c-6.9,0-11.9,2.9-11.9,8
		C353.3,339.4,358.8,342.7,366.1,342.7z"/>
	<path class="st2" d="M362.4,159.5c2.2,18.6,15.3,28.6,38.7,23.8c5.8-1.2,11.7-3.2,13.7-5.2c2-2,1.9-5.3,1-6.7
		c-1.3-2.2-17.7-6.3-15.5-25.1c1.7-14.7,15.3-19.1,19.4-19.5c10.2-1,17.9,5.9,19.5,7.2c1.6,1.3,6.3-1.3,5.6-5.3
		c-1.9-9.8-10.9-21.9-15.8-28.1c-3.1-4-13.6-14.5-28.2-11.2C378.6,96,360.7,134.1,362.4,159.5z"/>
	<path class="st2" d="M417.2,139.5c-4.8,2.5-5.5,6.3-5.8,10.1c-0.5,5.9,7.3,11.5,8,8.5c0.9-4.2,7.2-14,9.8-15.8
		C430.6,141.4,423.2,136.4,417.2,139.5z"/>
	<path class="st2" d="M468.5,197.6c6.4-3.6,13.7-11.2,15.3-23.8c2.4-15.4-13.5-35.5-37.4-27.5c-9.7,3.3-15.7,12.1-17.1,23.2
		C426.3,192.5,450.7,207.7,468.5,197.6z"/>
	<path class="st2" d="M512.9,153.1c-5.2,0.3-12.6,2-15.9,3.7c-2,1.1-2.1,2.4-1.6,6.3c0.4,2.7,0.2,5.2,2.9,6.6
		c3.3,1.6,8.9,4.9,12.2,12.3c3.1,6.9,0.2,16.5-4.5,21c-5.7,5.4-16.7,6-23.7,2.9c-2.6-1.1-4.4,0.8-7,2.3c-3.5,2-4.8,2.8-3.5,5.4
		c2.5,5,8.3,13.2,17.4,16.1c13.8,4.5,27.3-1,43.5-19.7c9-10.5,18.2-30.2,10.9-43.8C536.1,152.3,518.1,152.8,512.9,153.1z"/>
	<path class="st2" d="M496.8,196.8c3.4-1.8,5.7-6,3.5-10.5c-1.5-3.1-4.5-5.5-5.3-3c-1.1,3.1-3.9,8.8-5.9,12.1
		C487.3,198.4,493.4,198.6,496.8,196.8z"/>
	<path class="st3" d="M468.6,416.8c6.6-5.2,13.7-10.2,20.3-14.5c-6.7-7-14.7-12.8-20.7-14.9c-5-1.7-9.4-0.9-11.7,2.2
		c-2.9,3.8-2.1,9.9,2,16C461.1,409.6,464.7,413.4,468.6,416.8z"/>
	<path class="st3" d="M571.9,434.9c-6.6-1.4-14.1-1.8-21.3-1.5c1,7.7,2,16.4,2.3,24.8c9.8,0.9,19.2,0,24-3.1c4.3-2.7,6.7-7.5,6-11.6
		C582.2,439.3,578.3,436.2,571.9,434.9z"/>
	<path class="st3" d="M538.6,428.5c-7.1-1.6-14.2-4-21.4-7.4c-7.1-3.3-13.4-7.1-19-11.4c-17.3,10.8-38.3,27.7-40.4,34.2
		c10.7,10.8,64.3,34.7,82.1,37.9c1.3-2.4,1.9-8.1,1.9-15.7C541.7,455.7,540.6,441.8,538.6,428.5z"/>
	<path class="st3" d="M540.9,295.4c0.1-2.1,0-4.2-0.5-6.2v0c-1.4-5.5-5.1-10.3-10.3-13.3c-5.7-3.4-12.9-4.3-19.6-2.5
		c-13.3,3.5-21.5,16.2-18.3,28.4c0.8,3.1,2.3,5.8,4.3,8.2c5.6-4.1,12-7.5,18.8-10C523.6,297,532.3,295.5,540.9,295.4z"/>
	<path class="st3" d="M634.4,331.2c-3-6.3-8.3-11.2-14.6-13.4c-5.6-2-11.6-1.7-16.8,0.7h0c-1.9,0.9-3.5,2.1-5,3.5
		c5.5,6.7,10,14.3,13.1,22.8c2.5,6.8,3.9,13.8,4.4,20.7c3,0,6-0.7,8.9-2C635.8,358.1,640.3,343.6,634.4,331.2z"/>
	<path class="st3" d="M600.4,348.7c-5.9-16.3-17.5-29.1-32.7-36.2c-15.1-7.1-32.5-7.7-48.7-1.8c-15.4,5.6-27.8,16.6-34.1,30.1
		c-13.9,29.9,8.5,56.7,37,70c19.1,8.9,38.7,10.9,53.6,5.5c10.8-3.9,18.8-11.4,23.8-22.2C605.6,380.6,606,364,600.4,348.7z
		 M510.7,360c-2.6-1.3-4.4-2.8-4.1-6.3c0.5-3.7,2.4-7.6,5.7-8.8c3.1-1,7.6,0.6,7.9,4.7c0,3.4-1.4,7.6-4.6,9.7
		C514.1,360.4,512.4,360.5,510.7,360z M545.4,397.8c-4.9,0.1-10.1-2.6-13.2-6.6c-5.8,0.8-12.9-2.9-16.2-7.7
		c-0.9-1.7-0.4-4.2,1.3-4.7c4.8-0.4,5.4,5.6,10.5,5.6c1.6-0.3,4-0.5,4.6-2.8c0.3-1.1-3-2.5-2.9-7.2c0.2-2.7,2.1-5,4.5-5.5
		c5.2-0.9,13.1,2.9,12.8,9c-0.1,2.4-1.9,4.2-3.2,5.3c-2.4,1.4-4.3,0.1-5.4,0.9c-0.4,0.2-0.6,0.7-0.8,1.7c0.3,2.7,2.3,5.1,5.2,5.5
		c3,0.3,8.1-1.3,9.1,2.9C551.8,397.6,547.5,397.6,545.4,397.8z M572.1,385.4c-1.8,1-3.9,1.3-5.9,0.3c-1.9-0.9-3-2.4-3.3-4.7
		c-0.2-3.4,2.3-8.5,5-10c2.9-1.9,8-0.3,8.6,3.5C577.4,378.6,575.3,383.3,572.1,385.4z"/>
	<path class="st1" d="M307.2,495.2c27,21.3,47.9,24.4,62.1,9.1c7.8-8.5,5.7-22.1,0.4-31.2c-1.1-1.9-1.3-4.3-0.4-6.3
		c2.7-6.5,1.7-13.1-2.5-16.8c-4.3-3.7-10.9-3.6-17.5,0.3c-2.3,1.4-5.2,1.3-7.4-0.1c-12.6-8.1-21.4-16.6-28.4-23.4
		c-5.1-5-9.6-9.3-14.1-12.2c-7.1-4.5-15-5.5-21.1-2.7c-5.4,2.5-8.9,7.7-10,14.7l0,0C264.6,449.2,277.4,471.7,307.2,495.2z"/>
</g>
</svg>
